<svg width="459" height="529" viewBox="0 0 459 529" fill="none" xmlns="http://www.w3.org/2000/svg">
<g clip-path="url(#clip0_373_2309)">
<path d="M234.707 1.7453C195.942 -0.347793 150.341 21.575 137.821 66.4767C129.858 95.0265 134.171 124.24 134.171 124.24C134.171 124.24 127.412 121.586 121.56 125.238C117.653 127.679 108.95 134.203 116.584 161.091C124.219 187.979 139.481 192.294 146.781 191.631C146.781 191.631 164.696 271.304 168.018 286.239C171.333 301.18 177.641 322.755 177.641 322.755C177.641 322.755 157.203 390.211 155.208 417.762C153.212 445.314 261.621 373.324 288.169 311.246L285.478 233.441C285.478 233.441 300.438 215.048 302.897 204.911C305.633 193.621 310.364 117.606 311.027 99.3479C311.69 81.0897 300.734 5.31322 234.707 1.7453Z" fill="#FFC398"/>
<path d="M136.576 64.9743C149.773 19.8773 195.802 -1.96793 234.794 0.137393C268.556 1.96177 288.233 22.3011 299.314 44.3138C310.36 66.2584 312.976 90.0421 312.636 99.4066C312.303 108.564 310.953 132.154 309.345 154.857C308.541 166.211 307.671 177.355 306.831 186.371C306.048 194.768 305.281 201.446 304.597 204.688L304.461 205.29C303.795 208.037 302.315 211.238 300.545 214.427C298.763 217.638 296.631 220.935 294.59 223.892C292.547 226.853 290.584 229.491 289.132 231.388C288.405 232.337 287.806 233.102 287.387 233.631C287.283 233.763 287.188 233.88 287.107 233.982L289.777 311.191C289.785 311.427 289.741 311.662 289.648 311.88C276.206 343.314 242.189 377.041 211.941 399.41C196.805 410.604 182.472 419.06 171.97 422.981C166.78 424.919 162.244 425.86 158.953 425.223C157.248 424.893 155.759 424.114 154.77 422.723C153.793 421.35 153.461 419.603 153.603 417.646C154.613 403.696 160.265 379.797 165.617 359.516C168.301 349.347 170.921 340.042 172.87 333.28C173.845 329.898 174.653 327.151 175.217 325.25C175.498 324.299 175.72 323.559 175.87 323.057C175.905 322.941 175.936 322.837 175.963 322.746C175.923 322.609 175.875 322.442 175.818 322.246C175.639 321.626 175.378 320.722 175.056 319.592C174.412 317.332 173.518 314.163 172.521 310.526C170.528 303.259 168.114 294.099 166.447 286.588L164.581 278.237C162.158 267.415 158.255 250.027 154.584 233.687C152.137 222.795 149.794 212.369 148.063 204.666C147.197 200.815 146.484 197.644 145.987 195.437C145.793 194.571 145.631 193.853 145.507 193.301C141.542 193.329 136.174 192.068 130.83 187.971C124.811 183.356 118.925 175.225 115.037 161.531C111.174 147.928 111.367 139.221 113.213 133.502C115.086 127.699 118.59 125.195 120.708 123.872H120.709C124.029 121.8 127.567 121.541 130.197 121.765C130.969 121.831 131.672 121.941 132.283 122.061C132.202 121.319 132.111 120.417 132.019 119.37C131.735 116.15 131.442 111.562 131.401 106.076C131.317 95.1173 132.235 80.5141 136.271 66.0441L136.576 64.9743ZM234.621 3.35314C196.39 1.28895 151.635 22.9274 139.371 66.9095C135.444 80.9891 134.537 95.2671 134.619 106.052C134.66 111.438 134.948 115.939 135.225 119.088C135.363 120.662 135.499 121.898 135.599 122.737C135.649 123.156 135.691 123.477 135.719 123.69C135.734 123.797 135.745 123.877 135.752 123.93C135.756 123.956 135.759 123.976 135.761 123.989C135.762 123.995 135.762 123.999 135.763 124.002C135.763 124.003 135.763 124.004 135.763 124.004C135.847 124.572 135.622 125.142 135.172 125.5C134.724 125.856 134.12 125.948 133.587 125.74C133.587 125.74 133.585 125.74 133.583 125.739H133.584L133.585 125.739C133.584 125.739 133.584 125.739 133.583 125.739V125.738H133.582C133.575 125.736 133.562 125.731 133.543 125.724C133.505 125.71 133.443 125.688 133.36 125.66C133.193 125.604 132.938 125.525 132.612 125.439C131.957 125.266 131.022 125.068 129.923 124.974C127.71 124.785 124.944 125.025 122.412 126.604L122.412 126.604C120.622 127.722 117.822 129.701 116.276 134.492C114.702 139.367 114.36 147.366 118.133 160.651C121.879 173.845 127.442 181.316 132.787 185.415C138.14 189.518 143.376 190.323 146.636 190.027C147.44 189.954 148.174 190.489 148.352 191.278L146.781 191.631C148.314 191.286 148.351 191.278 148.352 191.278C148.352 191.279 148.352 191.28 148.352 191.281C148.353 191.284 148.354 191.287 148.355 191.292C148.357 191.302 148.36 191.316 148.364 191.335C148.373 191.374 148.386 191.431 148.403 191.507C148.437 191.658 148.488 191.882 148.554 192.176C148.686 192.763 148.879 193.627 149.127 194.73C149.624 196.938 150.337 200.109 151.203 203.96C152.934 211.663 155.277 222.089 157.724 232.981C161.394 249.319 165.298 266.709 167.722 277.534L169.589 285.889V285.89C171.238 293.321 173.635 302.419 175.625 309.674C176.619 313.298 177.51 316.457 178.152 318.709C178.473 319.835 178.731 320.735 178.91 321.352C178.999 321.661 179.069 321.899 179.115 322.06C179.139 322.14 179.156 322.201 179.168 322.242C179.174 322.262 179.179 322.278 179.182 322.288C179.183 322.293 179.184 322.297 179.185 322.3C179.185 322.301 179.186 322.302 179.186 322.302L179.186 322.303C179.274 322.603 179.272 322.923 179.181 323.223L177.642 322.755L179.181 323.223C179.181 323.224 179.181 323.224 179.181 323.225C179.18 323.227 179.179 323.23 179.178 323.234C179.176 323.242 179.172 323.254 179.167 323.27C179.157 323.302 179.143 323.351 179.123 323.414C179.085 323.542 179.028 323.733 178.953 323.982C178.803 324.481 178.583 325.218 178.302 326.165C177.741 328.06 176.936 330.799 175.963 334.172C174.018 340.919 171.405 350.199 168.729 360.338C163.363 380.672 157.798 404.278 156.813 417.879C156.705 419.366 156.987 420.286 157.392 420.855C157.783 421.406 158.445 421.845 159.565 422.062C161.925 422.518 165.738 421.871 170.845 419.964C180.938 416.196 194.993 407.94 210.028 396.821C240.016 374.643 273.346 341.492 286.548 310.939L283.87 233.497C283.857 233.108 283.984 232.727 284.23 232.425H284.23C284.231 232.425 284.231 232.424 284.232 232.423C284.234 232.421 284.236 232.418 284.239 232.414C284.246 232.406 284.256 232.393 284.27 232.376C284.297 232.342 284.338 232.291 284.392 232.224C284.5 232.089 284.659 231.889 284.864 231.631C285.273 231.115 285.862 230.364 286.576 229.43C288.006 227.562 289.936 224.968 291.941 222.063C293.948 219.155 296.017 215.952 297.731 212.864C299.458 209.753 300.77 206.853 301.334 204.531C301.984 201.847 302.784 195.113 303.626 186.072C304.463 177.09 305.331 165.972 306.134 154.629C307.742 131.938 309.089 108.391 309.419 99.2896C309.742 90.396 307.211 67.1622 296.439 45.7622C285.701 24.4301 266.886 5.09668 234.621 3.35314Z" fill="#977A67"/>
<path d="M169.621 108.023C168.295 108.358 188.205 98.7297 193.844 98.7297C199.483 98.7297 219.394 97.0681 219.394 97.0681C219.394 97.0681 224.202 100.552 226.861 102.549C226.861 102.549 178.916 105.698 169.621 108.023Z" fill="#977A67"/>
<path d="M219.259 95.4636C219.643 95.4316 220.026 95.5383 220.337 95.7642L220.338 95.7648C220.339 95.7653 220.34 95.7659 220.341 95.7667C220.344 95.7684 220.347 95.7711 220.351 95.7743C220.361 95.7809 220.374 95.7909 220.392 95.8038C220.428 95.8299 220.481 95.8686 220.55 95.9183C220.687 96.0177 220.886 96.1618 221.132 96.3409C221.625 96.6993 222.311 97.198 223.079 97.7592C224.614 98.88 226.488 100.256 227.826 101.261C228.365 101.665 228.595 102.362 228.403 103.008C228.223 103.613 227.708 104.053 227.091 104.142L226.966 104.155C226.965 104.155 226.965 104.155 226.964 104.155C226.963 104.156 226.96 104.156 226.958 104.156C226.952 104.156 226.943 104.157 226.932 104.157C226.909 104.159 226.875 104.161 226.829 104.164C226.739 104.17 226.603 104.18 226.427 104.191C226.074 104.215 225.556 104.25 224.892 104.295C223.564 104.386 221.657 104.517 219.339 104.683C214.702 105.014 208.425 105.48 201.858 106.018C195.29 106.557 188.44 107.167 182.658 107.788C176.83 108.412 172.206 109.036 170.011 109.585L170.01 109.584C169.962 109.597 169.818 109.632 169.642 109.64C169.57 109.643 169.325 109.652 169.035 109.552C168.695 109.434 168.064 109.054 167.961 108.225C167.886 107.62 168.171 107.199 168.226 107.117C168.322 106.975 168.42 106.879 168.464 106.837C168.559 106.747 168.649 106.683 168.689 106.655C168.851 106.541 169.079 106.414 169.286 106.303C169.746 106.055 170.461 105.694 171.352 105.262C173.142 104.396 175.706 103.214 178.487 102.022C181.264 100.831 184.282 99.6204 186.976 98.7045C189.594 97.814 192.133 97.1196 193.844 97.1196C196.592 97.1195 202.911 96.7102 208.616 96.2931C211.453 96.0858 214.114 95.8783 216.067 95.7227C217.043 95.6449 217.841 95.58 218.396 95.5346C218.673 95.512 218.889 95.494 219.036 95.4818C219.109 95.4758 219.165 95.4711 219.203 95.468C219.222 95.4664 219.236 95.4656 219.246 95.4648C219.25 95.4644 219.254 95.4638 219.256 95.4636H219.259ZM169.227 106.462L169.231 106.461C169.233 106.461 169.236 106.46 169.238 106.459C169.231 106.461 169.227 106.462 169.227 106.462ZM218.658 98.7441C218.101 98.7896 217.301 98.8548 216.322 98.9328C214.365 99.0887 211.696 99.2965 208.85 99.5045C203.19 99.9182 196.736 100.34 193.844 100.34C192.736 100.34 190.671 100.849 188.012 101.753C185.541 102.593 182.75 103.705 180.116 104.828C180.831 104.747 181.565 104.666 182.314 104.586C188.136 103.961 195.015 103.349 201.595 102.81C208.176 102.27 214.466 101.803 219.109 101.471C220.321 101.385 221.421 101.309 222.384 101.242C221.972 100.94 221.567 100.641 221.181 100.36C220.415 99.8005 219.732 99.3033 219.241 98.946C219.127 98.8632 219.023 98.7883 218.931 98.7215C218.848 98.7283 218.756 98.736 218.658 98.7441Z" fill="#977A67"/>
<path d="M262.858 97.0682C262.858 97.0682 285.092 94.7432 291.722 95.7415L300.02 102.549C300.02 102.549 263.353 102.845 260.701 103.669L262.858 97.0682Z" fill="#977A67"/>
<path d="M284.373 93.9181C287.202 93.8454 289.804 93.8727 291.611 94.1011L291.962 94.1489L292.068 94.1691C292.315 94.2234 292.546 94.3351 292.743 94.4961L301.04 101.304C301.564 101.733 301.763 102.446 301.537 103.085C301.312 103.724 300.71 104.153 300.033 104.159H300.006C299.989 104.159 299.962 104.159 299.928 104.16C299.859 104.16 299.755 104.161 299.621 104.162C299.352 104.165 298.958 104.168 298.454 104.173C297.447 104.183 296.006 104.198 294.268 104.218C290.791 104.259 286.129 104.322 281.385 104.41C276.639 104.499 271.819 104.612 268.024 104.755C266.125 104.827 264.495 104.905 263.263 104.991C262.646 105.033 262.143 105.077 261.763 105.121C261.573 105.142 261.424 105.163 261.314 105.182C261.192 105.202 261.159 105.213 261.179 105.207C260.604 105.386 259.977 105.228 259.555 104.799C259.132 104.37 258.984 103.742 259.171 103.169L261.328 96.5678C261.525 95.9641 262.059 95.5326 262.69 95.4666H262.694C262.697 95.4663 262.702 95.4652 262.707 95.4647C262.718 95.4635 262.735 95.4619 262.756 95.4596C262.799 95.4552 262.862 95.4492 262.945 95.4408C263.111 95.4238 263.355 95.3988 263.667 95.3678C264.291 95.3059 265.189 95.2184 266.287 95.1169C268.482 94.9138 271.481 94.6537 274.689 94.4244C277.894 94.1953 281.322 93.9966 284.373 93.9181ZM291.056 97.2779C289.527 97.1004 287.203 97.0664 284.456 97.137C281.473 97.2137 278.1 97.409 274.918 97.6364C271.739 97.8636 268.764 98.1221 266.583 98.3238C265.538 98.4205 264.675 98.5039 264.062 98.5647L263.011 101.78C263.021 101.78 263.031 101.779 263.041 101.779C264.322 101.69 265.991 101.61 267.903 101.538C271.728 101.393 276.572 101.278 281.325 101.19C286.079 101.101 290.749 101.039 294.23 100.998C294.701 100.993 295.15 100.988 295.574 100.984L291.056 97.2779Z" fill="#977A67"/>
<path d="M218.003 96.2569C218.451 95.489 219.436 95.2296 220.204 95.6776H220.205L220.205 95.6782L220.207 95.6789C220.208 95.6796 220.21 95.6808 220.212 95.682C220.216 95.6845 220.222 95.6881 220.23 95.6927C220.246 95.7021 220.269 95.7157 220.3 95.7336C220.36 95.7695 220.45 95.8219 220.564 95.8896C220.791 96.025 221.119 96.2213 221.52 96.4657C222.323 96.9541 223.426 97.6378 224.625 98.4166C226.977 99.9449 229.851 101.938 231.481 103.568C231.903 103.99 232.185 104.564 232.385 105.058C232.602 105.594 232.8 106.235 232.982 106.943C233.349 108.362 233.69 110.185 234.008 112.259C234.645 116.417 235.209 121.724 235.68 127.129C236.623 137.936 237.207 149.263 237.263 152.816V152.816C237.311 155.943 237.272 157.692 237.216 158.675C237.189 159.166 237.155 159.487 237.123 159.706C237.107 159.816 237.089 159.912 237.068 159.999C237.058 160.044 237.045 160.09 237.03 160.138C237.023 160.162 237.014 160.187 237.004 160.213C237 160.226 236.995 160.24 236.989 160.254C236.986 160.261 236.983 160.268 236.98 160.276C236.979 160.279 236.977 160.283 236.975 160.286C236.975 160.288 236.974 160.291 236.974 160.292C236.973 160.293 236.972 160.295 236.787 160.216L235.492 159.662L236.971 160.298C236.62 161.114 235.673 161.492 234.857 161.14C234.119 160.823 233.741 160.019 233.935 159.264C233.936 159.258 233.937 159.249 233.939 159.235C233.952 159.147 233.978 158.93 234.003 158.494C234.052 157.622 234.093 155.96 234.045 152.866C233.991 149.418 233.413 138.173 232.474 127.409C232.005 122.029 231.448 116.802 230.827 112.748C230.515 110.716 230.193 109.015 229.866 107.748C229.702 107.113 229.546 106.622 229.402 106.267C229.282 105.97 229.203 105.853 229.192 105.834L229.205 105.845C227.847 104.487 225.247 102.661 222.871 101.117C221.706 100.36 220.631 99.694 219.848 99.2173C219.456 98.9791 219.138 98.7881 218.918 98.6575C218.809 98.5923 218.724 98.5421 218.666 98.5085C218.638 98.4917 218.617 98.4791 218.602 98.4707C218.595 98.4666 218.59 98.4633 218.587 98.4613C218.585 98.4604 218.584 98.4598 218.583 98.4594L218.582 98.4588C217.815 98.0106 217.555 97.0248 218.003 96.2569ZM233.938 159.247C233.937 159.252 233.937 159.256 233.936 159.259C233.94 159.243 233.943 159.227 233.948 159.211C233.944 159.226 233.941 159.239 233.938 159.247ZM233.962 159.162C233.977 159.118 233.994 159.074 234.012 159.031L234.01 159.037C234.008 159.04 234.007 159.044 234.005 159.047C234.002 159.054 233.999 159.061 233.996 159.068C233.991 159.081 233.986 159.094 233.982 159.106C233.974 159.126 233.968 159.145 233.962 159.162Z" fill="#977A67"/>
<path d="M260.12 176.838C260.122 176.839 260.124 176.84 260.127 176.842C260.138 176.847 260.158 176.858 260.186 176.872C260.244 176.901 260.335 176.945 260.454 176.997C260.695 177.103 261.04 177.237 261.445 177.349C262.289 177.581 263.215 177.665 264.001 177.391C264.84 177.098 265.758 177.541 266.051 178.381C266.344 179.22 265.901 180.138 265.062 180.431C263.395 181.013 261.727 180.766 260.59 180.453C260.296 180.372 260.026 180.283 259.785 180.195C259.352 180.62 258.755 181.124 257.961 181.622C256.087 182.8 253.189 183.916 248.929 184.005C244.632 184.096 241.557 182.974 239.525 181.77C238.515 181.171 237.776 180.56 237.277 180.083C237.276 180.082 237.275 180.081 237.274 180.08C236.301 180.377 235.184 180.717 234.065 180.998C232.557 181.378 230.9 181.691 229.359 181.661H229.358C225.065 181.573 221.543 178.196 221.326 173.885L221.327 173.885L221.282 173.018V173.014C221.095 169.23 222.561 166.03 223.994 163.838C224.716 162.734 225.447 161.856 226.002 161.251C226.279 160.948 226.515 160.711 226.684 160.547C226.769 160.465 226.838 160.401 226.888 160.355C226.913 160.332 226.933 160.314 226.948 160.3L226.973 160.278C226.974 160.277 226.975 160.276 226.975 160.276L226.976 160.274C226.976 160.274 226.977 160.274 227.996 161.434L226.977 160.274C227.645 159.687 228.662 159.753 229.249 160.422C229.835 161.09 229.768 162.106 229.101 162.693L229.101 162.693C229.101 162.694 229.099 162.695 229.098 162.696C229.093 162.701 229.082 162.71 229.067 162.724C229.036 162.752 228.988 162.798 228.924 162.86C228.795 162.985 228.605 163.176 228.374 163.427C227.911 163.932 227.294 164.672 226.687 165.6C225.463 167.473 224.356 169.997 224.496 172.851L224.541 173.721V173.724C224.672 176.33 226.803 178.387 229.423 178.441C230.535 178.463 231.863 178.232 233.281 177.876C234.7 177.519 236.06 177.077 237.314 176.705L237.437 176.673C238.049 176.543 238.687 176.78 239.064 177.288L239.07 177.295C239.081 177.31 239.104 177.338 239.139 177.379C239.21 177.461 239.33 177.592 239.502 177.756C239.844 178.083 240.39 178.54 241.166 178.999C242.703 179.91 245.19 180.863 248.861 180.786C252.565 180.708 254.89 179.749 256.249 178.895C256.935 178.464 257.392 178.05 257.665 177.763C257.801 177.619 257.892 177.507 257.943 177.441C257.968 177.408 257.983 177.386 257.989 177.378C257.991 177.374 257.992 177.373 257.99 177.376C257.989 177.377 257.988 177.38 257.986 177.383C257.985 177.384 257.984 177.386 257.982 177.388C257.982 177.389 257.981 177.39 257.981 177.391C258.436 176.668 259.375 176.426 260.123 176.84L260.12 176.838Z" fill="#977A67"/>
<path d="M208.585 110.586C214.395 110.586 218.863 112.686 221.864 114.774C223.364 115.817 224.504 116.862 225.275 117.652C225.661 118.048 225.956 118.382 226.159 118.622C226.26 118.742 226.338 118.839 226.394 118.909C226.421 118.944 226.444 118.972 226.46 118.993C226.468 119.004 226.474 119.012 226.479 119.019C226.482 119.022 226.484 119.025 226.485 119.028C226.486 119.029 226.487 119.03 226.488 119.031L226.489 119.032C226.49 119.033 226.49 119.034 225.199 119.996L226.49 119.033C227.021 119.747 226.874 120.756 226.161 121.287C225.448 121.818 224.44 121.67 223.909 120.957C223.908 120.956 223.907 120.954 223.906 120.953C223.899 120.944 223.887 120.929 223.87 120.907C223.835 120.863 223.778 120.792 223.699 120.699C223.542 120.513 223.299 120.237 222.972 119.901C222.317 119.229 221.33 118.324 220.027 117.418C217.423 115.606 213.583 113.806 208.585 113.806C201.609 113.81 195.123 115.458 190.359 117.123C187.982 117.953 186.049 118.782 184.714 119.401C184.047 119.711 183.531 119.968 183.184 120.145C183.011 120.233 182.881 120.302 182.795 120.348C182.753 120.371 182.721 120.387 182.701 120.398C182.691 120.404 182.684 120.407 182.68 120.41C182.678 120.411 182.677 120.412 182.676 120.412L182.676 120.411C181.899 120.842 180.92 120.562 180.489 119.784C180.058 119.007 180.338 118.027 181.116 117.596L181.819 118.864C181.116 117.596 181.116 117.595 181.117 117.595L181.117 117.594C181.118 117.594 181.119 117.594 181.121 117.593C181.123 117.592 181.126 117.59 181.13 117.587C181.138 117.583 181.149 117.577 181.163 117.57C181.19 117.555 181.229 117.534 181.28 117.507C181.381 117.453 181.528 117.375 181.718 117.278C182.099 117.083 182.652 116.808 183.36 116.48C184.774 115.824 186.806 114.953 189.298 114.082C194.269 112.345 201.128 110.59 208.584 110.586H208.585Z" fill="#977A67"/>
<path d="M250.35 79.8627C251.237 79.9194 251.91 80.6848 251.853 81.5721V81.5734C251.853 81.574 251.853 81.5749 251.853 81.5759C251.853 81.5781 251.852 81.5813 251.852 81.5854C251.852 81.5934 251.851 81.6053 251.85 81.6206C251.848 81.6515 251.845 81.6973 251.841 81.7564C251.833 81.8746 251.821 82.0476 251.804 82.269C251.772 82.7121 251.723 83.3497 251.656 84.1313C251.522 85.6936 251.318 87.8365 251.035 90.1546C250.752 92.4696 250.389 94.9776 249.935 97.2647C249.488 99.5226 248.931 101.676 248.23 103.221C247.862 104.03 246.908 104.389 246.099 104.021C245.29 103.654 244.932 102.699 245.299 101.889C245.84 100.697 246.34 98.8463 246.778 96.6377C247.211 94.458 247.563 92.0361 247.84 89.764C248.117 87.4952 248.317 85.3928 248.449 83.8571C248.514 83.0898 248.563 82.4651 248.595 82.0332C248.61 81.8172 248.622 81.6494 248.63 81.5363C248.634 81.4799 248.637 81.4371 248.639 81.4086C248.639 81.3944 248.64 81.3835 248.64 81.3765C248.641 81.3732 248.641 81.3706 248.641 81.369V81.3671C248.698 80.4798 249.463 79.806 250.35 79.8627Z" fill="#977A67"/>
<path d="M261.384 98.9333C261.741 98.1191 262.69 97.7481 263.504 98.105C264.318 98.462 264.688 99.412 264.332 100.226C264.331 100.227 264.331 100.227 264.33 100.228C264.329 100.231 264.327 100.237 264.324 100.244C264.318 100.259 264.307 100.282 264.294 100.314C264.267 100.379 264.226 100.478 264.173 100.608C264.068 100.868 263.916 101.253 263.736 101.744C263.376 102.727 262.905 104.128 262.464 105.783C261.772 108.38 261.174 111.53 261.159 114.655C262.605 113.829 264.675 112.793 267.321 111.847C272.824 109.88 280.806 108.299 290.797 109.766H290.798C294.499 110.311 296.434 113.392 297.405 115.798C297.909 117.048 298.213 118.254 298.392 119.14C298.482 119.585 298.542 119.957 298.58 120.221C298.598 120.353 298.612 120.459 298.62 120.535C298.625 120.572 298.628 120.603 298.631 120.625C298.632 120.635 298.632 120.644 298.633 120.651C298.633 120.654 298.634 120.658 298.634 120.66V120.664C298.634 120.665 298.634 120.666 297.033 120.82L298.635 120.666C298.72 121.551 298.072 122.337 297.187 122.423C296.303 122.508 295.517 121.86 295.431 120.976L295.43 120.966C295.429 120.955 295.427 120.937 295.424 120.911C295.418 120.859 295.408 120.779 295.393 120.674C295.363 120.463 295.313 120.154 295.237 119.777C295.084 119.019 294.829 118.016 294.421 117.004C293.566 114.887 292.267 113.238 290.329 112.952V112.952C280.932 111.572 273.484 113.064 268.404 114.88C265.861 115.789 263.91 116.781 262.605 117.537C261.953 117.914 261.463 118.232 261.142 118.452C260.982 118.561 260.864 118.646 260.789 118.701C260.752 118.728 260.725 118.748 260.709 118.76C260.702 118.766 260.697 118.769 260.694 118.771C260.236 119.129 259.621 119.213 259.084 118.989C258.547 118.766 258.173 118.269 258.105 117.691C257.575 113.168 258.419 108.46 259.354 104.953C259.825 103.186 260.328 101.692 260.714 100.636C260.908 100.109 261.072 99.6891 261.19 99.3987C261.248 99.2535 261.295 99.14 261.329 99.0616C261.345 99.0225 261.358 98.9919 261.368 98.9704C261.372 98.9599 261.376 98.9514 261.378 98.9453C261.38 98.9422 261.381 98.9397 261.382 98.9377C261.382 98.9369 261.382 98.9359 261.383 98.9352L261.383 98.934C261.384 98.9337 261.403 98.9422 262.857 99.5799L261.384 98.9333ZM260.695 118.772H260.694H260.695Z" fill="#977A67"/>
<path d="M273.803 203.863C274.598 203.466 275.565 203.789 275.962 204.585C276.359 205.38 276.036 206.347 275.241 206.745C274.59 207.069 273.742 207.299 272.867 207.477C271.963 207.66 270.912 207.81 269.789 207.935C267.541 208.183 264.917 208.337 262.433 208.433C259.944 208.529 257.573 208.568 255.827 208.583C254.953 208.59 254.234 208.592 253.733 208.591C253.548 208.591 253.393 208.59 253.271 208.589C253.199 208.618 253.118 208.652 253.026 208.688C252.675 208.825 252.176 209.009 251.578 209.204C250.391 209.591 248.758 210.037 247.067 210.221C245.118 210.433 242.925 209.763 241.392 209.168C240.589 208.857 239.893 208.536 239.397 208.293C239.249 208.221 239.12 208.152 239.009 208.095C238.871 208.103 238.704 208.113 238.51 208.124C237.907 208.158 237.044 208.205 236.001 208.263C233.913 208.378 231.101 208.53 228.205 208.678C222.481 208.971 216.246 209.261 214.811 209.199C212.001 209.077 210.159 208.809 208.989 208.556C208.403 208.429 207.98 208.305 207.684 208.203C207.537 208.152 207.42 208.106 207.33 208.067C207.286 208.048 207.247 208.03 207.215 208.015C207.199 208.007 207.184 208 207.171 207.994C207.165 207.99 207.158 207.987 207.153 207.984C207.15 207.983 207.147 207.981 207.144 207.98L207.138 207.977C207.138 207.974 207.165 207.922 207.89 206.553L207.136 207.976C206.351 207.56 206.052 206.585 206.468 205.799C206.884 205.014 207.856 204.715 208.641 205.13L208.642 205.129C208.641 205.129 208.64 205.129 208.64 205.128C208.639 205.128 208.637 205.127 208.636 205.126C208.634 205.125 208.631 205.124 208.629 205.123C208.625 205.121 208.621 205.119 208.617 205.117C208.61 205.113 208.605 205.111 208.602 205.109L208.6 205.109C208.614 205.115 208.658 205.133 208.737 205.16C208.896 205.215 209.192 205.305 209.668 205.408C210.622 205.614 212.277 205.866 214.951 205.982C216.188 206.035 222.193 205.762 228.041 205.462C230.931 205.314 233.739 205.162 235.824 205.048C236.866 204.99 237.728 204.942 238.329 204.909C238.63 204.892 238.865 204.878 239.025 204.869C239.105 204.865 239.167 204.861 239.208 204.859C239.228 204.858 239.244 204.857 239.254 204.857C239.26 204.856 239.264 204.856 239.266 204.856C239.267 204.856 239.268 204.855 239.269 204.855H239.27C239.575 204.838 239.879 204.909 240.146 205.058C240.147 205.058 240.149 205.059 240.152 205.06C240.158 205.064 240.168 205.069 240.182 205.077C240.209 205.092 240.253 205.115 240.31 205.145C240.425 205.206 240.597 205.295 240.814 205.401C241.25 205.615 241.86 205.896 242.555 206.166C244.019 206.734 245.591 207.143 246.719 207.02C248.105 206.869 249.505 206.493 250.581 206.143C251.113 205.969 251.554 205.806 251.859 205.687C252.011 205.628 252.128 205.58 252.206 205.548C252.244 205.532 252.273 205.52 252.291 205.512C252.3 205.508 252.306 205.505 252.31 205.504C252.312 205.503 252.313 205.503 252.313 205.502C252.52 205.412 252.744 205.366 252.97 205.368L252.971 205.368H253.019C253.052 205.369 253.102 205.369 253.167 205.369C253.297 205.37 253.489 205.371 253.736 205.371C254.228 205.371 254.937 205.37 255.8 205.363C257.526 205.348 259.862 205.31 262.308 205.216C264.759 205.121 267.298 204.97 269.436 204.734C270.505 204.616 271.453 204.479 272.227 204.321C273.03 204.158 273.541 203.994 273.803 203.863Z" fill="#977A67"/>
<path d="M225.089 212.825C225.428 212.003 226.367 211.612 227.188 211.949C227.19 211.95 227.193 211.95 227.198 211.952C227.208 211.956 227.226 211.963 227.251 211.973C227.3 211.992 227.379 212.022 227.487 212.062C227.703 212.14 228.032 212.256 228.471 212.394C229.348 212.67 230.66 213.039 232.358 213.392C235.756 214.1 240.701 214.746 246.823 214.476H246.823C251.381 214.277 254.619 213.756 256.693 213.295C257.729 213.065 258.476 212.849 258.951 212.696C259.189 212.62 259.359 212.559 259.464 212.52C259.516 212.5 259.553 212.486 259.573 212.478L259.586 212.473C260.403 212.123 261.348 212.502 261.698 213.32C262.048 214.137 261.669 215.083 260.852 215.433L260.218 213.953C260.82 215.359 260.85 215.43 260.851 215.433L260.847 215.435C260.845 215.436 260.842 215.437 260.84 215.438C260.835 215.44 260.829 215.443 260.822 215.445C260.809 215.451 260.791 215.459 260.77 215.467C260.726 215.485 260.666 215.508 260.59 215.536C260.439 215.593 260.221 215.67 259.936 215.762C259.365 215.945 258.523 216.187 257.391 216.438C255.125 216.942 251.701 217.486 246.963 217.693L246.964 217.693C240.54 217.977 235.326 217.3 231.703 216.545C229.891 216.168 228.476 215.771 227.504 215.465C227.018 215.312 226.643 215.181 226.384 215.087C226.255 215.04 226.155 215.002 226.085 214.974C226.05 214.961 226.022 214.95 226.002 214.942C225.992 214.938 225.984 214.935 225.978 214.932C225.975 214.931 225.972 214.929 225.97 214.928C225.969 214.928 225.968 214.928 225.967 214.928L225.966 214.927C225.965 214.927 225.965 214.927 226.577 213.438L225.964 214.926C225.143 214.588 224.751 213.647 225.089 212.825ZM259.586 212.473V212.472L259.588 212.471C259.589 212.471 259.59 212.471 259.591 212.47L259.586 212.473Z" fill="#977A67"/>
<path d="M245.724 230.531C248 230.525 249.475 230.586 250.396 230.652C250.858 230.685 251.184 230.72 251.404 230.748C251.514 230.762 251.599 230.775 251.662 230.785C251.693 230.79 251.719 230.795 251.74 230.799C251.751 230.801 251.761 230.803 251.769 230.804C251.773 230.805 251.777 230.806 251.781 230.807C251.782 230.807 251.784 230.808 251.786 230.808H251.788L251.789 230.809C251.789 230.812 251.776 230.878 251.493 232.242L251.79 230.809C252.66 230.989 253.219 231.841 253.039 232.712C252.859 233.58 252.013 234.139 251.145 233.963L251.156 233.966C251.156 233.966 251.151 233.964 251.141 233.963C251.118 233.959 251.071 233.952 250.995 233.942C250.842 233.922 250.576 233.893 250.165 233.864C249.445 233.812 248.289 233.759 246.526 233.751L245.733 233.751C243.698 233.756 241.155 234.378 239.028 235.049C237.984 235.379 237.076 235.709 236.431 235.956C236.109 236.079 235.854 236.181 235.681 236.251C235.594 236.287 235.528 236.314 235.485 236.332C235.463 236.341 235.447 236.348 235.437 236.353C235.432 236.355 235.428 236.356 235.426 236.357L235.425 236.358C234.608 236.708 233.662 236.329 233.312 235.511C232.962 234.694 233.341 233.747 234.157 233.397L234.662 234.575C234.164 233.412 234.158 233.397 234.158 233.397H234.159C234.159 233.397 234.16 233.397 234.161 233.397C234.162 233.396 234.164 233.395 234.166 233.394C234.17 233.392 234.175 233.39 234.182 233.387C234.196 233.381 234.217 233.372 234.243 233.361C234.295 233.34 234.37 233.309 234.466 233.27C234.659 233.191 234.936 233.08 235.281 232.948C235.972 232.684 236.941 232.331 238.059 231.978C240.255 231.285 243.182 230.538 245.724 230.531V230.531Z" fill="#977A67"/>
<path d="M245.239 253.245C246.127 253.245 246.848 253.966 246.848 254.855H245.239C246.785 254.855 246.846 254.855 246.848 254.856V254.882C246.848 254.895 246.848 254.913 246.847 254.934C246.847 254.978 246.845 255.038 246.842 255.112C246.837 255.262 246.826 255.472 246.806 255.729C246.765 256.24 246.683 256.95 246.519 257.744C246.202 259.279 245.528 261.376 244.014 262.891C243.386 263.52 242.367 263.52 241.738 262.891C241.11 262.262 241.11 261.243 241.738 260.614C242.587 259.766 243.094 258.415 243.367 257.092C243.498 256.457 243.565 255.885 243.598 255.472C243.614 255.267 243.622 255.104 243.626 254.997C243.628 254.943 243.629 254.903 243.629 254.879V254.852C243.631 253.964 244.351 253.245 245.239 253.245Z" fill="#977A67"/>
<path d="M197.011 114.167C197.011 114.167 194.623 124.446 204.188 123.525C213.754 122.604 211.572 112.654 211.572 112.654C211.572 112.654 201.234 112.956 197.011 114.167Z" fill="#977A67"/>
<path d="M211.886 112.584V112.585L211.887 112.586C211.887 112.586 211.887 112.587 211.887 112.587C211.887 112.589 211.888 112.591 211.889 112.594C211.89 112.599 211.891 112.608 211.893 112.618C211.897 112.638 211.904 112.668 211.911 112.706C211.925 112.783 211.944 112.894 211.965 113.035C212.008 113.317 212.057 113.719 212.085 114.204C212.141 115.171 212.115 116.479 211.78 117.822C211.444 119.166 210.795 120.558 209.597 121.673C208.397 122.791 206.67 123.61 204.219 123.845C201.772 124.081 200.042 123.604 198.839 122.71C197.64 121.817 197.011 120.542 196.7 119.267C196.39 117.995 196.391 116.701 196.466 115.733C196.504 115.248 196.562 114.84 196.61 114.554C196.634 114.41 196.656 114.297 196.671 114.218C196.679 114.179 196.686 114.149 196.69 114.128C196.692 114.118 196.694 114.109 196.695 114.104C196.696 114.101 196.697 114.099 196.697 114.097C196.697 114.096 196.697 114.096 196.697 114.095L196.698 114.094C196.7 114.095 196.727 114.101 197 114.164L196.698 114.094L196.74 113.91L196.922 113.857C199.071 113.241 202.744 112.862 205.852 112.635C207.412 112.522 208.839 112.446 209.876 112.398C210.395 112.374 210.816 112.358 211.108 112.347C211.254 112.342 211.367 112.338 211.444 112.335C211.483 112.334 211.512 112.333 211.532 112.333C211.542 112.332 211.55 112.332 211.555 112.332C211.557 112.332 211.559 112.332 211.561 112.332H211.562L211.829 112.324L211.886 112.584ZM211.131 112.991C210.841 113.001 210.422 113.018 209.905 113.042C208.872 113.089 207.451 113.164 205.898 113.277C202.873 113.498 199.386 113.861 197.287 114.426C197.275 114.489 197.26 114.568 197.245 114.66C197.199 114.932 197.145 115.32 197.108 115.784C197.035 116.714 197.037 117.933 197.325 119.115C197.613 120.295 198.181 121.417 199.224 122.193C200.264 122.967 201.822 123.429 204.158 123.204C206.49 122.979 208.078 122.209 209.159 121.202C210.242 120.193 210.841 118.924 211.155 117.666C211.47 116.406 211.496 115.169 211.442 114.242C211.415 113.779 211.368 113.396 211.329 113.13C211.321 113.077 211.311 113.028 211.304 112.984C211.253 112.986 211.195 112.988 211.131 112.991Z" fill="#977A67"/>
<path d="M275.758 111.417C275.758 111.417 271.869 124.6 281.796 124.027C291.722 123.454 289.894 111.321 289.894 111.321C289.894 111.321 281.3 110.058 275.758 111.417Z" fill="#977A67"/>
<path d="M275.682 111.105C278.5 110.414 282.073 110.391 284.921 110.537C286.349 110.611 287.603 110.727 288.499 110.824C288.948 110.873 289.308 110.917 289.556 110.949C289.679 110.965 289.775 110.979 289.84 110.988C289.873 110.992 289.898 110.996 289.914 110.998C289.923 111 289.93 111 289.934 111.001C289.936 111.001 289.938 111.001 289.939 111.001H289.94L289.941 111.002L290.177 111.037L290.212 111.273V111.274C290.213 111.274 290.213 111.275 290.213 111.276C290.213 111.277 290.213 111.28 290.214 111.283C290.215 111.29 290.216 111.299 290.218 111.312C290.221 111.336 290.226 111.371 290.231 111.417C290.243 111.509 290.258 111.643 290.273 111.813C290.305 112.153 290.338 112.638 290.346 113.221C290.363 114.385 290.28 115.949 289.879 117.538C289.478 119.126 288.755 120.756 287.476 122.028C286.191 123.306 284.368 124.201 281.814 124.349C279.257 124.496 277.535 123.757 276.425 122.513C275.327 121.283 274.871 119.609 274.734 117.964C274.597 116.314 274.776 114.655 274.988 113.414C275.094 112.792 275.209 112.272 275.297 111.907C275.342 111.724 275.379 111.58 275.406 111.481C275.42 111.431 275.43 111.393 275.438 111.367C275.441 111.354 275.444 111.344 275.446 111.337C275.447 111.334 275.448 111.331 275.448 111.329C275.449 111.328 275.449 111.328 275.449 111.327V111.326L275.502 111.149L275.682 111.105ZM284.888 111.181C282.116 111.039 278.713 111.063 276.017 111.688C275.993 111.78 275.96 111.905 275.923 112.058C275.837 112.412 275.726 112.917 275.622 113.522C275.415 114.735 275.244 116.336 275.375 117.91C275.507 119.49 275.94 121.003 276.905 122.084C277.857 123.151 279.372 123.845 281.777 123.706C284.187 123.567 285.858 122.729 287.022 121.571C288.192 120.408 288.872 118.897 289.255 117.38C289.638 115.864 289.719 114.359 289.703 113.23C289.695 112.666 289.663 112.198 289.633 111.873C289.623 111.768 289.612 111.679 289.604 111.605C289.565 111.6 289.521 111.595 289.473 111.588C289.229 111.557 288.873 111.513 288.43 111.464C287.542 111.368 286.301 111.253 284.888 111.181Z" fill="#977A67"/>
<path d="M168.011 286.245L133.501 320.772L136.488 346.668C136.488 346.668 63.3613 384.376 56.5249 390.823C40.258 406.144 24.77 445.636 13.2538 480.169C-0.373791 521.026 -4.39062 566.314 -4.39062 566.314C-4.39062 566.314 72 625.275 215.486 622.287C358.972 619.299 451.546 572.246 451.546 572.246C451.546 572.246 477.674 429.58 419.443 375.057C361.212 320.533 311.04 307.833 311.04 307.833L306.708 264.973L286.92 263.556L287.293 279.451L203.68 340.949L157.892 409.171C157.892 409.171 174.236 332.982 177.635 322.775L168.011 286.258V286.245Z" fill="#977A67"/>
<path d="M287.035 261.95L306.823 263.367L306.967 263.384C307.679 263.5 308.235 264.081 308.309 264.811L312.53 306.575C312.87 306.673 313.288 306.795 313.78 306.946C315.291 307.407 317.505 308.125 320.339 309.156C326.008 311.219 334.158 314.535 344.129 319.561C364.073 329.613 391.303 346.504 420.543 373.881C435.396 387.789 444.794 407.24 450.578 428.446C456.364 449.661 458.566 472.75 458.941 494.07C459.315 515.396 457.863 535.003 456.319 549.276C455.546 556.413 454.75 562.221 454.146 566.248C453.844 568.261 453.591 569.83 453.412 570.896C453.323 571.43 453.253 571.838 453.204 572.113C453.18 572.251 453.161 572.356 453.148 572.427C453.142 572.462 453.137 572.489 453.134 572.507C453.132 572.516 453.131 572.523 453.13 572.528C453.13 572.53 453.13 572.532 453.129 572.534L451.546 572.245L452.273 573.682C452.272 573.682 452.271 573.684 452.269 573.684C452.265 573.686 452.261 573.688 452.254 573.691C452.242 573.698 452.224 573.707 452.2 573.718C452.153 573.742 452.083 573.777 451.991 573.823C451.807 573.914 451.534 574.049 451.173 574.224C450.45 574.574 449.375 575.086 447.96 575.737C445.128 577.038 440.93 578.897 435.447 581.135C424.482 585.612 408.375 591.605 387.779 597.69C346.588 609.859 287.43 622.399 215.519 623.897C143.545 625.396 88.3672 611.357 51.1588 596.922C32.5561 589.706 18.4471 582.391 8.97728 576.871C4.24234 574.112 0.666846 571.8 -1.73091 570.174C-2.92972 569.362 -3.83437 568.72 -4.44221 568.279C-4.74614 568.059 -4.97586 567.889 -5.1312 567.772C-5.20885 567.714 -5.26806 567.67 -5.30847 567.639C-5.32868 567.624 -5.34411 567.612 -5.35499 567.603C-5.36041 567.599 -5.36446 567.596 -5.36757 567.593C-5.36897 567.592 -5.37052 567.591 -5.37134 567.591C-5.3725 567.59 -5.37367 567.589 -4.39067 566.314C-5.95982 566.175 -5.99303 566.172 -5.99369 566.171C-5.99366 566.171 -5.99375 566.17 -5.99369 566.169C-5.99355 566.168 -5.99332 566.165 -5.99306 566.162C-5.99253 566.156 -5.99158 566.147 -5.99055 566.136C-5.98848 566.113 -5.98519 566.08 -5.98112 566.035C-5.97293 565.947 -5.96057 565.815 -5.94403 565.642C-5.91091 565.297 -5.86055 564.786 -5.7919 564.123C-5.65458 562.796 -5.44347 560.858 -5.14754 558.406C-4.55574 553.503 -3.62468 546.542 -2.26651 538.301C0.448389 521.828 4.87583 500.2 11.7269 479.659C17.4927 462.37 24.265 443.803 31.644 427.623C38.9983 411.498 47.043 397.542 55.4215 389.651C56.414 388.715 58.4464 387.339 61.0749 385.707C63.7543 384.043 67.1922 382.029 71.1085 379.804C78.9434 375.352 88.7392 370.026 98.3115 364.908C107.886 359.788 117.245 354.871 124.211 351.233C127.693 349.415 130.578 347.916 132.592 346.872C133.501 346.401 134.232 346.022 134.762 345.748L131.903 320.956C131.846 320.468 132.016 319.981 132.363 319.633L166.873 285.107C167.333 284.646 168.026 284.508 168.627 284.757C169.127 284.965 169.481 285.405 169.587 285.922L179.191 322.364C179.271 322.667 179.261 322.986 179.162 323.284C177.496 328.285 172.584 349.765 168.06 370.15C165.805 380.308 163.657 390.148 162.072 397.449C161.772 398.826 161.494 400.114 161.239 401.295L202.344 340.052L202.426 339.94C202.513 339.831 202.614 339.734 202.727 339.652L285.665 278.65L285.311 263.594C285.301 263.14 285.482 262.704 285.81 262.391C286.138 262.078 286.583 261.918 287.035 261.95ZM288.902 279.413C288.914 279.938 288.67 280.437 288.246 280.748L204.859 342.08L159.228 410.069C158.798 410.71 157.973 410.955 157.263 410.653C156.553 410.352 156.156 409.588 156.318 408.833L157.892 409.171C156.398 408.85 156.323 408.834 156.319 408.832C156.319 408.832 156.319 408.831 156.32 408.83C156.32 408.828 156.32 408.824 156.321 408.819C156.323 408.81 156.326 408.796 156.33 408.778C156.338 408.741 156.35 408.686 156.365 408.614C156.396 408.47 156.443 408.255 156.503 407.975C156.624 407.414 156.801 406.59 157.028 405.538C157.482 403.434 158.134 400.417 158.926 396.765C160.512 389.461 162.662 379.616 164.918 369.452C169.292 349.745 174.104 328.66 175.959 322.73L167.166 289.368L135.189 321.36L138.087 346.484C138.164 347.149 137.82 347.793 137.225 348.099L136.488 346.668C137.187 348.025 137.223 348.095 137.225 348.099C137.224 348.1 137.223 348.1 137.222 348.101C137.22 348.102 137.217 348.104 137.212 348.106C137.203 348.111 137.19 348.117 137.173 348.126C137.137 348.145 137.085 348.171 137.016 348.207C136.878 348.278 136.673 348.385 136.404 348.523C135.868 348.801 135.079 349.209 134.073 349.73C132.062 350.773 129.18 352.271 125.7 354.088C118.74 357.722 109.391 362.635 99.829 367.748C90.265 372.862 80.4969 378.172 72.6977 382.604C68.7971 384.82 65.4003 386.81 62.7722 388.442C60.0935 390.106 58.3455 391.319 57.6287 391.995L57.6281 391.995C49.7399 399.425 41.9076 412.876 34.5722 428.96C27.2615 444.99 20.5306 463.435 14.7802 480.678V480.679C8.0038 500.995 3.60977 522.44 0.909365 538.825C-0.440072 547.013 -1.36498 553.927 -1.95219 558.793C-2.24576 561.225 -2.4553 563.144 -2.59088 564.454C-2.63634 564.893 -2.67282 565.264 -2.70215 565.562C-2.65471 565.597 -2.60538 565.634 -2.55316 565.672C-1.97197 566.093 -1.09499 566.716 0.0751643 567.509C2.41549 569.096 5.92882 571.368 10.5973 574.089C19.9347 579.531 33.8916 586.77 52.3224 593.92C89.1807 608.219 143.941 622.167 215.452 620.677C287.028 619.187 345.9 606.705 386.867 594.602C407.351 588.55 423.355 582.593 434.231 578.154C439.669 575.934 443.824 574.093 446.616 572.81C448.011 572.169 449.066 571.667 449.77 571.326C449.891 571.267 450.001 571.213 450.101 571.164C450.139 570.942 450.186 570.675 450.238 570.364C450.413 569.315 450.664 567.765 450.963 565.771C451.561 561.782 452.352 556.018 453.119 548.929C454.654 534.748 456.094 515.281 455.722 494.126C455.35 472.964 453.165 450.163 447.473 429.294C441.778 408.415 432.606 389.587 418.344 376.232C389.352 349.087 362.381 332.365 342.681 322.436C332.831 317.472 324.798 314.205 319.239 312.183C316.46 311.172 314.3 310.471 312.84 310.025C312.11 309.802 311.555 309.643 311.186 309.54C311.002 309.489 310.863 309.451 310.773 309.427C310.728 309.415 310.694 309.407 310.673 309.401L310.645 309.394H310.645V309.393C309.989 309.227 309.507 308.669 309.439 307.995L305.243 266.482L288.57 265.288L288.902 279.413ZM453.129 572.536C453.038 573.03 452.722 573.454 452.275 573.681L451.546 572.245L453.129 572.536ZM-4.39067 566.314L-5.37385 567.589C-5.80852 567.253 -6.04222 566.719 -5.99369 566.172L-4.39067 566.314Z" fill="#977A67"/>
<path d="M133.102 319.212C133.963 318.991 134.84 319.51 135.06 320.372V320.373C135.061 320.374 135.061 320.374 135.061 320.375C135.062 320.378 135.063 320.382 135.064 320.387C135.067 320.396 135.07 320.411 135.075 320.43C135.085 320.467 135.099 320.523 135.118 320.596C135.155 320.743 135.21 320.959 135.28 321.238C135.42 321.797 135.623 322.609 135.873 323.623C136.372 325.652 137.058 328.491 137.806 331.737C139.301 338.218 141.053 346.359 142.057 352.896C143.039 359.283 146.124 371.755 149.124 384.356C151.565 394.606 153.959 404.977 155.02 411.962L159.133 395.809C159.352 394.948 160.228 394.427 161.09 394.646C161.951 394.866 162.471 395.743 162.252 396.604L155.894 421.576C155.912 421.914 155.927 422.214 155.937 422.48C155.961 423.104 155.966 423.569 155.954 423.9C155.949 424.059 155.937 424.235 155.91 424.401C155.897 424.481 155.872 424.612 155.821 424.759C155.792 424.84 155.654 425.241 155.246 425.547C154.997 425.733 154.649 425.881 154.235 425.872C153.843 425.863 153.544 425.717 153.361 425.595C153.043 425.382 152.884 425.11 152.843 425.04C152.729 424.847 152.665 424.653 152.639 424.572C152.572 424.365 152.515 424.122 152.474 423.932C152.43 423.728 152.393 423.526 152.366 423.379C152.352 423.304 152.341 423.241 152.333 423.196C152.329 423.174 152.326 423.156 152.324 423.143C152.323 423.137 152.322 423.133 152.322 423.129C152.321 423.127 152.32 423.126 152.32 423.125V423.123C152.32 423.123 152.32 423.122 152.732 423.054L152.32 423.123C152.283 422.902 152.293 422.676 152.348 422.459L152.653 421.259C152.585 420.072 152.475 418.449 152.303 416.259C151.817 410.066 148.994 397.704 145.993 385.102C143.02 372.617 139.883 359.943 138.876 353.385C137.891 346.971 136.161 338.926 134.67 332.461C133.926 329.234 133.243 326.41 132.747 324.393C132.499 323.385 132.298 322.578 132.159 322.025C132.089 321.748 132.035 321.534 131.998 321.389C131.98 321.317 131.966 321.262 131.956 321.226C131.952 321.208 131.948 321.194 131.946 321.185C131.945 321.18 131.944 321.177 131.943 321.175C131.943 321.174 131.943 321.173 131.942 321.172C131.722 320.311 132.241 319.433 133.102 319.212Z" fill="#977A67"/>
<path d="M287.035 261.937L306.822 263.354C307.493 263.402 308.064 263.862 308.252 264.508C308.441 265.154 308.209 265.849 307.67 266.251L288.261 280.729C287.779 281.089 287.136 281.149 286.595 280.885C286.054 280.622 285.705 280.078 285.691 279.477L285.311 263.582C285.3 263.128 285.481 262.691 285.809 262.378C286.137 262.065 286.582 261.905 287.035 261.937ZM288.833 276.285L302.277 266.256L288.57 265.275L288.833 276.285Z" fill="#977A67"/>
<path d="M249.959 196.371C250.766 195.998 251.722 196.351 252.094 197.159C252.467 197.966 252.114 198.923 251.307 199.295C248.99 200.364 246.707 200.35 245.054 200.096C244.223 199.968 243.53 199.776 243.038 199.614C242.792 199.533 242.594 199.458 242.452 199.402C242.382 199.373 242.325 199.349 242.283 199.33C242.262 199.321 242.244 199.314 242.231 199.308C242.224 199.305 242.218 199.302 242.213 199.3C242.211 199.299 242.209 199.298 242.207 199.297C242.206 199.297 242.204 199.296 242.204 199.296L242.203 199.295C242.202 199.295 242.201 199.295 242.876 197.833L242.202 199.295C241.395 198.922 241.043 197.965 241.415 197.158C241.788 196.351 242.743 195.999 243.549 196.371L243.549 196.37L243.547 196.369H243.546C243.548 196.37 243.553 196.372 243.559 196.374C243.575 196.382 243.605 196.394 243.648 196.412C243.734 196.446 243.869 196.497 244.046 196.556C244.403 196.673 244.921 196.817 245.543 196.913C246.799 197.106 248.394 197.092 249.959 196.371Z" fill="#977A67"/>
<path d="M309 133.398L309.656 124.24C309.656 124.24 313.976 121.921 316.409 124.343C320.393 128.303 312.901 156.415 312.675 161.046C312.456 165.676 310.989 182.46 309.315 183.999C307.641 185.538 305.626 184.437 305.626 184.437L309 133.398Z" fill="#FFC398"/>
<path d="M311.805 121.804C313.37 121.491 315.751 121.418 317.543 123.201C318.423 124.075 318.804 125.387 318.993 126.625C319.191 127.929 319.221 129.488 319.146 131.169C318.996 134.539 318.411 138.65 317.707 142.718C317 146.795 316.162 150.892 315.492 154.231C314.805 157.656 314.332 160.121 314.283 161.124C314.171 163.485 313.746 168.876 313.138 173.876C312.835 176.375 312.481 178.811 312.093 180.734C311.899 181.692 311.689 182.56 311.461 183.26C311.347 183.61 311.218 183.949 311.07 184.25C310.934 184.527 310.725 184.89 310.404 185.185C309.136 186.351 307.704 186.516 306.658 186.395C306.146 186.335 305.715 186.208 305.412 186.096C305.258 186.04 305.132 185.985 305.039 185.942C304.992 185.92 304.953 185.901 304.922 185.885C304.907 185.878 304.893 185.87 304.882 185.865C304.877 185.862 304.872 185.859 304.867 185.856C304.865 185.855 304.862 185.854 304.86 185.853C304.859 185.853 304.859 185.852 304.858 185.851L304.857 185.851C304.856 185.85 304.855 185.85 305.627 184.437L304.855 185.85C304.305 185.549 303.98 184.956 304.021 184.331L307.394 133.291L308.051 124.125L308.062 124.022C308.131 123.513 308.44 123.065 308.896 122.821L309.656 124.24C308.907 122.842 308.896 122.821 308.896 122.82L308.906 122.815C308.911 122.813 308.917 122.81 308.923 122.806C308.937 122.799 308.954 122.79 308.976 122.779C309.019 122.757 309.079 122.727 309.153 122.692C309.301 122.621 309.51 122.526 309.765 122.423C310.271 122.218 310.987 121.968 311.805 121.804ZM315.274 125.484C314.634 124.847 313.639 124.721 312.436 124.962C311.972 125.054 311.542 125.192 311.192 125.323L310.605 133.513L307.32 183.207C307.593 183.194 307.876 183.107 308.158 182.873C308.164 182.86 308.173 182.846 308.183 182.827C308.24 182.711 308.315 182.527 308.401 182.261C308.574 181.731 308.756 181 308.938 180.095C309.302 178.294 309.644 175.955 309.943 173.487C310.543 168.555 310.961 163.241 311.068 160.97V160.968C311.132 159.656 311.68 156.869 312.336 153.598C313.01 150.24 313.838 146.193 314.535 142.168C315.234 138.134 315.79 134.185 315.931 131.025C316.001 129.442 315.965 128.119 315.811 127.11C315.648 126.034 315.391 125.601 315.275 125.485L315.274 125.484ZM306.384 183.016L306.383 183.016C306.38 183.014 306.378 183.013 306.377 183.013C306.378 183.013 306.38 183.014 306.384 183.016Z" fill="#977A67"/>
<path d="M161.709 30.1277C161.709 30.1277 159.875 54.6072 166.473 63.5721C173.071 72.537 169.621 108.023 169.621 108.023C169.621 108.023 160.248 135.278 162.372 143.496C164.496 151.714 176.804 178.338 178.298 184.817C179.791 191.296 177.455 232.14 177.455 232.14C177.455 232.14 177.525 250.482 228.676 264.96C228.676 264.96 197.268 277.944 196.741 290.638C196.213 303.331 210.548 333.388 210.548 333.388C210.548 333.388 175.717 298.108 168.134 279.438L148.146 190.665C148.146 190.665 151.86 143.85 140.067 128.361L135.986 123.409C135.986 123.409 125.139 65.8134 161.703 30.1277H161.709Z" fill="url(#paint0_linear_373_2309)"/>
<path d="M175.246 226.506C176.12 226.346 176.959 226.924 177.119 227.798V227.798L177.125 227.825C177.131 227.856 177.143 227.909 177.161 227.982C177.196 228.128 177.256 228.357 177.349 228.658C177.535 229.26 177.853 230.148 178.371 231.242C179.404 233.427 181.237 236.436 184.412 239.613C187.568 242.77 193.774 246.918 200.483 250.82C207.152 254.698 214.141 258.233 218.739 260.18C221.484 261.343 225.863 262.753 230.441 263.068C235.03 263.384 239.591 262.587 242.997 259.618L243.1 259.535C243.629 259.145 244.348 259.115 244.912 259.47H244.912L244.911 259.469C244.911 259.469 244.91 259.469 244.909 259.468C244.909 259.468 244.908 259.467 244.908 259.467C244.908 259.467 244.909 259.468 244.91 259.468C244.914 259.471 244.923 259.477 244.938 259.485C244.966 259.502 245.016 259.531 245.084 259.568C245.221 259.644 245.437 259.757 245.724 259.89C246.299 260.156 247.159 260.501 248.256 260.795C250.448 261.381 253.582 261.756 257.314 260.881H257.315C258.829 260.527 260.817 259.357 263.159 257.424C265.461 255.524 267.954 253.014 270.47 250.195C275.5 244.561 280.518 237.809 284.145 232.529C284.648 231.796 285.651 231.611 286.383 232.115C287.115 232.618 287.301 233.62 286.797 234.353C283.125 239.699 278.023 246.569 272.871 252.341C270.296 255.225 267.682 257.865 265.207 259.908C262.771 261.918 260.31 263.487 258.048 264.015C253.708 265.033 250.029 264.602 247.426 263.906C246.125 263.559 245.091 263.144 244.372 262.812C244.328 262.791 244.286 262.769 244.244 262.749C240.074 265.903 234.916 266.604 230.219 266.281C225.18 265.934 220.444 264.398 217.485 263.146H217.484C212.73 261.132 205.618 257.53 198.866 253.603C192.153 249.7 185.617 245.372 182.136 241.89C178.674 238.427 176.637 235.105 175.461 232.619C174.874 231.377 174.502 230.345 174.275 229.61C174.161 229.243 174.083 228.949 174.033 228.74C174.007 228.636 173.989 228.553 173.976 228.493C173.97 228.462 173.965 228.437 173.961 228.418C173.959 228.409 173.957 228.401 173.956 228.394C173.955 228.391 173.955 228.388 173.955 228.386C173.954 228.384 173.954 228.383 173.954 228.382L173.953 228.381C173.953 228.38 173.953 228.379 175.536 228.089L173.953 228.379C173.793 227.505 174.372 226.666 175.246 226.506Z" fill="#977A67"/>
<path d="M133.338 123.559C133.763 122.778 134.741 122.491 135.521 122.917L134.837 124.17C135.492 122.97 135.52 122.919 135.522 122.917L135.523 122.918C135.524 122.919 135.525 122.919 135.526 122.92C135.529 122.921 135.532 122.923 135.535 122.924C135.542 122.928 135.55 122.933 135.559 122.938C135.578 122.949 135.605 122.964 135.636 122.982C135.7 123.019 135.789 123.072 135.899 123.141C136.121 123.278 136.431 123.479 136.811 123.749C137.57 124.288 138.608 125.102 139.767 126.223C142.085 128.466 144.892 131.948 146.897 136.924C147.229 137.749 146.83 138.687 146.005 139.019C145.181 139.352 144.244 138.953 143.911 138.128C142.105 133.644 139.585 130.527 137.529 128.538C136.501 127.543 135.59 126.831 134.947 126.374C134.626 126.146 134.372 125.982 134.204 125.878C134.12 125.826 134.058 125.789 134.02 125.766C134.001 125.755 133.987 125.748 133.981 125.744C133.98 125.743 133.979 125.743 133.978 125.743C133.199 125.316 132.912 124.339 133.338 123.559ZM133.976 125.741L133.978 125.742C133.976 125.741 133.975 125.741 133.975 125.741H133.976Z" fill="#977A67"/>
<path d="M127.405 130.951C129.882 130.56 132.247 131.801 134.246 133.548C136.284 135.33 138.225 137.878 139.946 140.728C143.385 146.425 146.148 153.678 147.057 159.402C147.942 164.97 148.126 169.437 147.712 172.747C147.505 174.403 147.141 175.834 146.595 176.988C146.05 178.141 145.276 179.114 144.205 179.674L144.204 179.676C142.648 180.488 140.936 180.33 139.459 179.523C138.012 178.734 136.772 177.328 135.868 175.53C134.049 171.914 133.431 166.443 135.319 159.74C135.56 158.884 136.449 158.385 137.304 158.626C138.16 158.868 138.658 159.757 138.417 160.613C136.694 166.732 137.366 171.344 138.743 174.082C139.436 175.46 140.271 176.298 141.001 176.697C141.699 177.078 142.265 177.055 142.714 176.821C142.972 176.686 143.332 176.359 143.685 175.611C144.038 174.865 144.337 173.793 144.518 172.347C144.879 169.455 144.738 165.32 143.878 159.908C143.043 154.651 140.447 147.787 137.19 142.392C135.563 139.697 133.822 137.454 132.127 135.973C130.394 134.458 128.977 133.962 127.907 134.131H127.907C124.227 134.712 121.319 138.15 119.237 141.993C118.229 143.852 117.484 145.679 116.99 147.047C116.744 147.728 116.563 148.29 116.444 148.679C116.384 148.873 116.34 149.023 116.312 149.123C116.297 149.172 116.287 149.21 116.28 149.233C116.277 149.245 116.274 149.254 116.273 149.258C116.273 149.26 116.272 149.261 116.272 149.262L116.273 149.262C116.044 150.122 115.162 150.633 114.303 150.404C113.444 150.175 112.933 149.293 113.162 148.433L114.689 148.84C113.243 148.455 113.167 148.434 113.163 148.433V148.431C113.163 148.43 113.164 148.429 113.164 148.428C113.165 148.425 113.166 148.421 113.167 148.416C113.17 148.407 113.173 148.394 113.178 148.377C113.187 148.345 113.2 148.298 113.217 148.238C113.251 148.119 113.301 147.948 113.367 147.732C113.5 147.301 113.698 146.689 113.964 145.952C114.494 144.483 115.301 142.499 116.407 140.458C118.551 136.502 122.111 131.787 127.405 130.951Z" fill="#977A67"/>
<path d="M114.717 148.848C114.717 148.848 118.683 133.958 127.656 132.541C134.75 131.421 143.723 148.674 145.468 159.655C147.212 170.636 146.118 176.857 143.46 178.248C139.449 180.341 133.257 172.999 136.868 160.177" fill="url(#paint1_linear_373_2309)"/>
<path d="M127.405 130.951C129.882 130.56 132.247 131.801 134.246 133.548C136.284 135.33 138.225 137.878 139.946 140.728C143.385 146.425 146.148 153.678 147.057 159.402C147.942 164.97 148.126 169.437 147.712 172.747C147.505 174.403 147.141 175.834 146.595 176.988C146.05 178.141 145.276 179.114 144.205 179.674L144.204 179.676C142.648 180.488 140.936 180.33 139.459 179.523C138.012 178.734 136.772 177.328 135.868 175.53C134.049 171.914 133.431 166.443 135.319 159.74C135.56 158.884 136.449 158.385 137.304 158.626C138.16 158.868 138.658 159.757 138.417 160.613C136.694 166.732 137.366 171.344 138.743 174.082C139.436 175.46 140.271 176.298 141.001 176.697C141.699 177.078 142.265 177.055 142.714 176.821C142.972 176.686 143.332 176.359 143.685 175.611C144.038 174.865 144.337 173.793 144.518 172.347C144.879 169.455 144.738 165.32 143.878 159.908C143.043 154.651 140.447 147.787 137.19 142.392C135.563 139.697 133.822 137.454 132.127 135.973C130.394 134.458 128.977 133.962 127.907 134.131H127.907C124.227 134.712 121.319 138.15 119.237 141.993C118.229 143.852 117.484 145.679 116.99 147.047C116.744 147.728 116.563 148.29 116.444 148.679C116.384 148.873 116.34 149.023 116.312 149.123C116.297 149.172 116.287 149.21 116.28 149.233C116.277 149.245 116.274 149.254 116.273 149.258C116.273 149.26 116.272 149.261 116.272 149.262L116.273 149.262C116.044 150.122 115.162 150.633 114.303 150.404C113.444 150.175 112.933 149.293 113.162 148.433L114.689 148.84C113.243 148.455 113.167 148.434 113.163 148.433V148.431C113.163 148.43 113.164 148.429 113.164 148.428C113.165 148.425 113.166 148.421 113.167 148.416C113.17 148.407 113.173 148.394 113.178 148.377C113.187 148.345 113.2 148.298 113.217 148.238C113.251 148.119 113.301 147.948 113.367 147.732C113.5 147.301 113.698 146.689 113.964 145.952C114.494 144.483 115.301 142.499 116.407 140.458C118.551 136.502 122.111 131.787 127.405 130.951Z" fill="#977A67"/>
<path d="M309.682 306.957C310.158 306.206 311.153 305.984 311.903 306.461C312.654 306.938 312.875 307.933 312.399 308.684L269.076 376.906C268.635 377.6 267.741 377.851 267.004 377.486L208.177 348.355L176.742 383.929C176.154 384.595 175.136 384.658 174.47 384.069C173.805 383.48 173.742 382.462 174.331 381.796L206.581 345.299L206.675 345.202C207.161 344.737 207.89 344.62 208.501 344.922L267.135 373.957L309.682 306.957Z" fill="#977A67"/>
</g>
<defs>
<linearGradient id="paint0_linear_373_2309" x1="129.606" y1="160.984" x2="181.09" y2="162.489" gradientUnits="userSpaceOnUse">
<stop stop-color="#FFC398"/>
<stop offset="1" stop-color="#EAAE82"/>
</linearGradient>
<linearGradient id="paint1_linear_373_2309" x1="115.11" y1="141.5" x2="141.609" y2="163.992" gradientUnits="userSpaceOnUse">
<stop stop-color="#FFCBA3"/>
<stop offset="1" stop-color="#EAAE82"/>
</linearGradient>
<clipPath id="clip0_373_2309">
<rect width="465" height="624" fill="white" transform="translate(-6)"/>
</clipPath>
</defs>
</svg>
