<svg width="477" height="529" viewBox="0 0 477 529" fill="none" xmlns="http://www.w3.org/2000/svg">
<g clip-path="url(#clip0_373_1863)">
<path d="M318.973 266.168L181.967 302.335L181.32 302.525L167.624 279.591C167.624 279.591 113.821 305.821 67.0472 327.238C9.75066 353.475 18.3163 368.749 1.64303 447.37C-5.05771 478.978 -15.364 583.365 -15.364 583.365L506.364 577.203V351.101L318.973 266.168Z" fill="#977A67"/>
<path d="M318.692 264.557C319.015 264.501 319.348 264.542 319.648 264.678L507.039 349.612C507.624 349.877 508 350.459 508 351.101V577.203C508 578.098 507.279 578.828 506.383 578.838L-15.3449 585C-15.81 585.005 -16.2556 584.813 -16.5699 584.47C-16.8843 584.127 -17.038 583.667 -16.9923 583.204L-15.3641 583.365C-16.9921 583.204 -16.9918 583.203 -16.9917 583.202C-16.9916 583.202 -16.9918 583.201 -16.9917 583.199C-16.9914 583.196 -16.991 583.191 -16.9904 583.185C-16.9892 583.172 -16.9872 583.153 -16.9847 583.128C-16.9797 583.077 -16.9722 583.002 -16.9623 582.903C-16.9426 582.704 -16.9133 582.408 -16.8748 582.022C-16.7976 581.249 -16.6836 580.112 -16.5361 578.653C-16.241 575.735 -15.8115 571.533 -15.2759 566.391C-14.2046 556.108 -12.7067 542.066 -10.9989 527.036C-7.58759 497.013 -3.32776 462.927 0.0423412 447.03C4.20602 427.397 6.78625 411.76 9.23162 398.817C11.6686 385.919 13.9768 375.666 17.6029 367.027C24.9452 349.536 37.5835 338.931 66.3655 325.751H66.3662C89.7412 315.048 114.876 303.141 134.169 293.908C143.815 289.292 152 285.345 157.773 282.552C160.66 281.155 162.944 280.047 164.506 279.289C165.286 278.909 165.886 278.617 166.292 278.42C166.494 278.321 166.648 278.247 166.751 278.196C166.803 278.171 166.841 278.152 166.867 278.14C166.88 278.133 166.89 278.129 166.897 278.126C166.9 278.124 166.902 278.122 166.904 278.122C166.905 278.121 166.905 278.121 166.906 278.121C166.906 278.121 166.906 278.121 167.476 279.289L166.906 278.121C167.67 277.749 168.592 278.023 169.028 278.752L182.083 300.613L318.555 264.587L318.692 264.557ZM182.414 303.908L181.779 304.094C181.064 304.304 180.297 304.003 179.915 303.363L166.989 281.718C166.686 281.865 166.334 282.037 165.936 282.23C164.372 282.99 162.087 284.099 159.199 285.496C153.423 288.291 145.233 292.239 135.582 296.858C116.281 306.094 91.1278 318.011 67.7286 328.725C39.2144 341.782 27.4871 351.933 20.6198 368.293C17.1411 376.58 14.8834 386.527 12.4466 399.424C10.1699 411.474 7.74068 426.074 4.00753 444.065L3.24325 447.709C-0.0873775 463.42 -4.33103 497.332 -7.7481 527.405C-9.45443 542.422 -10.9514 556.453 -12.0219 566.73C-12.5572 571.868 -12.9861 576.067 -13.2808 578.982C-13.3917 580.078 -13.4834 580.993 -13.555 581.708L504.728 575.586V352.155L318.827 267.897L182.414 303.908Z" fill="#977A67"/>
<path d="M118.232 93.2602C118.232 93.2602 123.526 161.114 132.451 170.533C132.451 170.533 129.219 187.233 132.451 204.247C134.355 214.288 151.591 253.661 160.393 264.323C166.282 271.46 175.273 273.494 177.753 275.483L182.713 305.73C182.713 305.73 196.677 344.566 237.275 341.433C276.838 338.378 307.593 270.649 307.593 270.649L303.556 201.356C303.556 201.356 308.476 202.344 312.776 197.549C316.931 192.918 327.676 172.339 328.271 148.299C328.899 123.292 317.925 115.108 311.473 116.593C305.028 118.078 292.215 141.777 292.215 141.777L259.582 31.5294C259.582 31.5294 106.754 -0.00647545 118.232 93.2602Z" fill="#FFC29B"/>
<path d="M184.436 25.793C202.978 23.8899 221.847 24.9276 236.054 26.4331C243.164 27.1865 249.12 28.0581 253.302 28.7424C255.393 29.0846 257.041 29.3798 258.169 29.5901C258.732 29.6952 259.166 29.7795 259.46 29.8373C259.606 29.8662 259.718 29.8884 259.794 29.9037C259.832 29.9114 259.862 29.9176 259.881 29.9216L259.91 29.9274C259.911 29.9283 259.906 29.9602 259.582 31.5295L259.913 29.928C260.503 30.0499 260.979 30.4868 261.15 31.0651L292.687 137.607C292.757 137.484 292.829 137.359 292.903 137.231C294.214 134.97 296.033 131.934 298.059 128.846C300.08 125.765 302.332 122.594 304.509 120.084C305.597 118.829 306.694 117.706 307.76 116.835C308.8 115.986 309.938 115.269 311.106 114.999C315.198 114.058 320.161 116.249 323.87 121.577C327.603 126.939 330.226 135.617 329.906 148.34C329.603 160.583 326.718 171.92 323.39 180.777C320.081 189.581 316.27 196.102 313.993 198.64C311.58 201.332 308.944 202.441 306.873 202.854C306.293 202.97 305.76 203.029 305.293 203.056L309.226 270.553C309.241 270.818 309.192 271.083 309.082 271.324L307.593 270.649C308.992 271.283 309.077 271.323 309.082 271.326C309.081 271.326 309.081 271.328 309.08 271.329C309.079 271.331 309.078 271.335 309.076 271.34C309.072 271.349 309.065 271.362 309.057 271.379C309.042 271.414 309.019 271.464 308.988 271.53C308.927 271.662 308.836 271.857 308.717 272.109C308.478 272.614 308.125 273.351 307.661 274.289C306.734 276.165 305.367 278.843 303.604 282.064C300.08 288.503 294.962 297.129 288.592 305.859C282.226 314.582 274.576 323.457 265.976 330.359C257.384 337.255 247.738 342.265 237.401 343.063H237.4C216.481 344.677 202.38 335.451 193.566 325.863C189.17 321.081 186.081 316.206 184.091 312.527C183.095 310.686 182.37 309.139 181.893 308.047C181.655 307.5 181.477 307.067 181.358 306.767C181.299 306.616 181.254 306.499 181.223 306.418C181.208 306.377 181.197 306.345 181.188 306.323C181.184 306.311 181.18 306.302 181.178 306.296C181.177 306.293 181.176 306.29 181.176 306.288C181.175 306.286 181.174 306.285 181.174 306.285C181.174 306.284 181.186 306.278 182.713 305.73L181.174 306.283C181.14 306.189 181.115 306.093 181.099 305.994L176.252 276.437C175.778 276.156 175.089 275.82 174.147 275.393C172.897 274.826 171.303 274.139 169.619 273.296C166.34 271.654 162.53 269.335 159.429 265.718L159.131 265.364C154.571 259.84 147.981 247.132 142.346 234.729C139.511 228.488 136.89 222.262 134.855 216.956C132.962 212.019 131.538 207.784 130.95 205.073L130.844 204.552C129.193 195.864 129.197 187.288 129.606 180.906C129.811 177.709 130.119 175.049 130.376 173.185C130.504 172.253 130.621 171.518 130.705 171.014C130.706 171.01 130.706 171.006 130.707 171.003C129.584 169.552 128.61 167.466 127.74 165.065C126.709 162.22 125.752 158.725 124.869 154.849C123.101 147.092 121.595 137.672 120.373 128.582C119.15 119.486 118.207 110.689 117.57 104.169C117.252 100.908 117.009 98.2138 116.847 96.3349C116.765 95.3955 116.704 94.6594 116.663 94.1579C116.642 93.9073 116.627 93.7152 116.617 93.5855C116.612 93.5206 116.607 93.4711 116.605 93.4379C116.604 93.4329 116.604 93.4282 116.604 93.4239C113.684 69.6197 121.261 53.5326 134.454 42.9903C147.531 32.5409 165.932 27.6923 184.436 25.793ZM235.709 29.6853C221.62 28.1924 203 27.1753 184.77 29.0465C166.501 30.9216 148.847 35.6766 136.497 45.5455C124.27 55.3162 117.048 70.2511 119.855 93.0604C119.858 93.0845 119.861 93.109 119.863 93.1332L118.232 93.2603C119.862 93.1332 119.863 93.1334 119.863 93.1339C119.863 93.1343 119.863 93.135 119.863 93.1358L119.866 93.1805C119.869 93.2126 119.873 93.2611 119.878 93.3249C119.888 93.4525 119.903 93.6424 119.924 93.8908C119.964 94.3878 120.026 95.1189 120.106 96.0532C120.268 97.9218 120.509 100.603 120.827 103.85C121.461 110.347 122.399 119.102 123.615 128.147C124.832 137.198 126.324 146.507 128.059 154.122C128.927 157.932 129.848 161.283 130.815 163.952C131.802 166.675 132.769 168.491 133.639 169.408C134.001 169.791 134.157 170.326 134.057 170.844V170.844C134.057 170.846 134.056 170.848 134.056 170.851C134.055 170.858 134.053 170.868 134.05 170.883C134.045 170.912 134.036 170.956 134.025 171.016C134.004 171.136 133.972 171.317 133.932 171.554C133.852 172.03 133.741 172.733 133.617 173.632C133.369 175.43 133.071 178.009 132.872 181.114C132.473 187.336 132.477 195.616 134.058 203.942V203.943C134.504 206.293 135.887 210.512 137.91 215.786C139.917 221.02 142.513 227.186 145.325 233.376C150.985 245.834 157.413 258.144 161.654 263.283C164.391 266.598 167.881 268.768 171.084 270.371C172.693 271.177 174.181 271.817 175.498 272.414C176.736 272.976 177.966 273.557 178.777 274.207C179.092 274.459 179.302 274.82 179.368 275.218L184.302 305.309C184.326 305.372 184.359 305.458 184.401 305.564C184.507 305.831 184.669 306.229 184.892 306.738C185.337 307.757 186.021 309.22 186.968 310.971C188.865 314.477 191.805 319.114 195.974 323.65C204.291 332.697 217.471 341.321 237.148 339.802C246.592 339.073 255.627 334.471 263.928 327.809C272.222 321.152 279.679 312.523 285.948 303.932C292.212 295.348 297.255 286.85 300.734 280.494C302.472 277.318 303.818 274.681 304.727 272.84C305.182 271.92 305.528 271.2 305.759 270.711C305.828 270.564 305.887 270.437 305.936 270.332L301.923 201.451C301.893 200.945 302.1 200.454 302.482 200.121C302.864 199.789 303.379 199.653 303.875 199.752H303.874C303.873 199.752 303.872 199.752 303.872 199.752C303.87 199.751 303.868 199.751 303.867 199.751C303.865 199.75 303.863 199.75 303.863 199.75C303.863 199.75 303.868 199.751 303.876 199.752C303.893 199.755 303.927 199.76 303.976 199.766C304.075 199.778 304.235 199.794 304.446 199.801C304.87 199.815 305.492 199.795 306.233 199.647C307.698 199.355 309.672 198.56 311.557 196.457H311.558C313.437 194.363 317.075 188.281 320.327 179.627C323.558 171.027 326.344 160.055 326.636 148.259V148.258C326.944 135.974 324.394 128.056 321.184 123.446C317.951 118.802 314.201 117.644 311.84 118.187L311.84 118.186C311.396 118.289 310.725 118.637 309.831 119.368C308.962 120.077 308.001 121.05 306.981 122.226C304.943 124.576 302.783 127.609 300.795 130.639C298.813 133.661 297.026 136.643 295.734 138.872C295.088 139.985 294.567 140.908 294.208 141.552C294.028 141.874 293.889 142.126 293.795 142.297C293.749 142.382 293.713 142.448 293.689 142.491C293.677 142.513 293.668 142.529 293.662 142.54C293.66 142.545 293.657 142.549 293.656 142.552C293.655 142.553 293.655 142.554 293.655 142.554V142.555C293.34 143.137 292.704 143.473 292.046 143.404C291.387 143.335 290.835 142.876 290.647 142.241L258.295 32.9438C258.085 32.9037 257.843 32.857 257.569 32.8058C256.463 32.5997 254.839 32.3082 252.773 31.9703C248.642 31.2942 242.748 30.4311 235.709 29.6853Z" fill="#977A67"/>
<path d="M210.251 196.475C210.849 195.797 211.882 195.731 212.56 196.328C213.616 197.258 214.375 198.635 214.852 200.035C215.338 201.457 215.59 203.064 215.511 204.584C215.433 206.081 215.022 207.673 213.994 208.875C212.896 210.159 211.277 210.781 209.308 210.577C206.086 210.244 204.044 210.613 202.871 211C202.283 211.194 201.902 211.397 201.692 211.527C201.586 211.593 201.521 211.641 201.494 211.663C201.486 211.669 201.481 211.673 201.479 211.675C201.481 211.673 201.485 211.669 201.49 211.664C201.493 211.661 201.497 211.658 201.501 211.654C201.503 211.653 201.505 211.65 201.508 211.648C201.509 211.647 201.51 211.646 201.511 211.645C201.512 211.644 201.512 211.643 201.513 211.643C201.513 211.643 201.513 211.643 201.512 211.642C200.868 212.273 199.834 212.264 199.201 211.621C198.568 210.976 198.577 209.941 199.222 209.308L200.343 210.448C199.222 209.308 199.223 209.307 199.224 209.306L199.238 209.292C199.245 209.286 199.252 209.279 199.259 209.272C199.274 209.258 199.292 209.242 199.312 209.224C199.352 209.189 199.403 209.146 199.465 209.097C199.588 209 199.754 208.88 199.968 208.747C200.397 208.482 201.012 208.17 201.846 207.894C203.517 207.343 206.03 206.951 209.645 207.324H209.646C210.674 207.431 211.188 207.122 211.507 206.749C211.896 206.295 212.186 205.506 212.243 204.414C212.299 203.346 212.119 202.155 211.756 201.091C211.385 200.005 210.877 199.204 210.398 198.783C209.72 198.186 209.654 197.152 210.251 196.475Z" fill="#977A67"/>
<path d="M223.938 141.686C229.679 141.153 235.159 142.459 239.154 143.86C241.162 144.564 242.819 145.3 243.979 145.863C244.559 146.145 245.016 146.384 245.332 146.555C245.49 146.641 245.613 146.709 245.699 146.757C245.741 146.781 245.775 146.8 245.798 146.814C245.81 146.821 245.819 146.826 245.826 146.83C245.83 146.832 245.832 146.834 245.835 146.835C245.836 146.836 245.837 146.836 245.838 146.837L245.839 146.838C245.837 146.842 245.798 146.909 245.136 148.032L245.84 146.838C246.618 147.296 246.877 148.299 246.419 149.077C245.96 149.855 244.958 150.114 244.18 149.656C244.179 149.656 244.179 149.655 244.178 149.655C244.175 149.653 244.169 149.65 244.162 149.646C244.146 149.637 244.121 149.623 244.088 149.604C244.02 149.565 243.916 149.507 243.777 149.432C243.499 149.282 243.084 149.065 242.549 148.806C241.48 148.287 239.939 147.601 238.071 146.946C234.315 145.629 229.336 144.469 224.241 144.943H224.24C218.63 145.462 214.294 148.052 211.331 150.559C209.853 151.809 208.732 153.027 207.984 153.927C207.611 154.376 207.333 154.744 207.151 154.994C207.06 155.12 206.993 155.215 206.951 155.277C206.93 155.308 206.915 155.33 206.907 155.343C206.902 155.35 206.9 155.354 206.898 155.356L206.897 155.357L206.898 155.355C206.898 155.355 206.899 155.355 206.898 155.355C206.408 156.113 205.396 156.331 204.638 155.842C203.878 155.352 203.66 154.34 204.15 153.581L205.332 154.343C204.15 153.581 204.15 153.58 204.151 153.579L204.152 153.578C204.152 153.577 204.153 153.576 204.154 153.575C204.156 153.572 204.158 153.569 204.16 153.565C204.165 153.557 204.172 153.547 204.181 153.535C204.197 153.51 204.22 153.475 204.249 153.433C204.308 153.347 204.393 153.225 204.503 153.074C204.722 152.771 205.044 152.346 205.467 151.837C206.312 150.821 207.566 149.46 209.218 148.062C212.515 145.272 217.462 142.286 223.938 141.687V141.686Z" fill="#977A67"/>
<path d="M220.617 123.936C228.402 123.071 235.224 124.982 240.069 127.08C242.496 128.131 244.444 129.236 245.79 130.083C246.464 130.506 246.989 130.866 247.35 131.124C247.531 131.253 247.67 131.356 247.767 131.429C247.816 131.466 247.854 131.495 247.88 131.516C247.894 131.526 247.905 131.534 247.913 131.541C247.917 131.544 247.92 131.546 247.923 131.548C247.924 131.549 247.926 131.55 247.926 131.551L247.928 131.552C247.928 131.553 247.911 131.575 246.939 132.803L247.928 131.553C248.637 132.113 248.757 133.141 248.196 133.85C247.636 134.558 246.607 134.678 245.898 134.117H245.898C245.895 134.115 245.889 134.11 245.881 134.104C245.864 134.091 245.837 134.07 245.799 134.042C245.724 133.985 245.606 133.898 245.45 133.787C245.136 133.563 244.664 133.238 244.048 132.851C242.816 132.077 241.016 131.054 238.768 130.081C234.263 128.13 228.028 126.403 220.979 127.186C214.982 127.853 209.765 130.698 205.998 133.446C204.125 134.813 202.635 136.137 201.618 137.117C201.11 137.606 200.721 138.007 200.462 138.282C200.333 138.42 200.236 138.526 200.174 138.596C200.142 138.631 200.119 138.657 200.105 138.673C200.098 138.681 200.094 138.686 200.091 138.689L200.089 138.692C199.499 139.375 198.466 139.452 197.782 138.862C197.098 138.273 197.021 137.241 197.611 136.556L198.809 137.588C197.611 136.556 197.611 136.556 197.612 136.555L197.612 136.554C197.613 136.553 197.614 136.552 197.615 136.551C197.617 136.549 197.619 136.546 197.623 136.542C197.629 136.535 197.637 136.525 197.648 136.513C197.669 136.489 197.7 136.455 197.739 136.411C197.817 136.325 197.93 136.201 198.076 136.045C198.369 135.733 198.797 135.292 199.349 134.761C200.45 133.7 202.053 132.275 204.07 130.804C208.084 127.875 213.84 124.689 220.617 123.936Z" fill="#977A67"/>
<path d="M133.119 100.161C133.119 100.161 134.84 137.623 136.279 137.623C154.87 137.623 166.668 145.977 169.705 147.92C173.304 150.222 182.674 152.014 178.682 165.274C178.682 165.274 180.528 191.845 178.82 213.778C178.637 216.146 188.505 219.927 191.966 218.534C193.753 217.814 193.681 226.377 191.102 231.361C188.38 236.614 182.89 238.282 174.462 236.823C174.462 236.823 183.538 248.055 197.26 247.054C203.313 246.609 203.85 248.277 203.85 248.277C203.85 248.277 209.261 256.67 205.525 263.832L188.426 269.994C192.176 283.175 206.467 287.996 212.69 286.701L214.156 288.86C214.156 288.86 204.595 296.121 192.542 288.284C183.957 282.704 178.709 273.88 178.709 273.88C178.709 273.88 167.224 271.793 160.903 262.289C147.894 242.723 136.711 215.825 133.819 202.37C130.076 184.944 133.963 171.403 133.963 171.403C133.963 171.403 112.899 148.345 113.547 102.614L133.106 100.168L133.119 100.161Z" fill="url(#paint0_linear_373_1863)"/>
<path d="M176.556 211.482C176.556 209.443 177.278 195.339 177.994 181.846C178.353 175.077 178.713 168.433 178.982 163.48C179.117 161.004 179.229 158.951 179.307 157.517C179.328 157.147 179.345 156.818 179.361 156.534C179.026 156.433 178.625 156.315 178.167 156.186C176.659 155.762 174.535 155.219 172.075 154.744C167.112 153.785 160.959 153.138 155.768 154.18H155.767C152.016 154.932 148.768 157.024 146.412 159.002C145.244 159.983 144.32 160.916 143.691 161.6C143.377 161.941 143.138 162.218 142.98 162.407C142.901 162.502 142.843 162.574 142.806 162.62C142.787 162.643 142.774 162.66 142.766 162.67C142.762 162.675 142.76 162.678 142.758 162.68H142.758C142.207 163.395 141.18 163.529 140.464 162.979C139.748 162.428 139.614 161.402 140.165 160.686L141.126 161.424C140.224 160.731 140.169 160.688 140.166 160.685L140.167 160.684C140.167 160.683 140.168 160.682 140.168 160.681C140.17 160.679 140.172 160.677 140.174 160.674C140.179 160.669 140.184 160.661 140.191 160.652C140.206 160.634 140.226 160.609 140.251 160.577C140.302 160.514 140.375 160.424 140.469 160.311C140.657 160.086 140.93 159.769 141.282 159.386C141.986 158.621 143.011 157.587 144.307 156.498C146.88 154.338 150.623 151.877 155.124 150.974L155.672 150.87C161.36 149.852 167.761 150.579 172.695 151.532C175.263 152.028 177.478 152.595 179.053 153.037C179.841 153.259 180.47 153.45 180.905 153.587C181.123 153.655 181.292 153.71 181.408 153.748C181.466 153.767 181.511 153.782 181.542 153.792C181.557 153.798 181.57 153.802 181.578 153.805C181.583 153.806 181.586 153.807 181.589 153.808C181.59 153.809 181.591 153.809 181.592 153.809L181.592 153.81C181.592 153.814 181.566 153.888 181.064 155.357L182.698 155.448C182.698 155.448 182.697 155.449 182.697 155.449C182.697 155.451 182.698 155.453 182.697 155.456C182.697 155.463 182.696 155.472 182.695 155.485C182.694 155.51 182.692 155.547 182.69 155.596C182.684 155.695 182.676 155.842 182.665 156.033C182.644 156.416 182.613 156.979 182.574 157.695C182.495 159.129 182.383 161.182 182.249 163.658C181.979 168.61 181.62 175.253 181.261 182.02C180.541 195.598 179.827 209.557 179.827 211.482C179.828 212.673 180.68 214.001 182.374 215.13C184.031 216.235 186.142 216.892 187.883 216.892C189.469 216.891 190.885 216.187 192.211 215.186C192.871 214.688 193.474 214.144 194.05 213.611C194.592 213.111 195.183 212.551 195.708 212.156C196.43 211.614 197.456 211.76 197.999 212.482C198.541 213.204 198.396 214.23 197.673 214.772C197.318 215.038 196.892 215.441 196.271 216.014C195.685 216.555 194.981 217.193 194.183 217.796C192.592 218.997 190.485 220.162 187.883 220.162C185.436 220.162 182.701 219.279 180.559 217.852C178.455 216.449 176.556 214.255 176.556 211.482ZM181.594 153.81C182.287 154.047 182.738 154.716 182.698 155.447L181.064 155.357L181.594 153.81Z" fill="#977A67"/>
<path d="M141.809 134.551C148.984 134.148 155.291 135.166 159.802 136.281C162.059 136.84 163.874 137.424 165.132 137.873C165.761 138.097 166.251 138.287 166.588 138.423C166.757 138.491 166.887 138.546 166.977 138.584C167.022 138.603 167.057 138.619 167.082 138.63C167.095 138.635 167.105 138.639 167.112 138.642C167.116 138.644 167.119 138.646 167.121 138.647C167.122 138.647 167.124 138.648 167.124 138.648L167.126 138.649C167.125 138.651 167.099 138.708 166.514 140.017L167.126 138.649C167.951 139.017 168.321 139.985 167.953 140.809C167.584 141.633 166.617 142.003 165.793 141.635C165.792 141.635 165.791 141.635 165.79 141.635C165.787 141.633 165.782 141.63 165.774 141.627C165.757 141.62 165.731 141.609 165.696 141.594C165.624 141.563 165.512 141.516 165.363 141.456C165.065 141.336 164.617 141.162 164.033 140.954C162.864 140.537 161.154 139.985 159.016 139.456C154.867 138.43 149.133 137.496 142.625 137.785L141.993 137.817C137.725 138.058 135.153 140.536 133.582 143.114C132.793 144.408 132.279 145.698 131.963 146.67C131.806 147.154 131.7 147.552 131.634 147.823C131.601 147.959 131.579 148.062 131.565 148.128L131.549 148.208L131.511 148.371C131.283 149.168 130.484 149.679 129.65 149.529C128.761 149.37 128.169 148.52 128.328 147.631L129.939 147.92C128.413 147.647 128.333 147.631 128.329 147.63V147.628C128.329 147.627 128.329 147.625 128.329 147.624C128.33 147.621 128.331 147.617 128.332 147.612C128.334 147.603 128.336 147.592 128.338 147.577C128.344 147.549 128.352 147.509 128.362 147.46C128.382 147.363 128.413 147.225 128.454 147.054C128.537 146.712 128.665 146.232 128.851 145.66C129.222 144.519 129.831 142.981 130.788 141.412C132.707 138.264 136.116 134.873 141.808 134.551H141.809Z" fill="#977A67"/>
<path d="M172.228 200.776C172.523 199.923 173.455 199.469 174.309 199.764C175.163 200.059 175.616 200.991 175.321 201.844L175.32 201.847C175.319 201.85 175.317 201.855 175.315 201.862C175.31 201.875 175.303 201.898 175.293 201.927C175.273 201.985 175.245 202.073 175.208 202.187C175.134 202.414 175.03 202.745 174.912 203.148C174.674 203.959 174.382 205.049 174.154 206.189C173.923 207.343 173.773 208.477 173.787 209.398C173.795 209.856 173.842 210.206 173.911 210.453C173.947 210.578 173.981 210.655 174.005 210.698L174.031 210.742L174.032 210.742C174.658 211.337 175.349 211.451 176.349 211.483C176.777 211.496 177.473 211.493 178.056 211.595C178.672 211.703 179.433 211.965 180.017 212.657L180.132 212.801L180.225 212.94C180.65 213.652 180.476 214.583 179.797 215.089C179.101 215.608 178.127 215.489 177.573 214.834C177.554 214.83 177.527 214.823 177.491 214.817C177.209 214.767 176.897 214.773 176.244 214.752C175.083 214.715 173.323 214.583 171.776 213.112L171.777 213.111C170.734 212.12 170.534 210.595 170.516 209.449C170.496 208.192 170.695 206.797 170.945 205.547C171.198 204.283 171.518 203.094 171.772 202.227C171.9 201.792 172.013 201.433 172.094 201.182C172.134 201.056 172.167 200.957 172.19 200.889C172.202 200.854 172.211 200.827 172.217 200.808C172.22 200.799 172.223 200.791 172.225 200.786C172.226 200.783 172.227 200.781 172.227 200.779C172.228 200.779 172.228 200.778 172.228 200.778V200.776Z" fill="#977A67"/>
<path d="M180.593 282.076L181.457 287.767C181.457 287.767 192.693 319.526 226.988 315.202C261.277 310.878 287.733 257.33 292.032 239.662C292.032 239.662 275.536 266.619 252.842 276.967C252.842 276.967 243.334 287.695 235.41 289.789C225.247 292.464 215.177 291.908 215.177 291.908C215.177 291.908 211.597 295.767 200.911 294.969C189.388 294.106 180.593 282.076 180.593 282.076Z" fill="url(#paint1_linear_373_1863)"/>
<path d="M306.775 256.663C306.775 256.663 302.404 277.635 282.805 301.02C265.812 321.298 239.741 340.818 239.532 341.014C238.74 341.21 237.988 341.354 237.275 341.433C235.815 341.583 234.389 341.655 232.995 341.668C200.453 329.815 177.033 275.483 177.033 275.483L169.416 278.838L163.436 281.331L194.132 409.509L233.034 341.681C237.504 342.571 239.526 341.014 239.526 341.014L279.429 411.34L328.271 270.642C328.271 270.642 306.991 258.632 306.775 256.657V256.663Z" fill="#FFF9EC"/>
<path d="M306.686 255.024C307.417 254.984 308.065 255.433 308.308 256.091C308.4 256.197 308.566 256.36 308.827 256.585C309.365 257.047 310.16 257.641 311.157 258.332C313.141 259.707 315.788 261.373 318.454 262.993C321.114 264.61 323.77 266.166 325.762 267.32C326.758 267.896 327.587 268.371 328.167 268.702C328.457 268.867 328.685 268.997 328.839 269.085C328.917 269.129 328.976 269.162 329.016 269.184C329.036 269.196 329.051 269.204 329.061 269.21C329.066 269.213 329.07 269.215 329.072 269.216C329.073 269.217 329.074 269.217 329.075 269.218L329.075 269.218L329.2 269.296C329.8 269.71 330.059 270.478 329.817 271.178L280.975 411.877C280.764 412.483 280.217 412.911 279.578 412.969C278.938 413.027 278.323 412.705 278.006 412.147L238.843 343.125C238.695 343.173 238.537 343.219 238.37 343.263C237.274 343.549 235.788 343.714 233.891 343.475L195.551 410.322C195.218 410.903 194.563 411.223 193.9 411.127C193.236 411.032 192.697 410.541 192.541 409.889L161.844 281.711C161.658 280.931 162.065 280.13 162.806 279.821L168.768 277.337L176.373 273.986C176.773 273.81 177.226 273.801 177.632 273.961C178.038 274.12 178.363 274.435 178.536 274.836L178.537 274.837C178.537 274.838 178.538 274.84 178.539 274.843C178.542 274.849 178.545 274.858 178.551 274.87C178.561 274.895 178.577 274.932 178.599 274.981C178.643 275.081 178.709 275.231 178.797 275.428C178.973 275.822 179.238 276.403 179.586 277.15C180.282 278.642 181.315 280.793 182.657 283.412C185.342 288.653 189.257 295.761 194.178 303.231C204.021 318.175 217.661 334.21 233.281 340.028C234.53 340.009 235.803 339.94 237.1 339.806C237.631 339.747 238.201 339.644 238.816 339.501C242.193 336.878 265.721 318.86 281.552 299.97C291.235 288.416 297.149 277.466 300.639 269.421C302.384 265.399 303.522 262.105 304.222 259.826C304.572 258.686 304.812 257.801 304.964 257.206C305.04 256.909 305.093 256.684 305.128 256.537C305.145 256.463 305.156 256.408 305.164 256.374C305.165 256.368 305.166 256.362 305.167 256.358C305.302 255.629 305.92 255.066 306.686 255.024ZM307.637 259.822C307.55 260.121 307.455 260.443 307.349 260.785C306.617 263.169 305.438 266.579 303.64 270.723C300.045 279.01 293.975 290.239 284.059 302.071C268.988 320.054 246.618 337.631 241.651 341.445L279.068 407.39L326.279 271.39C325.718 271.069 324.982 270.648 324.123 270.15C322.119 268.99 319.441 267.421 316.754 265.788C314.073 264.158 311.359 262.451 309.293 261.019C308.69 260.602 308.131 260.199 307.637 259.822ZM170.076 280.335C170.066 280.339 170.056 280.344 170.046 280.348L165.351 282.304L194.763 405.121L230.669 342.517C214.631 335.889 201.039 319.596 191.445 305.03C186.443 297.436 182.468 290.219 179.745 284.903C178.383 282.244 177.332 280.057 176.621 278.532C176.466 278.201 176.328 277.901 176.206 277.634L170.076 280.335ZM308.401 256.479C308.397 256.439 308.39 256.401 308.383 256.366C308.39 256.403 308.397 256.441 308.401 256.479Z" fill="#977A67"/>
<path d="M221.637 136.204C227.992 135.05 232.694 135.715 236.679 137.806C240.584 139.856 243.63 143.198 246.81 146.971C247.392 147.661 247.304 148.693 246.613 149.275C245.922 149.857 244.89 149.769 244.308 149.078C241.114 145.289 238.431 142.42 235.158 140.702C231.964 139.026 228.038 138.366 222.222 139.422C215.396 140.663 211.665 144.474 209.601 147.976C208.56 149.743 207.942 151.438 207.585 152.69C207.408 153.314 207.297 153.823 207.231 154.168C207.198 154.34 207.177 154.471 207.164 154.555C207.158 154.597 207.153 154.627 207.151 154.645C207.15 154.65 207.149 154.655 207.149 154.658C207.044 155.555 206.231 156.197 205.334 156.091C204.436 155.986 203.794 155.174 203.9 154.277L205.525 154.468C203.9 154.277 203.9 154.276 203.9 154.275V154.273C203.9 154.271 203.901 154.27 203.901 154.268C203.901 154.264 203.902 154.259 203.903 154.254C203.904 154.242 203.906 154.228 203.908 154.21C203.913 154.175 203.92 154.126 203.929 154.065C203.947 153.942 203.976 153.771 204.017 153.556C204.099 153.127 204.231 152.523 204.438 151.795C204.851 150.343 205.567 148.377 206.782 146.316C209.23 142.161 213.701 137.646 221.637 136.204Z" fill="#977A67"/>
<path d="M154.168 144.793C160.856 143.703 167.189 145.324 172.038 147.497C174.548 148.622 176.694 149.909 178.329 151.086C179.905 152.221 181.163 153.364 181.735 154.242C182.228 154.999 182.014 156.012 181.257 156.505C180.5 156.998 179.487 156.784 178.993 156.027C178.77 155.685 177.936 154.834 176.417 153.74C174.956 152.689 173.001 151.513 170.699 150.481C166.078 148.41 160.189 146.975 154.127 148.12C148.594 149.165 145.885 152.504 144.504 155.634C143.803 157.22 143.449 158.753 143.272 159.893C143.183 160.46 143.14 160.923 143.118 161.237C143.108 161.394 143.102 161.514 143.1 161.59C143.098 161.628 143.098 161.655 143.098 161.671V161.686L143.089 161.85C143.006 162.675 142.309 163.318 141.462 163.318C140.558 163.318 139.826 162.586 139.826 161.683H141.462C139.826 161.683 139.826 161.682 139.826 161.681V161.661C139.826 161.65 139.826 161.637 139.827 161.621C139.827 161.588 139.828 161.542 139.83 161.486C139.833 161.373 139.841 161.214 139.854 161.016C139.881 160.619 139.934 160.061 140.039 159.389C140.247 158.05 140.666 156.227 141.51 154.313C143.219 150.442 146.691 146.196 153.519 144.906L154.168 144.793Z" fill="#977A67"/>
<path d="M309.608 180.757C309.608 180.757 319.116 169.624 319.98 155.41C320.844 141.195 319.725 127.74 314.935 127.753C308.974 127.772 303.68 144.44 302.037 155.239C300.526 165.202 308.45 166.785 311.866 152.015" fill="#FFC29B"/>
<path d="M314.931 126.117C317.048 126.112 318.448 127.632 319.319 129.32C320.206 131.037 320.801 133.37 321.196 136.004C321.991 141.305 322.048 148.352 321.613 155.509C321.162 162.939 318.459 169.515 315.907 174.196C314.628 176.545 313.375 178.437 312.439 179.746C311.97 180.402 311.58 180.912 311.304 181.263C311.166 181.438 311.056 181.573 310.98 181.667C310.941 181.713 310.911 181.75 310.89 181.775C310.879 181.788 310.871 181.798 310.865 181.805C310.862 181.809 310.859 181.812 310.857 181.814C310.856 181.815 310.855 181.817 310.854 181.817L310.853 181.819C310.851 181.818 310.808 181.781 309.608 180.758L310.853 181.819C310.266 182.506 309.233 182.588 308.546 182.001C307.859 181.415 307.777 180.383 308.364 179.696C308.364 179.695 308.365 179.695 308.366 179.693C308.369 179.69 308.375 179.684 308.382 179.675C308.397 179.657 308.42 179.629 308.451 179.591C308.514 179.514 308.61 179.397 308.734 179.24C308.981 178.926 309.34 178.455 309.776 177.845C310.65 176.623 311.828 174.843 313.034 172.631C315.452 168.193 317.935 162.095 318.347 155.311C318.776 148.253 318.706 141.465 317.96 136.488C317.584 133.983 317.055 132.066 316.412 130.82C315.754 129.545 315.218 129.387 314.94 129.388C314.228 129.391 313.2 129.918 311.923 131.546C310.695 133.112 309.49 135.38 308.38 138.077C306.164 143.454 304.46 150.189 303.655 155.484L303.655 155.485C303.305 157.794 303.537 159.418 303.951 160.354C304.349 161.254 304.759 161.291 304.953 161.273C305.343 161.237 306.232 160.845 307.322 159.234C308.374 157.679 309.447 155.214 310.272 151.647C310.476 150.767 311.355 150.218 312.235 150.421C313.115 150.625 313.663 151.503 313.46 152.383C312.577 156.2 311.379 159.076 310.032 161.067C308.723 163.002 307.084 164.361 305.255 164.53C303.229 164.717 301.728 163.415 300.959 161.678C300.206 159.976 300.014 157.666 300.42 154.995L300.42 154.994C301.258 149.489 303.022 142.492 305.354 136.831C306.517 134.008 307.856 131.43 309.348 129.528C310.791 127.689 312.661 126.125 314.93 126.117H314.931Z" fill="#977A67"/>
<path d="M166.459 157.47C166.459 161.225 163.409 164.273 159.653 164.273C155.897 164.273 152.848 161.225 152.848 157.47C152.848 153.303 155.897 152.015 159.653 152.015C163.409 152.015 166.459 152.78 166.459 157.47Z" fill="#977A67"/>
<path d="M233.82 147.92C233.82 151.674 230.77 154.723 227.014 154.723C223.258 154.723 220.209 151.674 220.209 147.92C220.209 143.197 222.787 142.628 226.543 142.628C230.299 142.628 233.82 143.602 233.82 147.92Z" fill="#977A67"/>
<path d="M220.203 236.365C220.803 235.69 221.837 235.629 222.513 236.229C223.188 236.828 223.249 237.862 222.649 238.537C222.024 239.24 220.936 240.067 219.638 240.903C218.303 241.763 216.627 242.708 214.73 243.631C210.945 245.473 206.195 247.273 201.422 248.128L201.421 248.127C196.516 249.009 192.164 248.275 189.055 247.334C187.497 246.862 186.24 246.334 185.364 245.921C184.926 245.714 184.583 245.534 184.343 245.404C184.224 245.339 184.13 245.286 184.063 245.247C184.03 245.228 184.004 245.212 183.984 245.201C183.975 245.195 183.967 245.19 183.961 245.187C183.957 245.185 183.954 245.183 183.952 245.181C183.951 245.181 183.95 245.18 183.95 245.18L183.948 245.179C183.948 245.179 183.947 245.178 184.801 243.783L183.947 245.178C183.176 244.707 182.934 243.7 183.405 242.93C183.877 242.16 184.883 241.918 185.653 242.388H185.654L185.653 242.387L185.652 242.387C185.653 242.387 185.655 242.389 185.659 242.391C185.667 242.396 185.682 242.405 185.704 242.417C185.747 242.442 185.816 242.482 185.91 242.533C186.099 242.636 186.386 242.786 186.763 242.964C187.517 243.321 188.624 243.786 190.004 244.203C192.769 245.041 196.583 245.674 200.844 244.908H200.846C205.24 244.121 209.697 242.443 213.297 240.691C215.093 239.817 216.654 238.935 217.866 238.154C219.117 237.348 219.889 236.719 220.203 236.365Z" fill="#977A67"/>
<path d="M232.68 224.104C233.328 223.475 234.364 223.491 234.993 224.139C235.622 224.787 235.607 225.822 234.959 226.451C233.243 228.116 230.811 229.474 228.16 230.583C225.486 231.701 222.475 232.613 219.506 233.334C213.585 234.771 207.66 235.49 204.626 235.534H204.624C203.145 235.555 201.703 236.14 200.506 237.159C200.503 237.161 200.501 237.164 200.498 237.166C199.595 237.925 198.35 238.668 196.732 238.973L196.732 238.972C195.641 239.179 194.471 238.899 193.61 238.644C193.147 238.507 192.687 238.348 192.281 238.208C191.86 238.063 191.506 237.941 191.193 237.85L191.186 237.848C190.479 237.638 189.765 237.656 189.15 237.892L189.149 237.891C186.522 238.903 182.881 239.105 180.079 239.092C178.641 239.086 177.355 239.022 176.428 238.96C175.965 238.929 175.589 238.898 175.328 238.875C175.197 238.864 175.095 238.853 175.024 238.846C174.989 238.843 174.961 238.841 174.942 238.839C174.933 238.838 174.925 238.837 174.92 238.836C174.917 238.836 174.915 238.836 174.913 238.836C174.913 238.836 174.912 238.836 174.911 238.836L174.911 238.835C174.911 238.83 174.92 238.744 175.083 237.209L174.91 238.835C174.012 238.739 173.361 237.934 173.456 237.036C173.552 236.138 174.358 235.487 175.256 235.583C175.257 235.583 175.258 235.583 175.26 235.583C175.263 235.584 175.268 235.584 175.276 235.585C175.29 235.586 175.313 235.589 175.343 235.592C175.405 235.598 175.497 235.607 175.617 235.617C175.857 235.639 176.21 235.667 176.648 235.697C177.525 235.755 178.74 235.816 180.093 235.822C182.871 235.834 185.969 235.612 187.974 234.839L187.976 234.839C189.335 234.317 190.791 234.32 192.11 234.71C192.514 234.828 192.948 234.979 193.347 235.117C193.762 235.259 194.155 235.394 194.539 235.508C195.372 235.755 195.873 235.807 196.123 235.76L196.125 235.759C197.073 235.58 197.817 235.146 198.393 234.662C200.099 233.213 202.253 232.297 204.578 232.264L205.125 232.249C208.025 232.136 213.351 231.462 218.734 230.156C221.595 229.461 224.431 228.598 226.897 227.566C229.386 226.525 231.389 225.357 232.68 224.104Z" fill="#977A67"/>
<path d="M213.909 289.099V289.099C214.272 288.798 214.748 288.668 215.215 288.743H215.214C215.214 288.743 215.215 288.743 215.216 288.744C215.219 288.744 215.225 288.745 215.232 288.746C215.246 288.748 215.27 288.752 215.301 288.756C215.365 288.766 215.461 288.78 215.588 288.797C215.844 288.832 216.224 288.88 216.711 288.933C217.685 289.037 219.083 289.158 220.761 289.218C224.13 289.339 228.575 289.214 232.976 288.262C237.297 287.327 241.6 285.207 245.062 282.684C248.57 280.126 250.99 277.32 251.817 275.149C252.139 274.305 253.083 273.882 253.928 274.203C254.772 274.524 255.196 275.469 254.875 276.313C253.719 279.349 250.707 282.617 246.99 285.327C243.226 288.07 238.509 290.412 233.669 291.459C228.909 292.489 224.17 292.613 220.644 292.487C218.876 292.424 217.4 292.297 216.361 292.185C215.972 292.143 215.643 292.102 215.384 292.069C215.25 292.16 215.096 292.262 214.92 292.372C214.256 292.787 213.292 293.319 212.052 293.818C209.568 294.818 205.978 295.683 201.498 295.209H201.498C193.929 294.406 187.612 289.55 183.291 285.117C181.108 282.878 179.381 280.69 178.199 279.063C177.607 278.248 177.149 277.571 176.837 277.094C176.681 276.855 176.561 276.665 176.48 276.534C176.439 276.469 176.407 276.417 176.385 276.381C176.374 276.364 176.366 276.349 176.36 276.339C176.357 276.334 176.354 276.33 176.352 276.327C176.352 276.326 176.351 276.324 176.35 276.323L176.349 276.322C176.349 276.321 176.348 276.321 177.753 275.483L176.349 276.321C175.886 275.545 176.139 274.541 176.915 274.079C177.691 273.616 178.695 273.869 179.158 274.645C179.158 274.645 179.16 274.647 179.162 274.65C179.165 274.656 179.171 274.666 179.179 274.679C179.195 274.706 179.221 274.749 179.256 274.805C179.327 274.918 179.434 275.087 179.576 275.306C179.862 275.743 180.289 276.375 180.846 277.141C181.96 278.675 183.588 280.735 185.634 282.835C189.772 287.08 195.415 291.274 201.843 291.956L202.203 291.991C205.896 292.318 208.823 291.592 210.83 290.784C211.868 290.366 212.661 289.927 213.184 289.6C213.445 289.436 213.638 289.302 213.76 289.212C213.821 289.168 213.864 289.135 213.889 289.115C213.899 289.108 213.905 289.102 213.909 289.099ZM213.912 289.097L213.91 289.099H213.909C213.91 289.098 213.911 289.097 213.912 289.097Z" fill="#977A67"/>
<path d="M291.709 234.144C292.173 233.37 293.178 233.118 293.953 233.582C294.728 234.047 294.979 235.051 294.515 235.826L293.111 234.985C294.428 235.774 294.509 235.823 294.514 235.826C294.514 235.827 294.514 235.828 294.514 235.828C294.513 235.829 294.512 235.831 294.51 235.833C294.508 235.837 294.505 235.843 294.5 235.851C294.491 235.866 294.477 235.888 294.46 235.916C294.425 235.974 294.374 236.058 294.306 236.167C294.172 236.385 293.974 236.703 293.714 237.111C293.194 237.927 292.429 239.102 291.44 240.549C289.464 243.442 286.593 247.427 283.004 251.802C275.849 260.525 265.748 270.919 254.128 277.239C253.334 277.671 252.34 277.378 251.909 276.585C251.477 275.791 251.77 274.798 252.564 274.367C263.636 268.344 273.419 258.329 280.474 249.729C283.99 245.442 286.804 241.536 288.739 238.705C289.705 237.289 290.452 236.144 290.954 235.354C291.205 234.96 291.396 234.654 291.522 234.449C291.585 234.347 291.633 234.269 291.664 234.218C291.68 234.192 291.691 234.173 291.699 234.16C291.702 234.154 291.705 234.15 291.707 234.148C291.708 234.146 291.708 234.145 291.708 234.144H291.709Z" fill="#977A67"/>
<path d="M132.451 170.54C132.451 170.54 126.372 171.24 123.892 165.784C121.412 160.329 95.4141 106.428 103.967 73.1847C115.752 27.3821 152.429 4.2584 206.271 1.77922C253.712 -0.405591 267.107 22.9994 267.107 22.9994C267.107 22.9994 309.268 22.9994 317.703 63.8305C325.477 101.476 328.474 130.742 322.231 122.395C315.334 113.179 306.729 117.45 302.947 128.04C293.583 154.258 289.264 149.542 286.823 141.777C279.704 119.151 269.941 97.44 258.738 76.5338L247.673 55.8828C247.673 55.8828 211.61 83.6377 170.32 93.7572C132.111 103.124 120.221 102.765 120.221 102.765C120.221 102.765 119.443 145.244 132.458 170.533L132.451 170.54Z" fill="#B0988D"/>
<path d="M206.195 0.145671C230.206 -0.960039 245.74 4.40824 255.322 10.1685C260.105 13.0439 263.382 16.0028 265.475 18.2666C266.521 19.3981 267.271 20.3553 267.766 21.041C267.856 21.1663 267.937 21.2838 268.01 21.3904C268.294 21.4028 268.642 21.4203 269.047 21.4479C270.257 21.5304 271.985 21.6943 274.079 22.0215C278.264 22.6751 283.942 23.9834 289.902 26.6069C301.863 31.8722 314.957 42.4518 319.305 63.4997C323.198 82.348 325.904 99.1482 326.853 110.221C327.321 115.687 327.384 119.977 326.848 122.412C326.711 123.033 326.51 123.658 326.188 124.178C325.859 124.707 325.287 125.303 324.39 125.437C323.533 125.565 322.812 125.203 322.324 124.843C321.822 124.474 321.357 123.958 320.921 123.375V123.374C319.325 121.242 317.719 120.01 316.235 119.419C314.776 118.839 313.346 118.842 311.969 119.331C309.139 120.338 306.297 123.523 304.488 128.591C302.133 135.183 300.071 139.902 298.246 143.142C296.471 146.292 294.756 148.352 292.95 149.149C291.963 149.584 290.941 149.646 289.971 149.294C289.051 148.96 288.332 148.312 287.775 147.612C286.682 146.237 285.883 144.24 285.263 142.268L284.591 140.161C277.573 118.412 268.115 97.4961 257.296 77.3062L247.126 58.3273C247.087 58.356 247.048 58.3865 247.007 58.4161C245.929 59.2035 244.345 60.3365 242.318 61.7264C238.264 64.5058 232.43 68.3142 225.299 72.4404C211.052 80.6846 191.564 90.2344 170.709 95.3454C151.564 100.039 138.983 102.303 131.168 103.394C127.26 103.939 124.54 104.191 122.783 104.307C122.435 104.329 122.124 104.346 121.849 104.359C121.849 104.447 121.849 104.539 121.849 104.634C121.853 105.832 121.873 107.576 121.938 109.749C122.067 114.096 122.374 120.155 123.086 126.997C124.513 140.73 127.549 157.421 133.913 169.785C134.238 170.418 134.117 171.188 133.614 171.69L133.607 171.697C133.346 171.958 133.005 172.122 132.638 172.164L132.451 170.54C132.635 172.135 132.638 172.164 132.637 172.165H132.635C132.634 172.165 132.633 172.165 132.631 172.165C132.629 172.166 132.625 172.166 132.622 172.166C132.615 172.167 132.606 172.168 132.596 172.169C132.576 172.171 132.551 172.173 132.52 172.176C132.457 172.181 132.372 172.187 132.266 172.192C132.056 172.203 131.764 172.21 131.41 172.199C130.706 172.176 129.734 172.08 128.665 171.783C126.503 171.185 123.895 169.742 122.403 166.461C121.17 163.749 114.007 148.819 108.231 130.394C102.482 112.054 97.9825 89.8794 102.382 72.7777C108.367 49.5166 120.705 31.9376 138.427 19.8834C156.121 7.84928 179.071 1.39464 206.195 0.145671ZM253.637 12.9716C244.661 7.57565 229.777 2.3341 206.346 3.41316C179.629 4.64338 157.32 10.9902 140.268 22.5881C123.245 34.1663 111.351 51.0507 105.551 73.5922C101.398 89.7337 105.621 111.132 111.353 129.416C117.058 147.616 124.134 162.364 125.382 165.108C126.37 167.281 128.041 168.217 129.538 168.632C129.606 168.65 129.673 168.667 129.739 168.683C123.954 156.114 121.174 140.256 119.832 127.335C119.11 120.396 118.799 114.254 118.667 109.846C118.602 107.642 118.581 105.869 118.577 104.645C118.575 104.033 118.577 103.558 118.58 103.235C118.581 103.074 118.582 102.95 118.584 102.866C118.584 102.824 118.584 102.791 118.585 102.77C118.585 102.759 118.585 102.75 118.585 102.745V102.736C118.587 102.735 118.642 102.736 120.221 102.765L118.585 102.735C118.593 102.298 118.776 101.882 119.093 101.581C119.409 101.28 119.832 101.118 120.269 101.13H120.283C120.3 101.131 120.329 101.131 120.37 101.131C120.452 101.131 120.585 101.131 120.772 101.127C121.146 101.119 121.735 101.098 122.569 101.043C124.236 100.933 126.876 100.69 130.716 100.154C138.398 99.0827 150.867 96.8428 169.93 92.1693C190.366 87.1608 209.553 77.773 223.66 69.6099C230.706 65.5324 236.469 61.7703 240.467 59.0294C242.466 57.6592 244.023 56.5446 245.077 55.7747C245.605 55.3897 246.007 55.0909 246.276 54.8893C246.41 54.7885 246.511 54.712 246.578 54.6612C246.611 54.6359 246.636 54.6168 246.652 54.6044C246.66 54.5982 246.666 54.5938 246.67 54.591C246.672 54.5896 246.673 54.5884 246.674 54.5878L246.674 54.5871L246.822 54.4856C247.177 54.2693 247.604 54.1955 248.016 54.2837C248.486 54.3845 248.888 54.6874 249.115 55.1109L260.18 75.7616C271.067 96.0774 280.612 117.177 287.705 139.157L288.384 141.287C288.984 143.197 289.641 144.701 290.336 145.576C290.674 146 290.933 146.163 291.086 146.218C291.19 146.256 291.337 146.285 291.628 146.157C292.378 145.826 293.651 144.633 295.395 141.537C297.09 138.53 299.079 134.007 301.406 127.491C303.378 121.968 306.731 117.722 310.873 116.25C312.982 115.5 315.233 115.501 317.445 116.381C319.632 117.251 321.688 118.94 323.541 121.416L323.542 121.416C323.588 121.478 323.632 121.537 323.675 121.591C324.065 119.67 324.056 115.9 323.593 110.5C322.661 99.6144 319.982 82.9586 316.101 64.1615C312.014 44.3785 299.811 34.5428 288.583 29.6003C282.948 27.1199 277.559 25.8756 273.574 25.2532C271.585 24.9424 269.952 24.7878 268.824 24.7109C268.26 24.6724 267.823 24.6532 267.53 24.6438C267.384 24.6391 267.275 24.6373 267.203 24.6361C267.168 24.6356 267.141 24.635 267.125 24.6349H267.106V24.6342C266.521 24.6338 265.982 24.3221 265.69 23.8159L265.687 23.8121C265.684 23.8067 265.678 23.7957 265.668 23.7795C265.649 23.7472 265.616 23.6937 265.569 23.6204C265.474 23.4737 265.324 23.2477 265.112 22.9548C264.689 22.3691 264.023 21.5149 263.072 20.4865C261.171 18.4302 258.132 15.6743 253.637 12.9716Z" fill="#977A67"/>
<path d="M209.26 261.824C209.261 261.825 209.261 261.858 209.261 262.68V261.824C210.164 261.824 210.897 262.556 210.897 263.46C210.897 264.363 210.164 265.094 209.261 265.094L209.262 265.095H209.257C209.245 265.095 209.223 265.096 209.191 265.097C209.127 265.099 209.02 265.103 208.868 265.112C208.564 265.129 208.08 265.166 207.393 265.241C206.017 265.39 203.83 265.694 200.645 266.308C197.692 266.877 194.908 268.258 192.823 269.538C191.79 270.173 190.949 270.77 190.37 271.206C190.081 271.424 189.858 271.601 189.71 271.721C189.636 271.78 189.581 271.826 189.546 271.855C189.529 271.87 189.516 271.881 189.509 271.887C189.505 271.89 189.502 271.891 189.501 271.892C188.817 272.483 187.784 272.407 187.194 271.724C186.604 271.04 186.679 270.007 187.363 269.417L188.195 270.38C187.363 269.417 187.364 269.417 187.364 269.416L187.365 269.416C187.365 269.415 187.366 269.415 187.367 269.414C187.368 269.413 187.37 269.412 187.372 269.41C187.376 269.406 187.381 269.402 187.388 269.396C187.402 269.384 187.421 269.369 187.444 269.349C187.492 269.309 187.561 269.251 187.649 269.18C187.825 269.038 188.079 268.837 188.402 268.594C189.047 268.108 189.974 267.449 191.111 266.751C193.366 265.366 196.533 263.77 200.026 263.097C203.286 262.468 205.562 262.15 207.038 261.989C207.776 261.909 208.315 261.868 208.678 261.847C208.859 261.836 208.996 261.83 209.092 261.827C209.14 261.826 209.178 261.825 209.206 261.825C209.22 261.825 209.232 261.824 209.241 261.824H209.26Z" fill="#977A67"/>
<path opacity="0.42" d="M294.257 146.082C290.776 151.55 286.843 146.082 286.843 146.082C286.843 146.082 286.686 168.741 281.222 177.735C270.039 196.143 256.775 210.259 245.578 220.202C233.976 210.285 224.671 214.439 218.69 215.904C212.206 217.487 200.826 222.386 194.341 223.25C187.857 224.113 179.932 222.674 174.311 225.265C171.838 226.403 169.286 230.72 167.198 235.208C151.114 230.02 136.273 211.299 136.273 211.299C138.871 222.864 156.022 256.199 161.917 263.466C166.452 269.052 178.813 274.096 178.813 274.096C178.813 274.096 186.993 287.493 198.843 293.079C204.052 295.532 214.947 290.364 214.947 290.364C214.947 290.364 221.138 291.81 233.316 289.867C245.493 287.924 252.358 277.641 252.358 277.641L263.076 269.353C269.149 265.062 279.992 252.85 290.056 239.669C300.12 226.488 301.848 204.012 301.848 204.012C301.848 204.012 297.732 140.613 294.25 146.082H294.257ZM221.432 238.223C221.432 238.223 210.956 246.02 202.128 246.89C193.301 247.754 187.215 244.921 183.865 243.737C181.274 242.822 177.524 239.741 173.768 237.458L174.324 236.503C180.953 238.517 190.029 234.992 190.029 234.992C190.029 234.992 194.309 237.131 196.442 237.366C198.575 237.595 203.123 233.625 203.123 233.625C203.123 233.625 215.209 232.591 218.049 231.996C220.889 231.4 234.834 225.271 234.834 225.271L234.33 226.782C226.549 236.163 221.432 238.23 221.432 238.23V238.223Z" fill="#B0988D"/>
</g>
<defs>
<linearGradient id="paint0_linear_373_1863" x1="174.525" y1="188.925" x2="111.741" y2="197.152" gradientUnits="userSpaceOnUse">
<stop stop-color="#E5AB85"/>
<stop offset="1" stop-color="#FFC29B"/>
</linearGradient>
<linearGradient id="paint1_linear_373_1863" x1="221.637" y1="296.28" x2="223.652" y2="327.994" gradientUnits="userSpaceOnUse">
<stop stop-color="#E5AB85"/>
<stop offset="1" stop-color="#FFC29B"/>
</linearGradient>
<clipPath id="clip0_373_1863">
<rect width="525" height="585" fill="white" transform="translate(-17)"/>
</clipPath>
</defs>
</svg>
