<svg width="477" height="518" viewBox="0 0 477 518" fill="none" xmlns="http://www.w3.org/2000/svg">
<g clip-path="url(#clip0_373_1946)">
<path d="M-42.3901 529.548C-42.3901 528.241 -28.0242 443.39 -18.0047 409.443C-7.99171 375.502 -0.155151 351.131 15.0865 336.336C30.3282 321.541 153.955 278.893 177.703 273.024C201.451 267.155 321.62 259.754 321.62 259.754C321.62 259.754 415.517 282.169 435.698 288.038C476.993 300.047 495.782 315.891 495.782 315.891L498.397 535.398L-42.3901 529.548Z" fill="#977A67"/>
<path d="M321.521 258.149C321.68 258.139 321.839 258.152 321.994 258.189L321.62 259.754C321.994 258.189 321.995 258.189 321.995 258.189C321.996 258.19 321.997 258.19 321.999 258.191C322.001 258.191 322.006 258.192 322.011 258.194C322.022 258.197 322.04 258.2 322.062 258.206C322.107 258.217 322.175 258.233 322.265 258.254C322.443 258.297 322.708 258.36 323.054 258.443C323.747 258.608 324.766 258.852 326.07 259.164C328.677 259.789 332.424 260.688 336.984 261.784C346.103 263.978 358.472 266.963 371.473 270.132C397.451 276.465 426.014 283.546 436.147 286.493C456.915 292.533 472.047 299.543 482.006 305.061C486.985 307.819 490.67 310.204 493.12 311.907C494.345 312.758 495.261 313.439 495.876 313.911C496.183 314.147 496.414 314.331 496.571 314.458C496.65 314.521 496.71 314.57 496.752 314.604C496.772 314.621 496.789 314.634 496.8 314.644C496.806 314.648 496.81 314.653 496.813 314.655C496.815 314.657 496.817 314.658 496.818 314.659C496.818 314.659 496.819 314.66 496.82 314.66C496.82 314.66 496.821 314.661 495.799 315.872L496.82 314.661C497.178 314.963 497.386 315.404 497.392 315.872L500.006 535.378C500.012 535.811 499.842 536.228 499.535 536.535C499.229 536.841 498.812 537.011 498.379 537.007L-42.4078 531.156C-43.2349 531.147 -43.9107 530.516 -43.9918 529.711L-44 529.548C-44 529.369 -43.9631 529.109 -43.9434 528.965C-43.9142 528.753 -43.872 528.467 -43.8176 528.113C-43.7087 527.403 -43.5482 526.402 -43.3416 525.144C-42.9283 522.626 -42.3275 519.067 -41.5752 514.73C-40.0707 506.054 -37.9602 494.256 -35.5365 481.437C-30.6946 455.827 -24.5851 426.05 -19.5491 408.988C-14.5458 392.028 -10.0599 377.367 -4.90425 365.088C0.254288 352.802 6.12705 342.791 13.9651 335.182C16.0501 333.158 19.8319 330.783 24.7207 328.188C29.6563 325.567 35.8696 322.647 42.9404 319.554C57.0852 313.366 74.7419 306.452 92.6459 299.824C128.426 286.579 165.346 274.421 177.317 271.463C183.382 269.964 195.461 268.391 210.042 266.875C224.667 265.354 241.93 263.877 258.441 262.584C274.954 261.292 290.723 260.183 302.364 259.397C308.184 259.004 312.973 258.692 316.307 258.479C317.974 258.372 319.277 258.289 320.164 258.233C320.607 258.206 320.946 258.184 321.175 258.17C321.289 258.163 321.375 258.157 321.433 258.154C321.462 258.152 321.485 258.151 321.499 258.15C321.506 258.149 321.512 258.149 321.516 258.149C321.517 258.148 321.518 258.149 321.519 258.149C321.52 258.149 321.521 258.148 321.617 259.707L321.521 258.149ZM321.375 261.381C321.147 261.396 320.808 261.416 320.365 261.444C319.48 261.5 318.178 261.582 316.513 261.689C313.183 261.903 308.397 262.215 302.581 262.607C290.948 263.393 275.19 264.501 258.693 265.793C242.193 267.084 224.961 268.558 210.375 270.075C195.746 271.597 183.898 273.15 178.09 274.586C166.313 277.497 129.544 289.597 93.7639 302.842C75.8875 309.459 58.2955 316.348 44.2314 322.501C37.1979 325.578 31.0665 328.463 26.2311 331.029C21.3491 333.621 17.9337 335.815 16.2082 337.49C8.80455 344.677 3.13789 354.249 -1.93553 366.333C-7.01175 378.423 -11.4513 392.917 -16.4609 409.898V409.898C-21.4443 426.783 -27.5271 456.405 -32.3729 482.034C-34.7931 494.835 -36.9006 506.617 -38.4028 515.279C-39.1539 519.61 -39.7533 523.159 -40.1648 525.665C-40.3137 526.572 -40.437 527.34 -40.5345 527.959L496.767 533.771L494.182 316.673C494.101 316.61 494.012 316.538 493.913 316.462C493.338 316.021 492.464 315.37 491.282 314.548C488.918 312.905 485.325 310.579 480.445 307.875C470.686 302.468 455.775 295.552 435.248 289.583C425.201 286.661 396.725 279.6 370.71 273.258C357.714 270.09 345.347 267.106 336.23 264.913C331.672 263.816 327.925 262.918 325.319 262.293C324.016 261.981 322.997 261.738 322.305 261.572C321.959 261.49 321.694 261.426 321.516 261.383C321.503 261.38 321.492 261.377 321.48 261.374C321.448 261.376 321.413 261.379 321.375 261.381Z" fill="#977A67"/>
<path d="M228 1.60889C192.732 1.60889 152.049 14.9303 134.47 71.8905C126.511 97.6838 132.178 115.343 130.877 129.7C130.877 129.7 127.954 142.043 127.954 155.204C127.954 168.364 131.611 206.263 140.716 228.71C149.152 249.509 155.224 254.233 167.368 259.214C178.869 263.931 191.831 299.738 204.49 311.534C210.64 317.261 276.256 305.691 308.986 242.778C308.986 242.778 305.065 229.289 305.065 221.457C305.065 213.625 306.024 194.891 306.024 194.891C306.024 194.891 314.318 194.621 320.352 190.065C327.86 184.395 337.113 162.733 341.466 143.588C345.819 124.442 342.033 115.278 335.793 111.494C331.633 108.972 327.57 110.136 327.57 110.136C327.57 94.376 328.227 81.0417 322.747 60.8408C315.612 34.5134 279.372 1.60889 228 1.60889Z" fill="#FFC29B"/>
<path d="M126.344 155.204C126.344 148.514 127.086 142.05 127.824 137.271C128.194 134.879 128.564 132.901 128.842 131.518C128.981 130.826 129.097 130.283 129.179 129.911C129.22 129.725 129.252 129.581 129.275 129.483C129.277 129.472 129.279 129.461 129.282 129.451C129.584 126.015 129.481 122.349 129.26 118.326C129.039 114.295 128.698 109.873 128.567 105.128C128.305 95.5796 128.886 84.5305 132.932 71.4166L133.353 70.0742C142.284 42.0546 156.874 24.5366 173.75 14.0241C190.863 3.3643 210.177 0 228 0C254.037 1.67865e-05 276.26 8.33986 292.889 20.0366C309.485 31.7101 320.611 46.8052 324.301 60.4197C329.627 80.0532 329.224 93.3296 329.184 108.281C329.48 108.264 329.802 108.255 330.147 108.261C331.895 108.288 334.248 108.675 336.628 110.119C343.807 114.472 347.427 124.63 343.036 143.944C340.836 153.617 337.402 163.919 333.563 172.534C331.643 176.842 329.61 180.754 327.564 183.967C325.535 187.153 323.426 189.76 321.322 191.349C318.051 193.818 314.223 195.093 311.28 195.756C309.797 196.09 308.511 196.275 307.592 196.377C307.582 196.378 307.572 196.378 307.562 196.379C307.54 196.833 307.513 197.385 307.483 198.018C307.393 199.894 307.273 202.478 307.153 205.305C306.913 210.973 306.675 217.58 306.675 221.457C306.675 225.179 307.618 230.356 308.596 234.701C309.081 236.852 309.566 238.763 309.93 240.135C310.112 240.821 310.263 241.372 310.368 241.75C310.421 241.939 310.462 242.085 310.49 242.183C310.504 242.232 310.515 242.269 310.522 242.294C310.526 242.306 310.528 242.315 310.53 242.321C310.531 242.323 310.531 242.326 310.532 242.327L310.532 242.328C310.648 242.725 310.606 243.153 310.415 243.52C293.858 275.345 268.978 294.189 247.458 304.35C236.702 309.43 226.759 312.353 219.076 313.641C215.239 314.284 211.925 314.527 209.332 314.412C208.037 314.354 206.882 314.206 205.913 313.954C205.033 313.726 204.174 313.379 203.521 312.825L203.393 312.711C200.065 309.61 196.789 305.008 193.601 299.897C190.402 294.771 187.211 288.996 184.095 283.514C180.962 278.002 177.907 272.785 174.934 268.66C171.911 264.466 169.172 261.693 166.757 260.702C160.603 258.178 155.796 255.644 151.471 250.988C147.18 246.369 143.466 239.772 139.224 229.314C134.599 217.911 131.386 202.675 129.328 188.709C127.267 174.731 126.344 161.884 126.344 155.204ZM129.563 155.204C129.563 161.684 130.468 174.367 132.513 188.24C134.56 202.125 137.728 217.061 142.208 228.105C146.402 238.447 149.941 244.611 153.831 248.799C157.687 252.95 161.989 255.268 167.979 257.725L168.292 257.859C171.514 259.311 174.604 262.697 177.546 266.78C180.634 271.063 183.767 276.421 186.895 281.924C190.039 287.458 193.181 293.142 196.333 298.195C199.494 303.262 202.586 307.56 205.587 310.357C205.689 310.451 206.009 310.654 206.722 310.839C207.406 311.017 208.324 311.146 209.475 311.197C211.776 311.299 214.853 311.086 218.543 310.467C225.915 309.231 235.575 306.403 246.083 301.441C266.965 291.581 291.089 273.344 307.262 242.595C307.153 242.206 307 241.649 306.817 240.959C306.446 239.558 305.951 237.607 305.455 235.408C304.473 231.049 303.455 225.567 303.455 221.457C303.455 217.502 303.696 210.827 303.936 205.169C304.056 202.334 304.176 199.745 304.266 197.864C304.311 196.923 304.349 196.16 304.376 195.632C304.389 195.367 304.399 195.162 304.406 195.023C304.409 194.953 304.412 194.899 304.414 194.864C304.415 194.846 304.415 194.832 304.416 194.823C304.416 194.818 304.416 194.815 304.416 194.813V194.809C304.459 193.975 305.135 193.311 305.971 193.284C305.973 193.284 305.977 193.283 305.982 193.283C305.994 193.282 306.013 193.282 306.039 193.28C306.092 193.278 306.174 193.273 306.283 193.265C306.501 193.25 306.826 193.224 307.237 193.179C308.062 193.087 309.227 192.92 310.571 192.617C313.283 192.006 316.619 190.868 319.381 188.781C321.031 187.535 322.894 185.308 324.848 182.24C326.785 179.198 328.746 175.435 330.622 171.225C334.374 162.806 337.743 152.704 339.896 143.232C344.211 124.255 340.258 116.084 334.958 112.87C333.179 111.791 331.42 111.499 330.096 111.478C329.434 111.468 328.889 111.526 328.519 111.583C328.334 111.612 328.195 111.641 328.108 111.661C328.064 111.671 328.034 111.678 328.018 111.682C328.01 111.684 328.005 111.685 328.005 111.685C328.005 111.685 328.005 111.685 328.006 111.685C328.007 111.684 328.008 111.684 328.01 111.684C328.01 111.684 328.011 111.684 328.011 111.683H328.013L328.012 111.683C327.527 111.821 327.004 111.725 326.601 111.421C326.197 111.117 325.96 110.641 325.96 110.136C325.96 94.3399 326.607 81.2218 321.193 61.2619C317.748 48.5492 307.187 34.0284 291.036 22.668C274.918 11.3307 253.336 3.21774 228 3.21773C210.555 3.21773 191.894 6.51404 175.454 16.7548C159.045 26.9762 144.698 44.2086 136.008 72.3649C132.096 85.044 131.53 95.7207 131.786 105.039C131.914 109.728 132.249 114.025 132.475 118.149C132.7 122.24 132.817 126.133 132.481 129.845C132.474 129.921 132.461 129.997 132.443 130.071C132.443 130.072 132.443 130.074 132.442 130.077C132.441 130.082 132.439 130.09 132.437 130.1C132.431 130.122 132.423 130.156 132.413 130.2C132.393 130.29 132.362 130.425 132.323 130.602C132.245 130.956 132.133 131.48 131.998 132.151C131.728 133.494 131.367 135.424 131.006 137.762C130.283 142.445 129.563 148.734 129.563 155.204Z" fill="#977A67"/>
<path d="M178.879 86.973C179.157 86.1293 180.068 85.6711 180.912 85.9493C181.756 86.2275 182.214 87.1367 181.936 87.9805V87.9817C181.935 87.984 181.934 87.9883 181.932 87.9943C181.929 88.0065 181.922 88.0265 181.914 88.0534C181.897 88.107 181.871 88.189 181.839 88.296C181.775 88.5103 181.685 88.8243 181.585 89.2116C181.383 89.9899 181.144 91.0484 180.985 92.1849C180.826 93.3314 180.757 94.4977 180.865 95.5113C180.975 96.5497 181.251 97.2383 181.605 97.6311C182.086 98.1661 182.15 98.95 181.778 99.5523L181.697 99.6699C181.697 99.6703 181.696 99.6716 181.695 99.673C181.693 99.676 181.689 99.6811 181.684 99.6881C181.674 99.7023 181.657 99.7248 181.635 99.7547C181.591 99.8146 181.526 99.9053 181.441 100.024C181.273 100.261 181.03 100.609 180.738 101.045C180.155 101.919 179.383 103.137 178.627 104.517C177.869 105.902 177.143 107.422 176.636 108.901C176.123 110.401 175.874 111.746 175.96 112.82C175.982 113.092 175.934 113.366 175.821 113.614L174.355 112.949L175.82 113.614L175.82 113.615C175.819 113.616 175.819 113.618 175.818 113.62C175.816 113.624 175.814 113.629 175.81 113.637C175.803 113.652 175.793 113.675 175.779 113.705C175.752 113.765 175.711 113.855 175.658 113.971C175.552 114.204 175.396 114.548 175.196 114.987C174.796 115.865 174.221 117.128 173.52 118.666C172.118 121.742 170.211 125.918 168.194 130.319C164.167 139.108 159.682 148.83 157.905 152.449L157.906 152.449C155.835 156.672 156.555 159.716 157.974 161.866C159.473 164.138 161.87 165.568 163.252 166.126H163.251C166.048 167.255 168.884 167.241 171.069 166.918C172.155 166.758 173.059 166.525 173.685 166.333C173.998 166.238 174.239 166.154 174.398 166.095C174.477 166.066 174.535 166.043 174.571 166.029C174.588 166.022 174.601 166.017 174.607 166.015C174.608 166.014 174.609 166.014 174.61 166.013H174.611C174.612 166.013 174.613 166.013 174.613 166.013H174.612C175.43 165.669 176.373 166.051 176.719 166.868C177.066 167.686 176.683 168.63 175.865 168.977L175.237 167.495C175.851 168.943 175.864 168.976 175.864 168.977L175.863 168.978C175.862 168.978 175.861 168.979 175.86 168.979C175.858 168.98 175.855 168.981 175.852 168.982C175.846 168.985 175.839 168.988 175.83 168.991C175.812 168.998 175.788 169.008 175.759 169.02C175.699 169.044 175.616 169.076 175.511 169.114C175.301 169.192 175.002 169.296 174.626 169.411C173.876 169.64 172.813 169.914 171.54 170.102C169.006 170.476 165.546 170.522 162.046 169.109H162.045C160.272 168.393 157.253 166.619 155.286 163.637C153.239 160.534 152.443 156.277 155.015 151.033C156.767 147.463 161.23 137.789 165.267 128.979C167.283 124.581 169.189 120.407 170.59 117.332C171.291 115.795 171.866 114.532 172.265 113.654C172.465 113.215 172.621 112.873 172.727 112.639C172.727 112.639 172.727 112.638 172.728 112.637C172.684 111.063 173.061 109.406 173.59 107.859C174.177 106.148 174.992 104.454 175.803 102.973C176.616 101.488 177.44 100.186 178.061 99.2576C178.203 99.0451 178.334 98.8517 178.453 98.6794C177.989 97.7856 177.763 96.7902 177.663 95.852C177.517 94.4778 177.618 93.0249 177.797 91.7406C177.977 90.4462 178.246 89.2614 178.468 88.4047C178.58 87.9747 178.68 87.6227 178.754 87.3759C178.791 87.2524 178.821 87.1549 178.842 87.0868C178.853 87.0527 178.862 87.026 178.868 87.007C178.871 86.9976 178.873 86.9899 178.875 86.9843C178.876 86.9816 178.877 86.9792 178.878 86.9774C178.878 86.9766 178.878 86.9756 178.878 86.9749L178.879 86.9743C178.883 86.9753 178.96 87.0001 180.408 87.4771L178.879 86.973Z" fill="#977A67"/>
<path d="M204.121 157.02C204.999 156.88 205.824 157.478 205.964 158.355C206.47 161.525 205.475 164.039 204.113 165.864C202.014 168.677 198.382 169.799 195.064 168.922C192.131 168.148 189.02 167.877 186.613 167.805C185.416 167.769 184.408 167.783 183.702 167.806C183.35 167.817 183.073 167.831 182.888 167.841C182.795 167.846 182.724 167.851 182.679 167.854C182.656 167.855 182.639 167.856 182.629 167.857C182.624 167.857 182.62 167.857 182.618 167.857C182.617 167.857 182.617 167.857 182.616 167.857V167.858H182.617C181.731 167.926 180.957 167.263 180.889 166.377C180.821 165.491 181.484 164.718 182.371 164.65L182.474 165.998C182.377 164.729 182.371 164.654 182.371 164.65L182.372 164.649H182.379C182.384 164.649 182.39 164.648 182.398 164.647C182.414 164.646 182.436 164.645 182.464 164.643C182.521 164.639 182.603 164.634 182.708 164.628C182.917 164.617 183.22 164.601 183.6 164.589C184.36 164.565 185.436 164.551 186.71 164.589C189.245 164.665 192.625 164.951 195.886 165.811L195.887 165.812C198.017 166.375 200.269 165.632 201.532 163.94H201.532C202.476 162.676 203.129 161.02 202.784 158.862C202.644 157.984 203.243 157.159 204.121 157.02Z" fill="#977A67"/>
<path d="M145.127 96.9829C150.069 96.9829 155.945 98.5065 161.414 101.097C166.886 103.689 172.099 107.418 175.632 111.961C176.178 112.663 176.051 113.674 175.349 114.219C174.647 114.764 173.636 114.638 173.09 113.936C169.947 109.894 165.187 106.445 160.035 104.005C154.879 101.563 149.477 100.2 145.127 100.2H145.126C138.653 100.197 135.593 102.36 134.106 104.235C133.336 105.205 132.927 106.174 132.711 106.893C132.604 107.252 132.546 107.544 132.515 107.737C132.5 107.833 132.492 107.903 132.487 107.944C132.486 107.957 132.485 107.968 132.484 107.974V107.972L132.484 107.971C132.436 108.857 131.679 109.538 130.791 109.491C129.904 109.443 129.222 108.685 129.27 107.798L130.877 107.884C129.269 107.799 129.27 107.797 129.27 107.796C129.27 107.795 129.27 107.794 129.27 107.793C129.27 107.791 129.27 107.789 129.27 107.787C129.271 107.783 129.271 107.778 129.271 107.773C129.272 107.762 129.273 107.749 129.274 107.733C129.276 107.703 129.28 107.663 129.285 107.615C129.295 107.519 129.31 107.39 129.335 107.232C129.385 106.916 129.474 106.482 129.627 105.969C129.935 104.945 130.509 103.589 131.583 102.236C133.782 99.4625 137.846 96.9797 145.127 96.9829ZM132.484 107.974C132.484 107.975 132.484 107.976 132.484 107.977C132.484 107.979 132.484 107.981 132.484 107.982C132.483 107.983 132.483 107.983 132.484 107.981L132.484 107.974Z" fill="#977A67"/>
<path d="M218.336 111.723C222.736 110.01 229.016 108.573 236.522 109.677L236.522 109.678C240.285 110.232 243.188 111.912 245.134 113.431C246.11 114.193 246.856 114.922 247.364 115.467C247.618 115.74 247.813 115.969 247.949 116.134C248.016 116.216 248.069 116.283 248.107 116.332C248.126 116.356 248.141 116.376 248.152 116.391C248.158 116.398 248.163 116.404 248.167 116.41C248.169 116.412 248.171 116.415 248.172 116.416C248.173 116.417 248.173 116.418 248.174 116.419L248.174 116.42C248.171 116.423 248.109 116.47 247.104 117.211L248.176 116.421C248.704 117.136 248.551 118.143 247.836 118.671C247.12 119.198 246.112 119.046 245.584 118.331C245.581 118.326 245.574 118.317 245.565 118.306C245.544 118.279 245.509 118.235 245.461 118.176C245.364 118.058 245.211 117.88 245.006 117.659C244.594 117.216 243.972 116.607 243.153 115.967C241.561 114.724 239.264 113.396 236.338 112.905L236.053 112.861C229.219 111.855 223.509 113.162 219.504 114.721C217.501 115.501 215.931 116.342 214.869 116.981C214.339 117.301 213.937 117.57 213.672 117.754C213.54 117.847 213.443 117.918 213.381 117.964C213.35 117.987 213.329 118.004 213.316 118.013C213.311 118.017 213.307 118.019 213.304 118.021C212.606 118.571 211.594 118.453 211.044 117.755C210.493 117.057 210.612 116.045 211.31 115.495L212.235 116.667C211.345 115.539 211.312 115.496 211.312 115.494L211.313 115.493C211.314 115.492 211.315 115.492 211.317 115.491C211.319 115.489 211.322 115.486 211.326 115.483C211.334 115.477 211.344 115.469 211.356 115.46C211.381 115.441 211.415 115.415 211.458 115.383C211.545 115.319 211.668 115.229 211.828 115.117C212.147 114.895 212.61 114.586 213.207 114.226C214.401 113.507 216.136 112.579 218.336 111.723Z" fill="#977A67"/>
<path d="M157.779 111.449L158.122 111.459C161.651 111.614 164.572 113.518 166.534 115.242C167.565 116.148 168.38 117.047 168.939 117.72C169.22 118.058 169.438 118.342 169.589 118.545C169.664 118.646 169.723 118.728 169.764 118.787C169.785 118.816 169.802 118.839 169.813 118.856C169.819 118.865 169.824 118.872 169.828 118.878C169.83 118.88 169.831 118.883 169.832 118.885C169.833 118.886 169.834 118.886 169.834 118.887L169.835 118.888C169.833 118.891 169.777 118.929 168.587 119.732L169.835 118.889C170.333 119.625 170.139 120.625 169.402 121.123C168.666 121.619 167.667 121.427 167.169 120.692L167.164 120.685C167.158 120.677 167.148 120.663 167.135 120.643C167.107 120.604 167.062 120.542 167.003 120.461C166.883 120.3 166.701 120.063 166.462 119.775C165.982 119.197 165.283 118.427 164.408 117.658C162.623 116.09 160.3 114.696 157.742 114.667C151.95 114.602 148.245 115.872 146.037 117.075C144.928 117.679 144.181 118.274 143.725 118.697C143.497 118.909 143.342 119.079 143.25 119.184C143.205 119.237 143.175 119.274 143.16 119.293C143.153 119.302 143.15 119.308 143.15 119.308C143.15 119.308 143.15 119.306 143.152 119.303C143.153 119.302 143.155 119.301 143.156 119.299C143.157 119.298 143.157 119.297 143.158 119.296C143.158 119.295 143.159 119.294 143.159 119.294C143.159 119.294 143.159 119.294 143.159 119.293C142.647 120.019 141.645 120.194 140.918 119.684C140.19 119.173 140.015 118.17 140.526 117.443L141.8 118.337C140.573 117.476 140.528 117.443 140.527 117.441C140.527 117.441 140.528 117.439 140.528 117.439C140.529 117.437 140.531 117.436 140.532 117.434C140.534 117.431 140.537 117.427 140.539 117.423C140.545 117.416 140.551 117.407 140.559 117.396C140.574 117.376 140.594 117.35 140.617 117.319C140.665 117.258 140.729 117.178 140.812 117.083C140.977 116.892 141.215 116.636 141.534 116.34C142.174 115.746 143.138 114.989 144.497 114.249C147.139 112.81 151.214 111.465 157.194 111.447L157.779 111.449Z" fill="#977A67"/>
<path d="M212.39 199.177V199.178C213.157 198.73 214.141 198.988 214.591 199.753C215.041 200.519 214.784 201.505 214.018 201.954L213.203 200.567C214.018 201.955 214.017 201.955 214.017 201.956L214.015 201.956C214.014 201.957 214.013 201.958 214.012 201.958C214.01 201.959 214.008 201.961 214.005 201.962C214 201.965 213.995 201.968 213.989 201.971C213.977 201.978 213.962 201.986 213.946 201.995C213.911 202.014 213.868 202.038 213.813 202.065C213.705 202.12 213.557 202.19 213.367 202.271C212.987 202.432 212.442 202.635 211.721 202.833C210.279 203.229 208.144 203.605 205.237 203.605C202.322 203.605 197.872 202.994 193.754 202.31C189.598 201.619 185.649 200.829 183.682 200.433V200.432C183.048 200.305 182.414 200.448 181.948 200.798L181.947 200.799C181.705 200.98 181.459 201.194 181.086 201.503C180.74 201.79 180.325 202.124 179.855 202.434C178.908 203.059 177.664 203.639 176.116 203.617V203.617L176.116 203.617L176.115 203.617V203.617C174.554 203.595 173.311 203.052 172.323 202.462C171.838 202.172 171.395 201.858 171.021 201.594C170.627 201.316 170.322 201.102 170.033 200.933L170.025 200.929C169.39 200.553 168.647 200.364 167.88 200.382L155.469 202.702C154.595 202.866 153.754 202.29 153.59 201.417C153.427 200.543 154.002 199.703 154.876 199.539L167.407 197.197C167.48 197.183 167.554 197.175 167.628 197.171C169.025 197.106 170.43 197.432 171.658 198.156L171.658 198.155C172.09 198.408 172.513 198.708 172.878 198.966C173.264 199.238 173.611 199.482 173.975 199.7C174.683 200.123 175.365 200.389 176.16 200.4H176.162C176.835 200.41 177.445 200.168 178.081 199.749C178.402 199.537 178.71 199.293 179.031 199.026C179.324 198.784 179.688 198.47 180.013 198.226C181.182 197.348 182.645 197.022 184.04 197.23L184.318 197.278L184.319 197.279C186.28 197.674 190.184 198.454 194.282 199.136C198.417 199.823 202.622 200.387 205.237 200.387C207.863 200.387 209.71 200.048 210.867 199.73C211.447 199.571 211.856 199.417 212.105 199.311C212.23 199.257 212.315 199.217 212.362 199.193L212.39 199.177ZM212.397 199.175C212.396 199.176 212.394 199.176 212.392 199.177H212.39L212.397 199.175Z" fill="#977A67"/>
<path d="M160.584 204.392V204.391C160.583 204.39 160.582 204.389 160.581 204.388L160.593 204.399C160.612 204.415 160.647 204.444 160.699 204.486C160.804 204.569 160.978 204.7 161.227 204.866C161.726 205.198 162.525 205.669 163.665 206.166C165.942 207.158 169.6 208.264 174.966 208.563C181.827 208.945 187.702 208.1 191.857 207.16C193.932 206.69 195.574 206.198 196.689 205.827C197.246 205.641 197.672 205.485 197.954 205.378C198.094 205.325 198.199 205.283 198.267 205.256C198.3 205.242 198.325 205.232 198.34 205.226C198.347 205.223 198.353 205.221 198.355 205.22H198.357C199.175 204.873 200.119 205.254 200.466 206.072C200.814 206.89 200.432 207.834 199.614 208.181L198.985 206.7C199.596 208.14 199.613 208.18 199.613 208.182L199.612 208.182C199.611 208.183 199.61 208.183 199.609 208.184C199.606 208.185 199.603 208.186 199.6 208.187C199.593 208.19 199.583 208.194 199.572 208.199C199.548 208.209 199.514 208.223 199.47 208.24C199.384 208.275 199.26 208.324 199.099 208.385C198.778 208.508 198.31 208.679 197.708 208.879C196.503 209.281 194.758 209.803 192.567 210.298C188.325 211.258 182.393 212.122 175.461 211.809L174.787 211.775C169.052 211.456 165.018 210.266 162.378 209.115C161.06 208.54 160.095 207.978 159.443 207.544C159.118 207.328 158.872 207.144 158.699 207.007C158.612 206.939 158.544 206.882 158.494 206.839C158.469 206.817 158.449 206.799 158.433 206.785C158.425 206.777 158.417 206.771 158.411 206.766C158.409 206.763 158.406 206.761 158.403 206.759C158.402 206.758 158.401 206.757 158.4 206.756C158.4 206.755 158.399 206.754 158.399 206.754C158.402 206.749 158.461 206.684 159.493 205.574L158.397 206.753C157.746 206.148 157.709 205.13 158.314 204.479C158.918 203.83 159.933 203.791 160.584 204.392Z" fill="#977A67"/>
<path d="M171.571 222.649C174.278 221.769 177.534 221.793 179.984 221.992C181.234 222.093 182.326 222.245 183.107 222.372C183.497 222.436 183.812 222.493 184.032 222.535C184.141 222.556 184.227 222.573 184.287 222.586C184.317 222.592 184.341 222.597 184.357 222.601C184.366 222.603 184.373 222.604 184.377 222.605C184.38 222.605 184.382 222.606 184.383 222.606C184.384 222.606 184.385 222.606 184.386 222.606H184.386C184.387 222.607 184.387 222.607 184.045 224.179L184.387 222.607C185.256 222.795 185.807 223.652 185.619 224.52C185.43 225.388 184.574 225.939 183.705 225.751C183.705 225.751 183.704 225.751 183.703 225.751C183.701 225.751 183.698 225.75 183.693 225.749C183.682 225.747 183.664 225.743 183.64 225.738C183.593 225.728 183.52 225.714 183.423 225.695C183.231 225.658 182.947 225.606 182.59 225.548C181.873 225.432 180.869 225.292 179.723 225.199C177.383 225.009 174.65 225.032 172.567 225.709L172.566 225.709C170.619 226.344 168.962 227.539 167.766 228.622C167.175 229.158 166.713 229.65 166.402 230.005C166.246 230.182 166.13 230.324 166.055 230.418C166.017 230.465 165.99 230.499 165.973 230.521C165.965 230.531 165.96 230.539 165.957 230.543L165.956 230.543V230.544L165.955 230.545L165.853 230.67C165.303 231.273 164.375 231.373 163.705 230.878C162.991 230.349 162.841 229.341 163.37 228.627L164.664 229.585C163.37 228.627 163.37 228.627 163.371 228.627L163.371 228.626C163.372 228.625 163.372 228.625 163.373 228.624C163.374 228.623 163.375 228.621 163.376 228.619C163.379 228.615 163.383 228.61 163.387 228.605C163.396 228.593 163.407 228.578 163.422 228.559C163.45 228.522 163.49 228.471 163.541 228.407C163.643 228.28 163.79 228.101 163.979 227.886C164.357 227.455 164.906 226.871 165.605 226.238C166.99 224.983 169.036 223.476 171.569 222.65L171.571 222.649Z" fill="#977A67"/>
<path d="M228.045 111.378C228.045 111.378 227.143 120.15 233.692 119.706C238.914 119.352 238.386 111.797 238.386 111.797C238.386 111.797 233.299 110.297 228.045 111.378Z" fill="#977A67"/>
<path d="M152.654 113.399C152.654 113.399 151.753 122.171 158.302 121.727C163.524 121.373 162.996 113.817 162.996 113.817C162.996 113.817 157.909 112.318 152.654 113.399Z" fill="#977A67"/>
<path d="M333.674 111.848C323.552 107.916 311.626 131.779 311.626 131.759C311.337 127.84 314.028 123.921 317.248 120.819C325.625 112.756 326.018 109.879 326.018 109.879C326.018 109.879 328.285 65.7188 314.176 46.7342C303.783 32.7435 293.178 17.0281 261.175 8.32739C261.175 8.32739 295.052 31.9391 270.885 79.5936C259.791 101.474 256.326 103.488 256.326 103.488C256.326 103.488 282.907 115.349 277.595 138.349C273.513 156.021 244.858 179.704 244.858 179.704C244.858 179.704 254.839 188.507 229.597 244.92C226.513 246.278 211.876 256.594 209.139 257.354C188.894 263.01 177.697 259.188 177.697 259.188C177.697 259.188 170.304 260.752 170.671 261.125C182.797 273.526 193.363 299.178 205.688 310.408C207.497 312.055 217.24 310.659 217.24 310.659C252.031 298.309 306 237 306 237C306 237 303.552 231.475 303.5 223C303.418 209.5 304.5 193.5 304.5 193.5C304.5 193.5 311.298 193.115 318.645 189.151C326.121 185.109 331.601 167.56 336.759 158.512C340.996 151.079 351.679 118.843 333.674 111.855V111.848Z" fill="url(#paint0_linear_373_1946)"/>
<path d="M318.008 138.986C318.008 138.986 324.614 118.264 333.32 119.789C342.026 121.315 330.474 152.038 328.517 158.132C326.559 164.226 319.154 180.54 313.165 179.671C307.177 178.803 313.056 161.176 320.892 155.519" fill="url(#paint1_linear_373_1946)"/>
<path d="M326.153 120.972C328.167 119.085 330.704 117.698 333.598 118.205C335.259 118.496 336.42 119.518 337.125 120.89C337.795 122.191 338.067 123.812 338.126 125.511C338.245 128.925 337.513 133.271 336.483 137.618C334.419 146.332 330.997 155.671 330.049 158.624C329.036 161.779 326.646 167.495 323.732 172.342C322.278 174.76 320.645 177.046 318.929 178.691C317.275 180.276 315.202 181.592 312.934 181.263C311.731 181.089 310.776 180.465 310.131 179.529C309.521 178.644 309.239 177.561 309.141 176.471C308.944 174.299 309.432 171.6 310.314 168.893C312.07 163.501 315.647 157.321 319.95 154.215C320.671 153.695 321.677 153.857 322.197 154.577C322.718 155.297 322.555 156.303 321.834 156.823C318.301 159.374 315.02 164.836 313.375 169.889C312.556 172.404 312.207 174.628 312.347 176.182C312.417 176.956 312.598 177.436 312.782 177.704C312.932 177.92 313.102 178.036 313.396 178.079C314.123 178.184 315.22 177.787 316.7 176.368C318.119 175.008 319.582 172.998 320.972 170.685C323.748 166.068 326.039 160.58 326.983 157.64C327.992 154.499 331.325 145.429 333.35 136.877C334.365 132.591 335.011 128.589 334.909 125.623C334.857 124.133 334.619 123.056 334.261 122.361C333.94 121.736 333.557 121.464 333.042 121.374C331.584 121.119 330.03 121.75 328.356 123.319C326.693 124.879 325.147 127.156 323.81 129.59C322.484 132.005 321.414 134.481 320.674 136.362C320.304 137.3 320.019 138.084 319.827 138.631C319.731 138.905 319.659 139.119 319.611 139.263C319.587 139.335 319.569 139.39 319.557 139.425C319.552 139.443 319.547 139.457 319.544 139.465C319.543 139.469 319.542 139.472 319.542 139.474L319.541 139.475C319.271 140.322 318.366 140.789 317.519 140.52C316.672 140.25 316.204 139.344 316.474 138.498L318.007 138.987C316.48 138.5 316.474 138.498 316.474 138.497L316.474 138.496C316.475 138.495 316.475 138.494 316.476 138.492C316.477 138.489 316.478 138.484 316.48 138.478C316.484 138.467 316.489 138.45 316.496 138.429C316.51 138.386 316.53 138.324 316.557 138.245C316.61 138.087 316.688 137.857 316.789 137.567C316.993 136.987 317.292 136.164 317.678 135.183C318.448 133.227 319.574 130.617 320.987 128.042C322.391 125.486 324.13 122.869 326.153 120.972Z" fill="#977A67"/>
<path d="M307.552 194.665C308.012 193.905 305.073 194.283 305.833 194.743C306.594 195.203 306.837 196.192 306.377 196.952V196.953L306.375 196.956C306.373 196.959 306.371 196.964 306.367 196.969C306.36 196.981 306.348 197 306.334 197.024C303.854 198.085 306.26 197.146 305.342 193.734C305.227 193.926 305.057 194.21 304.839 194.578C304.401 195.313 306.118 199.089 305.342 200.424C303.79 203.093 303.242 203.492 300.938 207.718C296.315 216.198 291.037 226.598 288.254 234.516C287.959 235.354 287.04 235.795 286.201 235.5C285.363 235.206 284.922 234.287 285.216 233.449C288.093 225.266 293.482 214.67 298.111 206.179C300.432 201.921 302.576 198.168 304.139 195.48C304.921 194.135 306.419 196.563 306.861 195.82C307.082 195.448 307.254 195.161 307.371 194.965C307.43 194.868 305 194.307 307.505 194.743C305 193.931 306.195 194.319 306.203 194.307C306.207 194.3 307.547 194.674 307.549 194.67L307.551 194.667L307.552 194.665C307.552 194.665 303.623 195.286 305 196.119L307.552 194.665Z" fill="#977A67"/>
<path d="M228.695 181.364C229.432 180.866 230.432 181.059 230.93 181.795L229.822 182.544C230.872 181.834 230.927 181.797 230.931 181.796L230.932 181.797C230.932 181.798 230.933 181.799 230.933 181.799C230.934 181.801 230.936 181.804 230.938 181.806C230.942 181.812 230.946 181.818 230.951 181.826C230.962 181.843 230.977 181.866 230.995 181.894C231.031 181.95 231.081 182.028 231.143 182.129C231.266 182.33 231.437 182.62 231.638 182.992C232.041 183.734 232.569 184.806 233.088 186.155C234.126 188.847 235.143 192.672 235.044 197.185V197.186C234.918 202.868 232.815 209.455 230.818 214.511C229.81 217.063 228.811 219.27 228.063 220.841C227.689 221.627 227.378 222.256 227.158 222.689C227.049 222.906 226.962 223.074 226.902 223.189C226.872 223.246 226.849 223.29 226.833 223.321C226.825 223.336 226.819 223.348 226.815 223.356C226.813 223.36 226.811 223.364 226.81 223.366C226.809 223.367 226.808 223.368 226.808 223.368L226.807 223.37C226.39 224.154 225.416 224.453 224.63 224.036C223.845 223.62 223.547 222.645 223.964 221.861L223.968 221.853C223.971 221.847 223.976 221.838 223.983 221.825C223.996 221.799 224.017 221.759 224.044 221.707C224.099 221.601 224.181 221.443 224.285 221.237C224.494 220.824 224.794 220.22 225.156 219.459C225.88 217.938 226.849 215.798 227.824 213.329C229.792 208.345 231.713 202.199 231.825 197.114C231.913 193.121 231.011 189.719 230.084 187.311C229.62 186.109 229.154 185.163 228.808 184.525C228.635 184.206 228.492 183.965 228.396 183.808C228.348 183.73 228.312 183.672 228.289 183.637C228.278 183.619 228.269 183.607 228.265 183.601C228.263 183.597 228.262 183.595 228.261 183.595H228.262L228.262 183.596L228.263 183.597C227.766 182.861 227.959 181.861 228.695 181.364Z" fill="#977A67"/>
<path d="M232.49 240.342C233.21 239.821 234.216 239.981 234.738 240.701C235.26 241.42 235.099 242.426 234.38 242.948C219.791 253.516 209.127 258.233 200.263 260.163C191.415 262.088 184.451 261.2 177.602 260.794C170.926 260.399 165.586 256.047 162.029 252.07C160.228 250.056 158.823 248.07 157.869 246.59C157.391 245.849 157.024 245.23 156.774 244.793C156.649 244.575 156.554 244.402 156.488 244.281C156.455 244.22 156.43 244.173 156.412 244.139C156.403 244.123 156.396 244.109 156.391 244.1C156.389 244.095 156.387 244.091 156.385 244.088L156.382 244.083C156.382 244.083 156.382 244.082 157.812 243.344L156.382 244.082C155.974 243.293 156.284 242.322 157.074 241.914C157.863 241.507 158.834 241.816 159.242 242.605C159.243 242.605 159.244 242.607 159.245 242.61C159.248 242.615 159.252 242.623 159.258 242.635C159.271 242.659 159.291 242.697 159.318 242.747C159.373 242.848 159.457 243.001 159.569 243.197C159.794 243.59 160.132 244.16 160.576 244.848C161.464 246.227 162.769 248.069 164.43 249.926C167.799 253.693 172.401 257.263 177.792 257.582H177.792C184.839 258 191.268 258.827 199.578 257.018C207.871 255.213 218.128 250.747 232.49 240.342Z" fill="#977A67"/>
<path d="M273.484 227.831C273.97 227.087 274.967 226.876 275.712 227.362C276.457 227.847 276.667 228.844 276.181 229.588C274.596 232.018 271.689 234.857 267.849 237.8C263.98 240.766 259.067 243.911 253.37 246.933C241.979 252.975 227.373 258.564 211.583 261.212C200.707 263.036 189.581 262.927 181.203 262.371C177.008 262.093 173.486 261.701 171.01 261.378C169.772 261.217 168.795 261.073 168.125 260.969C167.789 260.916 167.531 260.874 167.355 260.845C167.267 260.83 167.2 260.818 167.154 260.81C167.131 260.806 167.113 260.804 167.101 260.801C167.095 260.8 167.09 260.799 167.086 260.799C167.085 260.799 167.083 260.798 167.082 260.798L167.081 260.798C167.081 260.794 167.094 260.72 167.362 259.214L167.08 260.798C166.205 260.642 165.621 259.807 165.777 258.932C165.932 258.057 166.768 257.474 167.644 257.63L167.645 257.63C167.647 257.631 167.651 257.631 167.656 257.632C167.666 257.634 167.681 257.636 167.701 257.64C167.741 257.647 167.803 257.657 167.886 257.671C168.05 257.698 168.297 257.739 168.62 257.789C169.266 257.89 170.217 258.03 171.427 258.188C173.847 258.503 177.3 258.888 181.417 259.161C189.663 259.709 200.515 259.806 211.05 258.039C226.451 255.455 240.728 249.995 251.86 244.091C257.425 241.139 262.183 238.088 265.889 235.247C269.623 232.385 272.194 229.809 273.484 227.831Z" fill="#977A67"/>
<path d="M165.99 258.371C166.456 257.614 167.447 257.377 168.204 257.842V257.843C168.205 257.843 168.206 257.843 168.206 257.844C168.208 257.844 168.21 257.846 168.214 257.849C168.221 257.853 168.233 257.86 168.249 257.87C168.281 257.889 168.329 257.918 168.393 257.957C168.521 258.034 168.713 258.148 168.963 258.295C169.463 258.59 170.199 259.017 171.132 259.538C172.998 260.583 175.651 262.007 178.788 263.526C185.084 266.575 193.239 269.956 200.876 271.438C201.749 271.608 202.319 272.452 202.149 273.324C201.98 274.197 201.135 274.766 200.262 274.597C192.22 273.036 183.771 269.515 177.384 266.422C174.179 264.87 171.469 263.415 169.559 262.346C168.604 261.812 167.848 261.374 167.328 261.068C167.069 260.915 166.869 260.796 166.732 260.714C166.664 260.673 166.611 260.64 166.576 260.619C166.558 260.608 166.544 260.6 166.535 260.594C166.53 260.591 166.527 260.589 166.524 260.587C166.523 260.587 166.522 260.586 166.521 260.585L166.52 260.585C166.519 260.585 166.519 260.584 167.362 259.214L166.519 260.584C165.762 260.119 165.525 259.128 165.99 258.371Z" fill="#977A67"/>
<path d="M218.238 311.843C218.238 311.843 287.653 261.273 307.486 237.011L308.819 234.946L353.366 267.702L251.297 391.604L218.238 311.843Z" fill="#FFF9EC"/>
<path d="M308.528 233.363C308.965 233.283 309.415 233.387 309.773 233.65L354.32 266.406C354.676 266.668 354.909 267.065 354.963 267.503C355.018 267.941 354.89 268.383 354.609 268.725L252.54 392.626C252.181 393.062 251.619 393.278 251.06 393.195C250.501 393.111 250.026 392.741 249.81 392.219L216.751 312.458C216.467 311.772 216.689 310.98 217.29 310.543L218.238 311.843C217.29 310.543 217.29 310.542 217.291 310.542C217.291 310.542 217.292 310.541 217.293 310.541C217.295 310.539 217.298 310.537 217.302 310.534C217.31 310.528 217.323 310.519 217.34 310.507C217.373 310.483 217.422 310.446 217.488 310.398C217.619 310.302 217.815 310.159 218.07 309.972C218.582 309.597 219.336 309.042 220.303 308.328C222.237 306.901 225.022 304.833 228.427 302.276C235.238 297.161 244.523 290.09 254.426 282.263C274.254 266.592 296.373 248.03 306.185 236.058L307.466 234.074L307.563 233.939C307.804 233.639 308.146 233.433 308.528 233.363ZM308.839 237.883C308.806 237.933 308.771 237.983 308.733 238.029C298.685 250.321 276.225 269.136 256.423 284.787C246.494 292.635 237.186 299.723 230.361 304.848C226.949 307.411 224.156 309.484 222.216 310.916C221.384 311.531 220.709 312.026 220.209 312.393L251.758 388.513L351.042 267.991L309.243 237.255L308.839 237.883Z" fill="#977A67"/>
<path d="M175.861 265.405L170.961 271.499L147.014 377.021L204.49 311.528C204.49 311.528 187.993 287.832 175.861 265.398V265.405Z" fill="#FFF9EC"/>
<path d="M175.466 263.838C176.181 263.658 176.927 263.985 177.277 264.633C183.315 275.798 190.447 287.291 196.078 296.002C198.891 300.356 201.326 304.01 203.058 306.575C203.923 307.857 204.612 308.867 205.085 309.555C205.321 309.899 205.504 310.164 205.626 310.341C205.688 310.43 205.734 310.497 205.765 310.542C205.781 310.564 205.793 310.581 205.801 310.592C205.804 310.598 205.807 310.602 205.809 310.605C205.81 310.606 205.811 310.607 205.811 310.608V310.608C205.808 310.611 205.742 310.657 204.49 311.527L205.812 310.608C206.235 311.215 206.188 312.032 205.701 312.588L148.224 378.082C147.738 378.636 146.939 378.789 146.282 378.454C145.626 378.12 145.281 377.383 145.443 376.666L169.391 271.143L169.414 271.054C169.473 270.849 169.572 270.658 169.706 270.491L174.547 264.471C174.763 264.166 175.083 263.935 175.466 263.838ZM172.449 272.217L149.987 371.192L202.453 311.409C202.445 311.398 202.438 311.387 202.43 311.376C201.953 310.681 201.259 309.664 200.388 308.374C198.647 305.795 196.2 302.123 193.373 297.748C188.077 289.553 181.436 278.876 175.606 268.29L172.449 272.217Z" fill="#977A67"/>
<path d="M196.139 87.6711C196.138 87.6741 196.138 87.6797 196.137 87.6875C196.135 87.7031 196.132 87.7285 196.129 87.7629C196.121 87.832 196.11 87.9379 196.098 88.0771C196.073 88.356 196.041 88.768 196.016 89.2844C195.967 90.3193 195.946 91.7644 196.061 93.3977C196.259 96.2212 196.851 99.4418 198.263 102.092C198.792 101.754 199.462 101.34 200.259 100.873C202.433 99.5977 205.566 97.9237 209.418 96.3131C217.106 93.0983 227.746 90.1007 239.384 91.1258H239.385C244.773 91.6035 249.105 94.2859 252.038 96.7599C253.513 98.0042 254.662 99.2185 255.444 100.125C255.835 100.579 256.137 100.957 256.344 101.227C256.447 101.362 256.527 101.47 256.583 101.546C256.61 101.584 256.632 101.615 256.648 101.637C256.656 101.648 256.662 101.656 256.667 101.663C256.669 101.667 256.671 101.67 256.673 101.672C256.673 101.673 256.675 101.674 256.675 101.675L256.676 101.676C256.676 101.676 256.676 101.677 255.469 102.514L256.676 101.677C257.183 102.407 257.002 103.41 256.271 103.916C255.541 104.423 254.538 104.241 254.031 103.511V103.51C254.029 103.508 254.027 103.505 254.023 103.5C254.015 103.488 254 103.468 253.98 103.44C253.939 103.384 253.875 103.297 253.789 103.185C253.616 102.959 253.353 102.629 253.005 102.226C252.309 101.42 251.281 100.331 249.962 99.2185C247.307 96.9786 243.583 94.7284 239.1 94.3309V94.3303C228.163 93.3671 218.066 96.1847 210.66 99.2813C206.965 100.826 203.963 102.432 201.888 103.649C200.851 104.256 200.048 104.766 199.508 105.12C199.238 105.298 199.034 105.436 198.899 105.529C198.832 105.575 198.783 105.61 198.751 105.633C198.735 105.644 198.723 105.652 198.716 105.657C198.713 105.659 198.711 105.661 198.709 105.662C198.361 105.913 197.926 106.015 197.503 105.944C197.079 105.874 196.701 105.636 196.453 105.286C193.932 101.721 193.096 97.1452 192.849 93.6227C192.723 91.8357 192.746 90.2608 192.8 89.131C192.827 88.5652 192.862 88.1083 192.891 87.7893C192.905 87.6299 192.918 87.5046 192.927 87.4172C192.932 87.3736 192.936 87.3392 192.939 87.3148C192.941 87.3026 192.941 87.2924 192.942 87.2852C192.943 87.2818 192.943 87.2787 192.944 87.2765C192.944 87.2754 192.943 87.2741 192.944 87.2733L192.944 87.2727C192.949 87.2728 193.03 87.2823 194.541 87.4706L192.944 87.2714C193.054 86.3898 193.859 85.7644 194.741 85.8744C195.623 85.9843 196.248 86.7873 196.139 87.6686C196.139 87.669 196.139 87.6699 196.139 87.6711Z" fill="#977A67"/>
<path d="M215.261 98.2296C221.876 94.6016 231.001 91.0568 241.024 91.3649C241.913 91.3922 242.611 92.1341 242.584 93.0222C242.557 93.9103 241.814 94.6081 240.925 94.5808C231.695 94.2969 223.155 97.5703 216.81 101.05C213.649 102.784 211.062 104.554 209.244 105.92C208.336 106.603 207.624 107.182 207.132 107.602C206.886 107.812 206.699 107.979 206.573 108.096C206.393 108.262 206.427 108.246 206.506 108.141C205.972 108.852 204.963 108.996 204.252 108.463C203.541 107.93 203.397 106.921 203.93 106.21C204.062 106.035 204.271 105.841 204.383 105.737C204.549 105.584 204.77 105.387 205.041 105.155C205.585 104.691 206.349 104.07 207.309 103.349C209.227 101.907 211.944 100.049 215.261 98.2296Z" fill="#977A67"/>
<path opacity="0.3" d="M163.601 25.6968C163.601 25.6968 178.147 29.9507 198.985 28.2453C219.822 26.5399 256.803 11.6096 281.355 30.5106C310.712 53.1119 311.697 93.4493 311.697 105.767V128.091C311.697 128.091 312.972 120.633 326.018 109.879C326.018 109.879 326.585 92.9538 325.026 81.2412C323.494 69.7346 320.603 58.2924 317.512 51.9084C311.678 39.8484 287.84 5.79841 230.176 3.44947C184.947 1.60893 163.608 25.6968 163.608 25.6968H163.601Z" fill="#8D7E77"/>
<path d="M330.861 111.423C330.857 111.424 330.851 111.427 330.843 111.429C330.819 111.437 330.775 111.452 330.712 111.475C330.586 111.52 330.384 111.597 330.115 111.716C329.578 111.953 328.77 112.355 327.757 112.994C325.734 114.272 322.878 116.509 319.715 120.298C316.902 123.671 315.267 126.662 314.339 128.782C313.875 129.842 313.588 130.686 313.419 131.252C313.335 131.535 313.28 131.748 313.247 131.884C313.231 131.952 313.22 132.001 313.214 132.029C313.211 132.043 313.209 132.052 313.209 132.056C313.209 132.056 313.209 132.055 313.209 132.054V132.054C313.209 132.054 313.209 132.053 313.209 132.053C313.047 132.926 312.207 133.503 311.333 133.341C310.459 133.18 309.882 132.34 310.044 131.467L311.627 131.76C310.044 131.467 310.044 131.466 310.044 131.465L310.044 131.464C310.045 131.463 310.044 131.462 310.044 131.461C310.045 131.459 310.046 131.456 310.046 131.453C310.047 131.447 310.049 131.439 310.051 131.431C310.054 131.414 310.059 131.391 310.065 131.364C310.076 131.308 310.093 131.231 310.116 131.135C310.162 130.944 310.232 130.673 310.334 130.331C310.538 129.648 310.87 128.68 311.389 127.493C312.429 125.116 314.22 121.861 317.241 118.238V118.238C320.62 114.189 323.731 111.731 326.037 110.274C327.19 109.547 328.138 109.07 328.816 108.772C329.154 108.622 329.425 108.517 329.619 108.447C329.716 108.412 329.795 108.386 329.853 108.368C329.881 108.358 329.905 108.351 329.924 108.345C329.933 108.342 329.941 108.34 329.948 108.338C329.951 108.337 329.954 108.336 329.957 108.335C329.958 108.334 329.96 108.334 329.961 108.334H329.963C329.963 108.333 329.964 108.333 330.374 109.755L329.965 108.333C330.819 108.087 331.711 108.58 331.957 109.434C332.202 110.287 331.71 111.178 330.857 111.424H330.858C330.859 111.424 330.86 111.424 330.861 111.424V111.423Z" fill="#977A67"/>
</g>
<defs>
<linearGradient id="paint0_linear_373_1946" x1="358.136" y1="177.821" x2="192.614" y2="96.6692" gradientUnits="userSpaceOnUse">
<stop stop-color="#E5AB85"/>
<stop offset="1" stop-color="#FFC29B"/>
</linearGradient>
<linearGradient id="paint1_linear_373_1946" x1="320.617" y1="176.778" x2="338.249" y2="102.753" gradientUnits="userSpaceOnUse">
<stop stop-color="#D79C76"/>
<stop offset="1" stop-color="#F3BF9D"/>
</linearGradient>
<clipPath id="clip0_373_1946">
<rect width="544" height="537" fill="white" transform="translate(-44)"/>
</clipPath>
</defs>
</svg>
