<svg width="477" height="531" viewBox="0 0 477 531" fill="none" xmlns="http://www.w3.org/2000/svg">
<g clip-path="url(#clip0_373_2030)">
<path d="M-12.0806 442.402C-12.0806 442.402 1.68869 350.845 99.5701 342.97C197.445 335.095 335.163 323.279 335.163 323.279C335.163 323.279 402.543 347.396 449.763 430.586C496.978 513.776 485.177 581.701 485.177 581.701C485.177 581.701 77.435 662.429 -12.0806 532.479C-12.0806 532.479 -17.4902 494.576 -12.0806 442.402Z" fill="#977A67"/>
<path d="M194.822 13.174C194.822 13.174 188.098 8.24515 170.561 13.174C144.107 20.6127 98.098 78.8071 80.064 140.499C62.03 202.192 73.1763 250.759 73.1763 250.759C73.1763 250.759 43.0086 276.028 41.373 307.856C39.7314 339.684 49.5692 362 83.0141 371.846C116.459 381.692 171.573 339.436 171.573 339.436L214.498 325.577L194.822 13.174Z" fill="#392419"/>
<path d="M170.479 12.882C179.283 10.4076 185.393 10.4019 189.316 11.0259C191.277 11.3379 192.689 11.807 193.616 12.2017C194.08 12.399 194.422 12.5776 194.65 12.7085C194.764 12.774 194.85 12.828 194.908 12.866C194.937 12.8849 194.96 12.8997 194.975 12.9104C194.983 12.9158 194.989 12.9203 194.994 12.9234C194.996 12.9249 194.998 12.926 194.999 12.927C195 12.9275 195 12.9284 195.001 12.9288C195.001 12.9289 195.001 12.9306 194.85 13.1366L195.002 12.9293L195.116 13.0134L214.8 325.557L214.816 325.793L214.591 325.865L171.715 339.708C171.688 339.728 171.649 339.759 171.597 339.799C171.491 339.879 171.333 339.997 171.127 340.151C170.714 340.459 170.104 340.909 169.317 341.478C167.742 342.616 165.455 344.23 162.607 346.136C156.911 349.948 148.967 354.929 139.975 359.602C130.984 364.274 120.938 368.644 111.038 371.228C101.142 373.812 91.3647 374.62 82.929 372.137C66.1522 367.198 55.2595 359.119 48.7766 348.25C42.2985 337.389 40.2483 323.784 41.0707 307.84C41.893 291.839 49.884 277.506 57.6461 267.19C61.5295 262.028 65.3617 257.864 68.223 254.99C69.6537 253.553 70.8422 252.438 71.6736 251.682C72.0892 251.304 72.4157 251.016 72.6385 250.822C72.7204 250.751 72.7882 250.692 72.8414 250.646C72.8211 250.553 72.7933 250.424 72.7592 250.26C72.6815 249.887 72.5702 249.333 72.435 248.607C72.1646 247.154 71.7992 245.011 71.4169 242.248C70.6524 236.721 69.8211 228.711 69.5546 218.772C69.0216 198.894 70.7459 171.297 79.7735 140.414C88.8018 109.53 104.83 79.5264 121.911 56.312C130.452 44.7044 139.261 34.7879 147.594 27.3054C155.923 19.8282 163.8 14.7603 170.479 12.882ZM189.221 11.6251C185.397 11.0169 179.376 11.0112 170.643 13.4657C164.095 15.3069 156.301 20.303 147.999 27.7571C139.703 35.206 130.921 45.0891 122.399 56.6714C105.354 79.8369 89.3608 109.777 80.3551 140.584C71.3487 171.394 69.6287 198.927 70.1604 218.756C70.4262 228.67 71.2549 236.657 72.0168 242.164C72.3977 244.918 72.762 247.052 73.0307 248.496C73.1651 249.218 73.2757 249.768 73.3525 250.136C73.3909 250.321 73.421 250.46 73.4413 250.553C73.4514 250.599 73.4592 250.634 73.4644 250.657C73.4669 250.668 73.4684 250.677 73.4697 250.683C73.4703 250.686 73.4711 250.688 73.4715 250.689V250.69L73.472 250.691L73.5135 250.872L73.3709 250.991L73.3697 250.992C73.3689 250.993 73.3677 250.994 73.3662 250.995C73.3627 250.998 73.3573 251.003 73.3502 251.009C73.336 251.021 73.3144 251.039 73.2863 251.063C73.2299 251.111 73.1458 251.183 73.0361 251.279C72.8162 251.47 72.493 251.756 72.0807 252.131C71.2559 252.881 70.0749 253.989 68.6519 255.419C65.8056 258.277 61.993 262.42 58.13 267.554C50.3996 277.829 42.4892 292.045 41.6759 307.871C40.8566 323.756 42.9049 337.223 49.2966 347.939C55.6834 358.647 66.4321 366.649 83.1 371.555C91.3867 373.995 101.041 373.212 110.885 370.642C120.725 368.073 130.728 363.724 139.696 359.064C148.663 354.404 156.587 349.435 162.27 345.632C165.112 343.73 167.393 342.121 168.962 340.986C169.747 340.419 170.354 339.971 170.765 339.665C170.97 339.512 171.126 339.394 171.231 339.315L171.379 339.202C171.382 339.2 171.385 339.198 171.387 339.197C171.387 339.196 171.388 339.196 171.388 339.195C171.39 339.196 171.402 339.212 171.573 339.436L171.388 339.195L171.43 339.163L171.48 339.147L214.181 325.36L194.53 13.3444C194.484 13.3153 194.424 13.2779 194.349 13.2348C194.141 13.1155 193.82 12.9472 193.379 12.7594C192.497 12.3841 191.133 11.9292 189.221 11.6251Z" fill="#564234"/>
<path d="M190.557 59.1157C173.184 59.5219 153.175 65.0206 142.356 86.3547C131.537 107.683 121.372 135.576 122.353 140.827C123.334 146.077 129.895 163.798 129.895 163.798C129.895 163.798 123.334 186.441 124.649 197.269C125.964 208.097 152.194 264.211 152.848 266.837C153.502 269.462 159.36 282.514 169.24 284.23C172.99 284.879 177.109 284.23 177.109 284.23C177.109 284.23 190.551 304.903 197.439 310.481C197.439 310.481 196.458 325.576 197.439 330.827C197.439 330.827 138.418 349.53 116.447 361.345C116.447 361.345 126.812 370.821 145.276 386.808C182.688 419.194 237.802 421.413 277.208 391.488C277.62 391.173 278.026 390.864 278.425 390.549L258.75 246.654C258.75 246.654 279.407 217.942 280.061 172.328C280.715 126.713 246.943 57.8002 190.545 59.1157H190.557Z" fill="#BF835B"/>
<path d="M192.514 57.103C192.514 57.103 226.026 59.1037 237.778 85.3727C246.677 105.264 238.432 134.267 238.432 134.267C238.432 134.267 251.22 129.672 256.793 139.19C262.366 148.708 268.267 189.727 261.058 229.758C253.843 269.795 228.922 310.487 239.086 347.565C249.251 384.644 304.008 418.776 361.066 388.912C361.066 388.912 414.186 402.062 443.366 373.337C472.547 344.613 474.843 318.689 467.628 286.528C460.413 254.366 430.578 182.501 415.161 155.595C399.75 128.683 331.195 10.8762 264.002 2.67354C216.951 -3.06768 192.508 14.3803 192.508 14.3803V57.097L192.514 57.103Z" fill="#392419"/>
<path d="M210.171 4.92371C222.163 1.2795 239.875 -1.63617 263.076 1.03753L264.185 1.16897L264.991 1.27257C281.904 3.55149 298.763 12.5461 314.734 25.0497C330.972 37.7633 346.403 54.1928 360.175 71.1629C387.721 105.104 408.762 141.373 416.475 154.841L417.213 156.143C424.943 169.933 435.901 193.946 445.874 218.52C456.165 243.878 465.469 269.984 469.105 286.196C472.737 302.384 474.013 317.162 470.619 331.569C467.22 345.998 459.174 359.903 444.428 374.418C429.429 389.183 408.377 393.106 391.3 393.412C382.736 393.565 375.1 392.81 369.605 392.018C366.857 391.622 364.641 391.215 363.107 390.907C362.34 390.753 361.743 390.623 361.336 390.531C361.312 390.525 361.289 390.52 361.267 390.515C303.552 420.357 248.023 385.89 237.626 347.966C232.425 328.994 236.227 309.201 242.103 289.341C248.021 269.335 255.978 249.407 259.567 229.489C263.144 209.624 263.471 189.493 262.208 173.149C261.577 164.978 260.551 157.774 259.342 152.04C258.124 146.256 256.749 142.112 255.486 139.956C253.072 135.833 249.111 134.712 245.506 134.674C243.706 134.656 242.052 134.913 240.841 135.178C240.239 135.31 239.753 135.443 239.423 135.541C239.258 135.59 239.133 135.63 239.051 135.657C239.01 135.671 238.98 135.681 238.962 135.687C238.953 135.69 238.947 135.692 238.944 135.693H238.942L238.942 135.694H238.942C238.408 135.885 237.812 135.762 237.398 135.374C236.983 134.986 236.82 134.399 236.975 133.852C236.975 133.852 236.976 133.851 236.976 133.85C236.977 133.847 236.978 133.843 236.98 133.837C236.983 133.825 236.989 133.805 236.996 133.779C237.01 133.728 237.032 133.648 237.06 133.544C237.116 133.334 237.198 133.021 237.3 132.614C237.504 131.799 237.786 130.608 238.099 129.114C238.724 126.125 239.467 121.933 239.935 117.132C240.876 107.478 240.682 95.5739 236.396 85.9918C230.746 73.3642 219.843 66.509 210.196 62.802C205.383 60.9523 200.922 59.9034 197.666 59.3178C196.04 59.0253 194.717 58.8492 193.807 58.7465C193.352 58.6952 193.001 58.6623 192.765 58.6423C192.648 58.6324 192.56 58.6251 192.502 58.621C192.474 58.6189 192.453 58.6177 192.439 58.6169C192.433 58.6164 192.428 58.6164 192.425 58.6163C192.424 58.6162 192.424 58.6157 192.423 58.6157L192.424 58.6151C192.054 58.593 191.704 58.4363 191.442 58.1734L191.436 58.1675C191.153 57.8834 190.994 57.4984 190.994 57.0971V14.3804C190.994 13.8907 191.23 13.4311 191.628 13.1466L192.508 14.3804C191.669 13.2026 191.631 13.1484 191.63 13.1454C191.631 13.1452 191.632 13.1442 191.633 13.1437C191.634 13.1425 191.636 13.1411 191.638 13.1395C191.643 13.1362 191.649 13.1318 191.657 13.1265C191.672 13.1157 191.694 13.1009 191.721 13.0821C191.776 13.0444 191.855 12.9903 191.957 12.9222C192.163 12.7861 192.464 12.5918 192.859 12.3491C193.651 11.8638 194.824 11.1853 196.374 10.3936C199.474 8.81027 204.082 6.77396 210.171 4.92371ZM263.818 4.17715C240.514 1.33363 222.853 4.23755 211.051 7.82414C205.148 9.61819 200.705 11.5852 197.751 13.0939C196.274 13.8483 195.17 14.4882 194.441 14.9346C194.284 15.0309 194.145 15.1182 194.023 15.1957V55.7206C194.063 55.7251 194.105 55.7294 194.147 55.7342C195.115 55.8435 196.503 56.029 198.202 56.3345C201.596 56.945 206.249 58.038 211.282 59.972C221.329 63.8327 233.057 71.1121 239.16 84.7533C243.772 95.0622 243.906 107.605 242.949 117.426C242.468 122.362 241.706 126.665 241.064 129.735C240.871 130.654 240.688 131.463 240.528 132.147C241.856 131.874 243.612 131.623 245.538 131.643C249.721 131.687 254.941 133.028 258.1 138.423C259.624 141.026 261.076 145.579 262.306 151.415C263.546 157.3 264.589 164.637 265.228 172.915C266.507 189.467 266.179 209.862 262.548 230.027C258.922 250.147 250.811 270.583 245.007 290.202C239.159 309.967 235.583 329.058 240.547 347.164C250.45 383.288 304.141 416.996 360.364 387.569L360.489 387.51C360.786 387.388 361.115 387.363 361.429 387.44H361.429L361.43 387.441C361.431 387.441 361.433 387.442 361.435 387.442C361.44 387.443 361.449 387.445 361.46 387.448C361.483 387.454 361.519 387.462 361.567 387.474C361.663 387.496 361.809 387.531 362.002 387.574C362.387 387.661 362.961 387.785 363.703 387.935C365.189 388.233 367.35 388.63 370.037 389.018C375.415 389.793 382.883 390.53 391.246 390.38C408.025 390.08 428.124 386.216 442.304 372.257C456.739 358.048 464.431 344.628 467.671 330.873C470.916 317.098 469.733 302.833 466.15 286.86C462.572 270.91 453.351 245.002 443.067 219.661C432.786 194.328 421.504 169.711 413.847 156.349V156.349C406.149 142.906 385.207 106.815 357.824 73.074C344.132 56.2031 328.862 39.9606 312.867 27.4374C296.857 14.9027 280.231 6.18137 263.818 4.17774V4.17715Z" fill="#392419"/>
<path d="M46.6191 343.479C46.6191 343.479 59.7281 371.033 92.8399 373.319C119.67 375.174 156.786 368.239 177.443 318.689" fill="#392419"/>
<path d="M176.045 318.106C176.367 317.333 177.254 316.968 178.026 317.291C178.798 317.613 179.163 318.501 178.84 319.273C168.388 344.345 153.71 358.758 138.139 366.633C123.086 374.247 107.332 375.684 94.0164 374.913L92.7356 374.831C75.7437 373.659 63.8685 365.992 56.2601 358.632C52.4596 354.955 49.7191 351.352 47.9253 348.662C47.0279 347.316 46.3658 346.196 45.9252 345.407C45.7049 345.012 45.5393 344.7 45.4277 344.483C45.3719 344.375 45.3298 344.29 45.3005 344.23C45.2859 344.201 45.2743 344.178 45.2662 344.161C45.2621 344.153 45.2591 344.146 45.2567 344.141C45.2555 344.138 45.2546 344.136 45.2538 344.134C45.2534 344.134 45.2528 344.133 45.2526 344.133C45.2522 344.132 45.2518 344.131 46.6191 343.479L45.252 344.131C44.8925 343.375 45.2128 342.471 45.9678 342.111C46.7226 341.751 47.6257 342.072 47.9857 342.827L47.991 342.837C47.9957 342.847 48.0041 342.864 48.0152 342.886C48.0376 342.932 48.0729 343.002 48.1211 343.095C48.2177 343.283 48.3662 343.565 48.569 343.928C48.9746 344.655 49.5953 345.706 50.4443 346.979C52.1432 349.527 54.7493 352.955 58.3649 356.453C65.5889 363.441 76.8241 370.695 92.9439 371.807H92.9445C106.194 372.723 121.882 371.46 136.773 363.928C151.632 356.412 165.84 342.583 176.045 318.106Z" fill="#564234"/>
<path d="M177.906 199.485C178.244 198.722 179.136 198.376 179.9 198.712C180.665 199.049 181.013 199.944 180.676 200.71L179.29 200.1L180.676 200.712L180.673 200.717C180.672 200.719 180.672 200.721 180.67 200.724C180.668 200.729 180.665 200.735 180.662 200.743C180.655 200.757 180.647 200.775 180.637 200.795C180.617 200.837 180.59 200.89 180.556 200.955C180.488 201.084 180.391 201.258 180.26 201.461C180.001 201.864 179.606 202.396 179.048 202.928C177.916 204.008 176.122 205.078 173.553 205.078C171.143 205.078 169.043 204.346 167.35 203.644C166.926 203.468 166.518 203.29 166.141 203.126C165.759 202.959 165.412 202.808 165.083 202.674C164.407 202.398 163.916 202.242 163.54 202.19C163.032 202.12 162.808 202.191 162.734 202.23C162.566 202.986 161.848 203.504 161.065 203.404C160.235 203.299 159.648 202.54 159.753 201.71L161.247 201.899C159.754 201.71 159.754 201.709 159.754 201.708C159.754 201.707 159.754 201.706 159.754 201.705C159.754 201.704 159.754 201.702 159.755 201.701C159.755 201.697 159.756 201.694 159.756 201.691C159.757 201.684 159.758 201.677 159.759 201.669C159.762 201.654 159.764 201.636 159.768 201.618C159.774 201.58 159.783 201.535 159.795 201.485C159.819 201.385 159.856 201.258 159.912 201.115C160.023 200.831 160.218 200.463 160.559 200.116C161.301 199.358 162.441 198.979 163.952 199.187C164.723 199.293 165.506 199.573 166.225 199.866C166.593 200.016 166.974 200.182 167.351 200.346C167.733 200.513 168.114 200.68 168.509 200.843C170.091 201.499 171.747 202.046 173.553 202.046C175.2 202.046 176.275 201.385 176.958 200.734C177.307 200.401 177.555 200.067 177.713 199.821C177.791 199.7 177.845 199.603 177.876 199.543C177.892 199.513 177.902 199.492 177.907 199.483L177.907 199.482C177.907 199.482 177.907 199.484 177.906 199.485ZM162.741 202.189C162.741 202.188 162.742 202.187 162.742 202.187C162.744 202.177 162.747 202.165 162.75 202.15C162.751 202.142 162.752 202.133 162.754 202.124C162.755 202.119 162.756 202.114 162.756 202.108C162.757 202.106 162.757 202.103 162.757 202.1L162.741 202.189Z" fill="#564234"/>
<path d="M197.282 125.858C204.129 125.858 210.969 127.419 216.06 128.957C218.613 129.729 220.745 130.501 222.242 131.081C222.99 131.371 223.581 131.614 223.987 131.785C224.19 131.871 224.347 131.939 224.454 131.985C224.508 132.009 224.55 132.027 224.578 132.04C224.593 132.046 224.604 132.051 224.611 132.055C224.615 132.057 224.619 132.058 224.621 132.059C224.622 132.059 224.623 132.06 224.624 132.06L224.624 132.061C224.625 132.061 224.625 132.061 224.182 133.045L224.625 132.061C225.387 132.405 225.727 133.303 225.383 134.066C225.039 134.829 224.142 135.168 223.38 134.824L223.379 134.824C223.378 134.823 223.376 134.822 223.374 134.821C223.369 134.819 223.36 134.816 223.349 134.811C223.326 134.8 223.29 134.784 223.242 134.763C223.146 134.721 223.001 134.659 222.811 134.579C222.43 134.418 221.867 134.186 221.148 133.908C219.709 133.35 217.651 132.605 215.184 131.859C210.234 130.363 203.713 128.89 197.282 128.89C189.585 128.89 184.228 130.173 180.835 131.422C179.137 132.047 177.925 132.665 177.153 133.114C176.767 133.339 176.491 133.521 176.318 133.641C176.232 133.702 176.172 133.746 176.137 133.773C176.122 133.784 176.111 133.792 176.105 133.797C175.458 134.326 174.506 134.232 173.976 133.585C173.445 132.938 173.54 131.983 174.186 131.452L175.083 132.546C174.186 131.452 174.187 131.451 174.188 131.451C174.188 131.451 174.189 131.45 174.189 131.45C174.19 131.449 174.192 131.448 174.193 131.447C174.195 131.445 174.198 131.442 174.202 131.44C174.209 131.434 174.217 131.427 174.227 131.419C174.247 131.403 174.275 131.382 174.308 131.357C174.374 131.307 174.466 131.239 174.586 131.155C174.825 130.989 175.171 130.761 175.63 130.494C176.55 129.958 177.922 129.264 179.79 128.576C183.53 127.2 189.241 125.858 197.282 125.858ZM176.106 133.797L176.104 133.798C176.104 133.799 176.103 133.799 176.103 133.799C176.101 133.8 176.1 133.801 176.1 133.801C176.1 133.802 176.101 133.801 176.103 133.799C176.104 133.798 176.104 133.797 176.105 133.797L176.106 133.797Z" fill="#564234"/>
<path d="M194.132 139.809C196.077 139.762 198.532 140.23 201.023 140.893C203.545 141.563 206.227 142.468 208.67 143.369C211.115 144.272 213.34 145.178 214.953 145.859C215.76 146.199 216.416 146.484 216.87 146.683C217.097 146.783 217.274 146.862 217.395 146.916C217.455 146.943 217.502 146.964 217.533 146.978C217.549 146.985 217.562 146.99 217.57 146.994L217.582 147H217.583C217.583 147 217.578 147.011 216.958 148.381L217.583 147.001C218.345 147.347 218.682 148.245 218.337 149.007C217.991 149.769 217.093 150.107 216.331 149.761L216.33 149.76C216.328 149.76 216.325 149.758 216.322 149.757C216.315 149.754 216.304 149.748 216.29 149.742C216.261 149.729 216.217 149.709 216.159 149.683C216.044 149.632 215.872 149.555 215.651 149.458C215.209 149.264 214.568 148.986 213.777 148.652C212.193 147.984 210.012 147.095 207.622 146.213C205.228 145.33 202.642 144.46 200.246 143.823C197.818 143.177 195.703 142.804 194.204 142.839C191.288 142.909 188.509 144.6 186.345 146.47C185.285 147.386 184.424 148.3 183.829 148.986C183.532 149.328 183.303 149.61 183.151 149.804C183.075 149.901 183.018 149.975 182.982 150.024C182.963 150.048 182.95 150.066 182.942 150.076C182.939 150.082 182.936 150.086 182.934 150.088C182.444 150.766 181.498 150.918 180.82 150.427C180.142 149.937 179.99 148.989 180.48 148.311L181.581 149.107C180.541 148.355 180.484 148.313 180.481 148.31L180.481 148.309C180.482 148.308 180.483 148.308 180.483 148.307C180.485 148.305 180.486 148.302 180.488 148.3C180.492 148.294 180.498 148.287 180.505 148.278C180.518 148.259 180.537 148.234 180.561 148.201C180.61 148.137 180.68 148.045 180.77 147.931C180.949 147.702 181.21 147.381 181.543 146.997C182.207 146.232 183.171 145.209 184.365 144.176C186.71 142.15 190.16 139.903 194.132 139.809Z" fill="#564234"/>
<path d="M189.734 142.524C189.734 142.524 188.801 153.795 194.38 154.286C199.959 154.777 198.481 141.797 198.481 141.797C198.481 141.797 194.435 140.772 189.734 142.524Z" fill="#564234"/>
<path d="M254.419 249.558C254.419 249.558 213.038 280.98 177.116 284.236C177.116 284.236 187.608 301.793 197.446 310.487C197.446 310.487 197.009 323.285 197.446 330.833C197.446 330.833 222.955 318.356 241.589 290.196C241.589 290.196 252.117 255.021 254.419 249.558Z" fill="url(#paint0_linear_373_2030)"/>
<path d="M287.337 57.0364C300.446 54.4295 314.5 57.5699 325.331 65.3967C336.162 73.2234 343.583 86.367 347.509 99.456C349.756 106.955 351.119 114.697 352.118 122.457C353.136 130.399 353.966 138.408 354.051 146.416C354.093 150.466 353.936 154.522 353.481 158.542C353.136 161.579 352.688 164.665 351.192 167.381C350.029 169.484 348.06 171.455 345.449 170.952C342.432 170.363 340.645 167.126 339.476 164.58C334.593 153.904 337.301 140.16 345.903 132.176C348.399 129.86 351.458 127.938 354.875 127.429C358.534 126.883 362.277 128.12 365.53 129.702C371.267 132.497 376.083 136.959 379.73 142.167C383.831 148.023 386.436 154.771 388.053 161.712C388.913 165.398 389.507 169.151 389.907 172.916C390.264 176.238 390.488 179.572 390.361 182.913C390.234 186.253 389.767 189.333 388.689 192.364C388.162 193.838 387.466 195.256 386.617 196.572C386.218 197.19 385.781 197.784 385.303 198.342C385.055 198.627 384.794 198.997 384.449 199.179C383.934 199.458 383.492 199.179 383.074 198.851C378.47 195.268 377.494 188.218 379.263 182.974C381.256 177.081 386.836 173.061 392.724 171.661C394.214 171.303 395.74 171.109 397.273 171.097C399.139 171.085 400.665 171.588 401.883 173.049C402.931 174.316 403.694 175.862 404.464 177.305C405.294 178.863 406.057 180.458 406.766 182.076C412.472 195.153 414.144 209.594 415.047 223.708C415.271 227.2 415.44 230.692 415.61 234.184C415.664 235.348 417.482 235.354 417.427 234.184C416.7 219.015 415.913 203.55 411.273 188.982C410.152 185.465 408.807 182.022 407.202 178.699C406.384 177.002 405.499 175.323 404.53 173.71C403.652 172.255 402.58 170.782 401.017 170.006C399.357 169.187 397.431 169.199 395.625 169.363C393.959 169.515 392.306 169.83 390.706 170.333C387.605 171.309 384.703 172.934 382.322 175.153C377.585 179.56 375.544 186.241 377.179 192.534C377.943 195.475 379.572 198.409 381.995 200.3C382.68 200.834 383.486 201.228 384.382 201.107C385.279 200.985 386 200.318 386.587 199.633C387.69 198.348 388.623 196.923 389.368 195.402C392.403 189.212 392.53 182.01 391.954 175.274C391.276 167.375 389.883 159.439 386.981 152.036C384.394 145.434 380.596 139.281 375.411 134.407C372.921 132.066 370.122 130.023 367.075 128.459C363.713 126.725 359.909 125.349 356.074 125.513C349.114 125.81 343.201 131.218 339.755 136.91C336.514 142.258 334.963 148.641 335.32 154.88C335.496 157.996 336.126 161.1 337.277 164.01C338.428 166.92 340.039 170.066 342.771 171.806C345.34 173.437 348.484 173.067 350.695 171.042C352.773 169.139 353.918 166.265 354.542 163.573C355.456 159.657 355.68 155.48 355.82 151.473C355.971 147.12 355.844 142.761 355.553 138.42C354.99 130.005 354.021 121.566 352.573 113.26C349.956 98.2678 344.982 83.2387 334.787 71.6229C325.289 60.8013 311.447 54.472 297.041 54.3386C293.625 54.3083 290.214 54.6357 286.864 55.3025C285.719 55.5329 286.204 57.285 287.349 57.0546L287.337 57.0364Z" fill="#564234"/>
<path d="M299.294 190.424C291.746 202.762 286.264 216.336 282.957 230.407C279.643 244.496 278.468 259.101 279.48 273.536C280.491 287.958 283.653 302.248 289.045 315.676C290.377 318.993 291.837 322.26 293.431 325.461C294.218 327.038 295.072 328.65 296.762 329.402C298.295 330.087 300.04 329.881 301.566 329.275C304.819 327.989 307.43 325.316 309.835 322.854C312.24 320.393 314.493 317.683 316.511 314.852C324.67 303.394 329.274 289.353 329.317 275.263C329.317 273.524 329.256 271.784 329.117 270.044C329.068 269.437 328.578 269.031 327.966 269.165C319.006 271.159 312.67 278.731 309.326 286.916C305.813 295.506 305.425 305.297 307.382 314.306C309.338 323.315 313.918 332.112 320.539 338.756C322.181 340.405 324.113 342.479 326.518 342.873C328.923 343.267 331.364 341.588 333.382 340.399C337.404 338.023 341.16 335.155 344.473 331.863C350.973 325.401 355.874 317.046 356.686 307.783C356.783 306.667 356.813 305.546 356.789 304.418C356.783 304.061 356.516 303.594 356.122 303.539C351.094 302.854 346.327 305.443 343.322 309.396C340.045 313.706 339.106 319.362 339.039 324.649C338.967 330.069 339.706 335.683 342.232 340.545C344.473 344.855 348.181 348.178 352.476 350.36C357.322 352.828 362.731 353.973 368.123 354.349C369.292 354.428 369.286 352.609 368.123 352.531C359.642 351.942 350.174 349.166 345.109 341.812C342.25 337.659 341.142 332.585 340.905 327.614C340.669 322.642 341.014 317.307 343.328 312.803C345.642 308.298 350.398 304.582 355.638 305.297L354.971 304.418C355.153 313.173 351.343 321.381 345.685 327.905C342.771 331.263 339.403 334.222 335.744 336.738C333.921 337.987 332.031 339.132 330.08 340.163C328.978 340.745 327.796 341.363 326.524 341.024C325.343 340.709 324.368 339.86 323.483 339.054C316.917 333.106 312.24 325.225 309.853 316.713C307.491 308.298 307.321 299.144 309.883 290.747C312.282 282.884 317.504 274.9 325.446 271.82C326.421 271.444 327.427 271.147 328.45 270.917L327.3 270.038C328.36 283.727 324.949 297.586 317.922 309.353C314.433 315.197 310.059 320.502 304.928 324.982C302.887 326.765 298.81 329.644 296.387 326.898C295.284 325.643 294.636 323.837 293.927 322.339C293.158 320.726 292.425 319.09 291.722 317.447C286.258 304.594 282.878 290.838 281.569 276.937C280.255 262.969 280.988 248.807 283.787 235.057C286.585 221.307 291.413 207.994 298.265 195.759C299.101 194.268 299.967 192.795 300.857 191.34C301.469 190.339 299.9 189.424 299.288 190.424H299.294Z" fill="#564234"/>
<path d="M93.4882 198.766C91.8889 212.225 91.6648 225.842 92.846 239.349C93.1126 242.392 93.3307 245.49 93.9061 248.491C94.3241 250.674 95.0329 252.935 96.3656 254.742C97.6983 256.548 99.5217 257.676 101.727 257.567C104.083 257.452 105.961 255.912 107.209 254.002C108.826 251.529 109.378 248.503 109.45 245.587C109.541 242.059 108.808 238.585 107.391 235.366C107.161 234.845 106.319 234.778 105.961 235.184C101.066 240.743 100.224 248.607 101.672 255.639C102.514 259.743 104.077 263.66 105.804 267.467C107.439 271.074 109.135 274.694 111.031 278.174C113.073 281.92 115.508 285.503 118.749 288.316C119.627 289.08 120.918 287.801 120.033 287.031C114.448 282.187 111.401 275.148 108.318 268.595C105.234 262.041 102.157 254.457 102.975 246.776C103.374 243.023 104.737 239.325 107.251 236.475L105.822 236.294C106.979 238.919 107.591 241.78 107.639 244.648C107.675 247.133 107.391 249.752 106.264 252.002C105.386 253.748 103.92 255.578 101.83 255.748C99.9215 255.906 98.4252 254.699 97.4742 253.147C96.402 251.401 95.8628 249.352 95.5417 247.345C95.0692 244.417 94.833 241.428 94.5907 238.47C94.0758 232.262 93.8516 226.024 93.9304 219.791C94.0152 212.765 94.4816 205.75 95.3116 198.772C95.4509 197.614 93.6336 197.621 93.4942 198.772L93.4882 198.766Z" fill="#564234"/>
<path d="M123.456 133.443C123.456 133.443 136.619 129.314 143.731 133.988C150.389 138.359 152.406 140.033 153.92 145.956C155.435 151.879 151.764 177.129 143.743 192.001C143.743 192.001 146.542 199.488 154.902 205.393C154.902 205.393 153.672 215.845 151.334 218.003C151.334 218.003 146.082 215.238 144.713 226.066C144.713 226.066 150.474 243.047 162.522 248.461C162.522 248.461 155.968 255.597 158.016 259.168C160.063 262.738 160.499 277.27 177.873 284.182C177.873 284.182 161.899 289.329 152.848 266.837C141.126 237.718 125.025 205.726 124.595 196.76C124.116 186.769 129.895 163.798 129.895 163.798C129.895 163.798 119.518 139.681 123.45 133.443H123.456Z" fill="url(#paint1_linear_373_2030)"/>
<path d="M133.243 128.896C139.082 128.98 144.66 131.135 148.97 134.176C153.242 137.19 156.482 141.231 157.329 145.262C158.139 149.115 157.622 155.832 155.787 163.716C153.937 171.669 150.697 181.013 145.878 190.201V190.202C144.98 191.913 145.083 193.368 145.695 194.683C146.347 196.08 147.616 197.388 149.16 198.54C150.685 199.679 152.363 200.582 153.678 201.204C154.331 201.513 154.886 201.748 155.274 201.905C155.468 201.984 155.62 202.043 155.721 202.081C155.771 202.1 155.809 202.114 155.833 202.123C155.845 202.127 155.854 202.131 155.859 202.132C155.862 202.133 155.863 202.134 155.864 202.134L156.007 202.193C156.701 202.523 157.046 203.331 156.783 204.07C156.502 204.859 155.636 205.27 154.848 204.99L155.356 203.562C154.878 204.904 154.849 204.984 154.847 204.989H154.845C154.844 204.989 154.843 204.988 154.842 204.987C154.839 204.986 154.835 204.985 154.83 204.983C154.82 204.98 154.807 204.975 154.79 204.969C154.757 204.957 154.709 204.939 154.649 204.916C154.528 204.87 154.354 204.803 154.138 204.716C153.705 204.54 153.097 204.282 152.384 203.944C150.965 203.273 149.092 202.272 147.348 200.97C145.623 199.682 143.905 198.011 142.951 195.965C141.958 193.835 141.837 191.383 143.196 188.792C147.888 179.847 151.041 170.746 152.838 163.028C154.649 155.243 155.033 149.065 154.364 145.886C153.733 142.884 151.151 139.422 147.225 136.653C143.338 133.91 138.342 132 133.199 131.927C128.043 131.853 124.149 133.429 121.547 135.012C120.244 135.805 119.265 136.6 118.619 137.188C118.297 137.482 118.059 137.723 117.905 137.885C117.829 137.967 117.773 138.028 117.74 138.066C117.723 138.085 117.712 138.098 117.706 138.105C117.705 138.106 117.703 138.107 117.703 138.108C117.169 138.752 116.215 138.841 115.572 138.308C114.928 137.774 114.838 136.818 115.372 136.174L116.358 136.992C115.398 136.196 115.373 136.174 115.372 136.173L115.373 136.172C115.374 136.171 115.375 136.169 115.376 136.168C115.378 136.166 115.38 136.163 115.383 136.16C115.388 136.154 115.395 136.146 115.403 136.137C115.419 136.118 115.441 136.092 115.469 136.061C115.524 135.998 115.602 135.911 115.703 135.804C115.904 135.591 116.197 135.295 116.58 134.946C117.347 134.248 118.48 133.331 119.974 132.422C122.968 130.6 127.416 128.812 133.243 128.896Z" fill="#564234"/>
<path d="M139.131 195.061C139.349 194.253 140.18 193.775 140.988 193.993C141.795 194.211 142.272 195.042 142.055 195.849L142.056 195.85C142.055 195.852 142.054 195.856 142.053 195.859C142.048 195.88 142.04 195.918 142.03 195.969C142.01 196.074 141.984 196.234 141.966 196.432C141.929 196.837 141.93 197.358 142.051 197.881C142.171 198.394 142.399 198.883 142.806 199.293C143.209 199.698 143.874 200.113 145.011 200.342C145.831 200.508 146.362 201.306 146.197 202.127C146.032 202.947 145.234 203.479 144.414 203.314C142.783 202.985 141.548 202.325 140.659 201.431C139.775 200.541 139.32 199.507 139.101 198.567C138.885 197.636 138.894 196.773 138.95 196.158C138.978 195.846 139.02 195.586 139.056 195.399C139.074 195.305 139.09 195.228 139.104 195.171C139.11 195.143 139.116 195.119 139.121 195.101C139.123 195.092 139.125 195.084 139.127 195.077C139.128 195.074 139.128 195.071 139.129 195.068C139.129 195.067 139.13 195.065 139.13 195.064L139.131 195.063C139.136 195.064 139.215 195.084 140.593 195.456L139.131 195.061ZM142.057 195.843C142.057 195.844 142.057 195.845 142.057 195.846L142.056 195.85L142.057 195.843Z" fill="#564234"/>
<path d="M136.376 143.745C138.127 143.842 140.218 144.538 142.256 145.417C144.331 146.311 146.502 147.462 148.461 148.586C150.423 149.713 152.195 150.828 153.475 151.66C154.116 152.077 154.635 152.423 154.995 152.667C155.175 152.788 155.315 152.884 155.411 152.95C155.459 152.983 155.496 153.009 155.521 153.026C155.534 153.035 155.544 153.041 155.55 153.046C155.553 153.048 155.556 153.05 155.558 153.051C155.559 153.052 155.56 153.053 155.56 153.053L155.561 153.054L155.684 153.149C156.266 153.649 156.387 154.52 155.939 155.164C155.461 155.851 154.517 156.02 153.83 155.542C153.83 155.541 153.83 155.541 153.829 155.54C153.828 155.54 153.826 155.539 153.823 155.537C153.818 155.533 153.81 155.527 153.799 155.52C153.776 155.504 153.742 155.48 153.697 155.449C153.607 155.387 153.472 155.296 153.299 155.179C152.952 154.944 152.449 154.608 151.825 154.202C150.576 153.391 148.854 152.307 146.953 151.216C145.048 150.121 142.987 149.032 141.058 148.201C139.093 147.354 137.407 146.838 136.209 146.772C134.167 146.658 132.48 148.215 131.157 150.428C130.53 151.477 130.064 152.549 129.753 153.367C129.599 153.774 129.486 154.111 129.412 154.344C129.375 154.46 129.348 154.549 129.331 154.607C129.322 154.636 129.316 154.658 129.312 154.671C129.311 154.677 129.31 154.682 129.309 154.684H129.308L129.309 154.684L129.308 154.686L129.261 154.831C128.986 155.548 128.207 155.954 127.45 155.748C126.643 155.528 126.167 154.695 126.387 153.887L127.542 154.202C126.418 153.896 126.387 153.888 126.387 153.887L126.387 153.886C126.387 153.885 126.387 153.884 126.388 153.883C126.388 153.88 126.389 153.877 126.39 153.874C126.392 153.867 126.395 153.858 126.398 153.847C126.404 153.824 126.413 153.793 126.424 153.754C126.447 153.675 126.481 153.564 126.526 153.425C126.614 153.147 126.745 152.757 126.921 152.291C127.272 151.366 127.811 150.12 128.558 148.871C129.982 146.488 132.517 143.531 136.376 143.745Z" fill="#564234"/>
<path d="M132.512 147.229C132.512 147.229 131.7 158.875 135.959 159.208C140.224 159.536 140.078 145.84 140.078 145.84C140.078 145.84 134.687 144.222 132.506 147.235L132.512 147.229Z" fill="#564234"/>
<path d="M148.129 235.554C148.129 235.554 156.18 247.012 164.588 247.37C172.996 247.728 186.596 230.716 186.596 230.716C178.903 228.57 164.231 217.827 161.729 218.003C159.227 218.185 157.973 221.762 155.289 221.762C152.606 221.762 151.891 218.003 148.85 218.003C145.809 218.003 145.094 228.746 145.094 228.746" fill="#AE4D41"/>
<path d="M161.623 216.491C162.036 216.462 162.437 216.547 162.746 216.634C163.079 216.728 163.435 216.862 163.797 217.017C164.52 217.328 165.379 217.769 166.317 218.285C168.193 219.317 170.536 220.73 172.988 222.185C177.993 225.154 183.393 228.249 187.003 229.256C187.493 229.393 187.882 229.767 188.038 230.251C188.194 230.735 188.096 231.266 187.779 231.663L186.596 230.716L187.778 231.663L187.777 231.665C187.777 231.665 187.776 231.666 187.775 231.668C187.773 231.67 187.77 231.674 187.767 231.678C187.759 231.687 187.749 231.701 187.735 231.718C187.707 231.752 187.667 231.802 187.614 231.866C187.509 231.995 187.355 232.182 187.157 232.419C186.761 232.893 186.187 233.567 185.474 234.373C184.048 235.984 182.053 238.135 179.785 240.279C177.524 242.417 174.955 244.584 172.38 246.202C169.851 247.792 167.098 248.994 164.524 248.884C159.731 248.68 155.265 245.373 152.163 242.427C150.574 240.918 149.262 239.426 148.348 238.312C147.89 237.754 147.53 237.288 147.283 236.959C147.159 236.795 147.063 236.665 146.997 236.574C146.964 236.529 146.938 236.493 146.921 236.468C146.912 236.456 146.905 236.446 146.9 236.439C146.897 236.435 146.895 236.432 146.893 236.43C146.893 236.429 146.892 236.428 146.892 236.428L146.891 236.426C146.892 236.425 146.932 236.396 148.129 235.554L146.89 236.426C146.409 235.741 146.574 234.796 147.258 234.314C147.942 233.833 148.886 233.998 149.367 234.682H149.368C149.368 234.682 149.369 234.684 149.371 234.686C149.374 234.69 149.379 234.696 149.385 234.705C149.398 234.724 149.419 234.753 149.447 234.792C149.503 234.869 149.588 234.985 149.701 235.135C149.926 235.434 150.261 235.866 150.689 236.388C151.547 237.434 152.773 238.828 154.248 240.229C157.273 243.102 161.037 245.702 164.653 245.855C166.283 245.925 168.383 245.135 170.769 243.635C173.108 242.165 175.515 240.146 177.705 238.075C179.888 236.011 181.819 233.931 183.206 232.364C183.503 232.028 183.774 231.716 184.017 231.434C180.203 229.932 175.509 227.205 171.443 224.793C168.953 223.315 166.678 221.942 164.859 220.942C163.949 220.441 163.192 220.056 162.604 219.804C162.31 219.678 162.086 219.597 161.925 219.552C161.857 219.533 161.813 219.524 161.79 219.52C161.543 219.548 161.27 219.657 160.918 219.905C160.519 220.187 160.134 220.56 159.622 221.048C158.733 221.897 157.326 223.277 155.29 223.277C153.181 223.277 151.88 221.74 151.107 220.928C150.202 219.977 149.677 219.542 148.909 219.521C148.897 219.53 148.878 219.545 148.856 219.566C148.727 219.688 148.545 219.932 148.34 220.35C147.93 221.185 147.586 222.38 147.315 223.683C147.048 224.965 146.87 226.258 146.758 227.239C146.703 227.727 146.664 228.133 146.64 228.416C146.627 228.556 146.619 228.666 146.613 228.74C146.61 228.777 146.608 228.805 146.607 228.823C146.606 228.832 146.606 228.838 146.606 228.842C146.606 228.844 146.605 228.846 146.605 228.847C146.55 229.682 145.828 230.314 144.994 230.258C144.159 230.202 143.528 229.48 143.583 228.645L145.094 228.746C143.657 228.65 143.587 228.645 143.583 228.645V228.642C143.584 228.64 143.584 228.637 143.584 228.634C143.585 228.628 143.585 228.619 143.586 228.607C143.587 228.585 143.59 228.552 143.593 228.51C143.599 228.427 143.609 228.306 143.623 228.153C143.649 227.848 143.69 227.415 143.749 226.896C143.867 225.862 144.057 224.469 144.349 223.065C144.637 221.683 145.042 220.192 145.621 219.013C145.911 218.424 146.283 217.829 146.776 217.363C147.284 216.882 147.982 216.488 148.85 216.488L149.057 216.492C151.174 216.577 152.467 217.961 153.301 218.837C154.317 219.905 154.714 220.246 155.29 220.246C155.937 220.246 156.499 219.839 157.533 218.853C157.982 218.425 158.549 217.868 159.172 217.428C159.819 216.972 160.628 216.563 161.62 216.491H161.623Z" fill="#564234"/>
<path d="M165.81 255.809C169.226 255.736 172.797 256.733 175.441 257.696C176.778 258.184 177.911 258.675 178.712 259.045C179.113 259.23 179.432 259.386 179.653 259.497C179.763 259.552 179.85 259.596 179.91 259.627C179.939 259.642 179.963 259.655 179.979 259.664C179.988 259.668 179.994 259.671 179.999 259.674C180.001 259.675 180.003 259.676 180.005 259.677C180.005 259.677 180.006 259.678 180.007 259.678L180.008 259.679C180.007 259.68 179.984 259.724 179.368 260.883L180.008 259.679C180.747 260.072 181.026 260.99 180.633 261.729C180.24 262.468 179.323 262.747 178.584 262.354L178.583 262.353C178.581 262.352 178.577 262.35 178.572 262.347C178.561 262.342 178.543 262.333 178.519 262.32C178.47 262.295 178.397 262.257 178.299 262.208C178.103 262.11 177.812 261.968 177.441 261.797C176.7 261.454 175.646 260.997 174.404 260.545C171.89 259.628 168.734 258.778 165.874 258.839L165.875 258.84C163.021 258.902 160.967 259.503 159.656 260.06C158.999 260.34 158.525 260.61 158.226 260.8C158.077 260.895 157.972 260.971 157.911 261.017C157.88 261.039 157.86 261.055 157.851 261.063C157.847 261.065 157.845 261.067 157.845 261.067C157.845 261.067 157.846 261.066 157.848 261.064C157.849 261.064 157.85 261.063 157.851 261.062C157.852 261.062 157.852 261.061 157.853 261.06H157.853C157.217 261.602 156.263 261.528 155.72 260.893C155.176 260.257 155.25 259.3 155.886 258.756L156.771 259.79C155.888 258.757 155.886 258.755 155.887 258.754L155.888 258.754C155.889 258.753 155.89 258.752 155.891 258.751C155.893 258.75 155.895 258.748 155.897 258.746C155.902 258.742 155.907 258.737 155.913 258.732C155.925 258.723 155.94 258.711 155.958 258.696C155.993 258.668 156.041 258.63 156.1 258.586C156.219 258.498 156.385 258.381 156.6 258.244C157.028 257.971 157.65 257.62 158.472 257.271C160.119 256.57 162.551 255.88 165.809 255.809H165.81Z" fill="#564234"/>
<path d="M185.164 230.14C185.977 229.944 186.795 230.446 186.99 231.26C187.185 232.074 186.684 232.891 185.871 233.087C176.716 235.285 167.998 235.281 161.584 234.735C158.373 234.462 155.729 234.051 153.881 233.708C152.957 233.536 152.231 233.381 151.733 233.267C151.484 233.211 151.291 233.165 151.159 233.132C151.093 233.116 151.042 233.103 151.006 233.094C150.989 233.089 150.975 233.086 150.965 233.083C150.96 233.082 150.956 233.081 150.953 233.08C150.952 233.08 150.951 233.079 150.95 233.079H150.948C150.948 233.079 150.947 233.079 151.333 231.613L150.947 233.079C150.138 232.865 149.656 232.036 149.869 231.227C150.083 230.418 150.91 229.935 151.719 230.148H151.72C151.721 230.148 151.723 230.148 151.726 230.149C151.732 230.151 151.741 230.153 151.755 230.157C151.782 230.164 151.825 230.175 151.882 230.189C151.998 230.217 152.173 230.259 152.404 230.311C152.866 230.416 153.552 230.564 154.434 230.727C156.199 231.056 158.744 231.451 161.841 231.715C168.044 232.243 176.418 232.24 185.164 230.14Z" fill="#564234"/>
<path d="M179.212 140.487C179.67 139.787 180.608 139.592 181.308 140.051C181.309 140.052 181.311 140.052 181.314 140.054C181.32 140.058 181.33 140.065 181.344 140.074C181.374 140.093 181.42 140.121 181.48 140.159C181.602 140.233 181.784 140.342 182.011 140.469C182.469 140.726 183.101 141.053 183.805 141.344C184.517 141.638 185.259 141.877 185.946 141.984C186.646 142.092 187.167 142.045 187.522 141.899C188.296 141.58 189.181 141.95 189.499 142.724C189.817 143.498 189.448 144.384 188.674 144.702C187.615 145.138 186.477 145.134 185.482 144.98C184.475 144.824 183.49 144.494 182.649 144.147C181.803 143.797 181.06 143.41 180.53 143.114C180.265 142.964 180.049 142.836 179.898 142.743C179.822 142.697 179.762 142.659 179.72 142.632C179.699 142.619 179.682 142.608 179.67 142.6C179.664 142.596 179.659 142.593 179.655 142.59C179.653 142.589 179.651 142.588 179.65 142.587C179.65 142.587 179.649 142.586 179.648 142.586L179.648 142.585C179.649 142.583 179.683 142.53 180.478 141.318L179.647 142.585C178.948 142.126 178.753 141.186 179.212 140.487Z" fill="#564234"/>
<path d="M120.928 148.351C121.396 147.658 122.337 147.475 123.031 147.943L123.03 147.942C123.031 147.943 123.033 147.944 123.035 147.946C123.041 147.949 123.05 147.956 123.063 147.964C123.089 147.981 123.131 148.009 123.186 148.043C123.295 148.113 123.459 148.215 123.664 148.335C124.076 148.576 124.644 148.887 125.276 149.17C125.914 149.456 126.577 149.695 127.185 149.819C127.812 149.946 128.245 149.923 128.507 149.833C129.298 149.561 130.159 149.983 130.431 150.774C130.702 151.566 130.281 152.428 129.49 152.7C128.508 153.037 127.466 152.969 126.581 152.789C125.678 152.605 124.793 152.274 124.039 151.937C123.278 151.596 122.609 151.229 122.133 150.95C121.893 150.809 121.699 150.689 121.562 150.603C121.494 150.559 121.44 150.524 121.402 150.499C121.383 150.487 121.367 150.476 121.356 150.469C121.351 150.465 121.347 150.462 121.343 150.46C121.342 150.459 121.34 150.458 121.339 150.457L121.337 150.455C121.34 150.451 121.387 150.379 122.183 149.199L121.336 150.455C120.643 149.987 120.46 149.045 120.928 148.351Z" fill="#564234"/>
<path d="M194.167 136.08C200.304 136.071 206.29 138.814 210.639 141.441C212.834 142.768 214.659 144.093 215.937 145.088C216.576 145.586 217.081 146.002 217.427 146.296C217.601 146.443 217.735 146.561 217.827 146.642C217.874 146.683 217.91 146.714 217.934 146.737C217.947 146.748 217.956 146.756 217.963 146.763C217.967 146.766 217.97 146.768 217.972 146.77C217.973 146.771 217.974 146.772 217.975 146.773L217.976 146.774C217.975 146.776 217.941 146.814 217.03 147.817L217.976 146.775C218.595 147.338 218.641 148.296 218.078 148.915C217.516 149.535 216.557 149.58 215.938 149.017C215.938 149.016 215.936 149.015 215.935 149.014C215.931 149.01 215.924 149.004 215.915 148.996C215.896 148.979 215.867 148.953 215.827 148.918C215.748 148.848 215.627 148.744 215.468 148.609C215.15 148.339 214.679 147.949 214.077 147.48C212.87 146.541 211.145 145.287 209.074 144.036C204.891 141.509 199.482 139.103 194.171 139.111H194.17C193.072 139.112 191.83 139.589 190.502 140.478C189.189 141.356 187.914 142.556 186.781 143.801C185.655 145.04 184.704 146.286 184.033 147.225C183.698 147.693 183.436 148.082 183.258 148.351C183.17 148.486 183.102 148.591 183.058 148.66C183.036 148.695 183.019 148.721 183.009 148.738C183.004 148.746 183 148.752 182.998 148.756L182.996 148.759C182.996 148.759 182.996 148.759 182.995 148.758C182.556 149.471 181.623 149.692 180.912 149.252C180.2 148.813 179.98 147.879 180.419 147.166L181.707 147.962C180.459 147.191 180.42 147.167 180.419 147.166L180.42 147.165C180.42 147.164 180.421 147.163 180.421 147.162C180.422 147.16 180.424 147.158 180.426 147.155C180.43 147.148 180.436 147.139 180.443 147.128C180.457 147.105 180.477 147.073 180.504 147.032C180.556 146.95 180.632 146.832 180.729 146.683C180.925 146.386 181.209 145.965 181.569 145.462C182.286 144.458 183.312 143.113 184.542 141.761C185.766 140.415 187.227 139.023 188.819 137.958C190.396 136.902 192.23 136.082 194.167 136.08V136.08Z" fill="#564234"/>
<path d="M134.966 139.784C138.226 139.589 142.353 140.852 146.127 143.057C150.054 145.352 153.83 148.799 156.043 153.121C156.425 153.866 156.131 154.78 155.387 155.162C154.642 155.543 153.73 155.249 153.348 154.504C151.46 150.818 148.16 147.756 144.599 145.675C141.118 143.641 137.602 142.667 135.159 142.81L134.926 142.827C132.821 143.017 131.067 144.817 129.735 147.066C129.1 148.139 128.626 149.207 128.309 150.012C128.152 150.413 128.036 150.743 127.96 150.97C127.922 151.083 127.895 151.17 127.877 151.227C127.868 151.255 127.862 151.276 127.858 151.288C127.856 151.295 127.855 151.299 127.854 151.301V151.302L127.853 151.301C127.62 152.105 126.781 152.567 125.977 152.334C125.174 152.101 124.712 151.259 124.946 150.455L126.076 150.784C124.989 150.468 124.947 150.456 124.946 150.455L124.946 150.454C124.947 150.453 124.947 150.452 124.947 150.451C124.948 150.449 124.948 150.446 124.949 150.442C124.951 150.436 124.954 150.427 124.957 150.416C124.964 150.395 124.973 150.364 124.985 150.326C125.008 150.25 125.043 150.143 125.088 150.008C125.178 149.738 125.312 149.358 125.491 148.903C125.846 147.997 126.388 146.773 127.129 145.521C128.551 143.12 130.992 140.139 134.654 139.808L134.966 139.784Z" fill="#564234"/>
</g>
<defs>
<linearGradient id="paint0_linear_373_2030" x1="211.585" y1="339.711" x2="215.383" y2="271.134" gradientUnits="userSpaceOnUse">
<stop stop-color="#BF835B"/>
<stop offset="1" stop-color="#8D5B39"/>
</linearGradient>
<linearGradient id="paint1_linear_373_2030" x1="84.5273" y1="192.394" x2="199.965" y2="193.907" gradientUnits="userSpaceOnUse">
<stop stop-color="#BF835B"/>
<stop offset="1" stop-color="#8D5B39"/>
</linearGradient>
<clipPath id="clip0_373_2030">
<rect width="504" height="608" fill="white" transform="translate(-16)"/>
</clipPath>
</defs>
</svg>
