<svg width="477" height="534" viewBox="0 0 477 534" fill="none" xmlns="http://www.w3.org/2000/svg">
<g clip-path="url(#clip0_254_8980)">
<path d="M188.698 242.66C171.212 234.093 166.547 220.939 165.705 211.418C164.962 202.976 166.995 195.982 167.811 193.58L144.765 162.273L144.726 162.207C144.384 161.641 136.279 148.126 132.252 130.644C126.904 107.443 131.509 88.46 145.561 75.7082C146.206 72.8064 149.594 59.2848 159.383 45.4144C169.35 31.294 188.08 14.285 220.75 13.298C223.717 11.6793 243.072 1.64502 267.42 1.64502C274.459 1.64502 281.314 2.50698 287.794 4.21117C312.438 10.6792 330.806 24.1943 339.523 42.2626C346.437 56.6002 346.78 73.0236 340.471 87.3217L340.352 87.5914L189.771 243.192L188.698 242.666V242.66Z" fill="#DE8459"/>
<path d="M267.42 3.28992C273.821 3.28992 280.551 4.00712 287.38 5.79685C337.523 18.9566 351.622 57.9753 338.971 86.6504L189.429 241.179C156.916 225.242 169.659 193.31 169.659 193.31L146.134 161.358C146.134 161.358 113.082 106.726 147.061 76.5766C147.061 76.5766 158.791 16.5681 221.197 14.9363C221.197 14.9363 241.638 3.28992 267.42 3.28992ZM267.42 -2.38307e-05C243.513 -2.38307e-05 224.316 9.52765 220.309 11.6661C205.829 12.1596 192.81 15.7785 181.606 22.4176C172.468 27.8329 164.541 35.255 158.035 44.4602C148.574 57.8635 144.976 70.9903 144.068 74.833C129.845 88.0059 125.207 107.397 130.641 131.005C134.726 148.745 142.963 162.477 143.311 163.056L143.39 163.181L143.476 163.299L165.982 193.863C165.028 196.936 163.37 203.647 164.067 211.55C164.942 221.499 169.797 235.218 187.975 244.127L190.119 245.18L191.784 243.462L341.326 88.9337L341.734 88.5126L341.971 87.973C348.477 73.2341 348.122 56.304 340.997 41.5388C336.714 32.6625 330.234 24.8588 321.734 18.3513C312.57 11.3371 301.287 6.04031 288.202 2.60561C281.584 0.86852 274.591 -0.0131836 267.407 -0.0131836L267.42 -2.38307e-05Z" fill="#7F725C"/>
<path d="M304.345 318.305L304.836 318.324L305.295 318.5L304.222 321.302C305.285 318.525 305.295 318.501 305.296 318.501L305.298 318.502C305.3 318.503 305.304 318.503 305.308 318.505C305.316 318.508 305.328 318.513 305.345 318.52C305.378 318.532 305.428 318.551 305.493 318.576C305.623 318.626 305.817 318.701 306.07 318.799C306.577 318.994 307.325 319.283 308.289 319.657C310.218 320.407 313.016 321.499 316.491 322.872C323.442 325.618 333.109 329.489 343.974 333.986C365.675 342.97 392.253 354.497 411.499 364.578C436.376 377.609 454.5 400.739 460.484 428.238C466.105 454.08 470.98 485.956 474.445 511.325C476.179 524.019 477.563 535.103 478.514 543.014C478.989 546.969 479.356 550.133 479.604 552.308C479.729 553.395 479.822 554.235 479.886 554.805C479.917 555.089 479.942 555.306 479.958 555.452C479.966 555.525 479.972 555.58 479.976 555.617C479.978 555.635 479.979 555.65 479.98 555.659C479.981 555.663 479.981 555.667 479.981 555.67L479.982 555.673L480.345 559H-26.041L-26 555.959L-23 556C-25.9897 555.959 -26 555.958 -26 555.956C-26 555.955 -26 555.952 -26 555.95C-25.9999 555.946 -25.9991 555.939 -25.999 555.931C-25.9988 555.914 -25.9986 555.888 -25.998 555.856C-25.997 555.792 -25.9956 555.697 -25.9932 555.573C-25.9882 555.325 -25.9796 554.957 -25.9668 554.479C-25.9412 553.524 -25.8968 552.122 -25.8223 550.329C-25.6731 546.743 -25.4029 541.586 -24.917 535.285C-23.9456 522.689 -22.1106 505.492 -18.6562 487.108C-15.2045 468.739 -10.1188 449.096 -2.61133 431.647C4.88019 414.237 14.8967 398.743 28.3643 388.993L29.8115 387.963C45.3395 377.067 78.4854 358.701 107.947 342.949C123.199 334.795 137.534 327.303 148.055 321.852C153.315 319.126 157.624 316.909 160.617 315.374C162.114 314.606 163.282 314.008 164.076 313.603C164.473 313.4 164.777 313.245 164.981 313.141C165.084 313.089 165.162 313.049 165.214 313.022C165.24 313.009 165.259 312.999 165.272 312.992C165.279 312.989 165.284 312.987 165.287 312.985C165.289 312.985 165.29 312.984 165.291 312.983C165.292 312.983 165.308 313.012 166.51 315.374L165.292 312.982L165.992 312.627L304.345 318.305ZM-21.0498 525.531C-21.555 530.67 -21.9293 535.344 -22.208 539.403C-21.9292 535.344 -21.555 530.67 -21.0498 525.531ZM-20.7539 522.619C-20.797 523.032 -20.8384 523.442 -20.8799 523.849C-20.8384 523.442 -20.797 523.032 -20.7539 522.619ZM-20.1172 516.865C-20.1741 517.352 -20.2285 517.836 -20.2832 518.316C-20.2285 517.836 -20.1741 517.352 -20.1172 516.865ZM-19.7412 513.738C-19.4982 511.776 -19.2373 509.772 -18.957 507.731C-19.2373 509.772 -19.4982 511.776 -19.7412 513.738ZM-18.5088 504.558C-18.5614 504.921 -18.6117 505.283 -18.6631 505.645C-18.6117 505.283 -18.5614 504.921 -18.5088 504.558ZM-18.0156 501.243C-18.0906 501.734 -18.1626 502.224 -18.2354 502.712C-18.1626 502.224 -18.0906 501.734 -18.0156 501.243ZM-17.4971 497.935C-17.6025 498.59 -17.7033 499.243 -17.8047 499.893C-17.7033 499.243 -17.6025 498.59 -17.4971 497.935ZM-16.9385 494.553C-17.0653 495.301 -17.187 496.047 -17.3086 496.789C-17.187 496.047 -17.0653 495.301 -16.9385 494.553ZM-16.3516 491.177C-16.4861 491.931 -16.615 492.683 -16.7441 493.433C-16.615 492.683 -16.4861 491.931 -16.3516 491.177ZM-16.0762 489.65C-16.1231 489.908 -16.1695 490.165 -16.2158 490.422C-16.1695 490.165 -16.1231 489.908 -16.0762 489.65ZM-15.7539 487.904C-15.7912 488.104 -15.8273 488.303 -15.8643 488.502C-15.8273 488.303 -15.7912 488.104 -15.7539 487.904ZM-15.4082 486.084C-15.4739 486.426 -15.5379 486.767 -15.6025 487.108C-15.5379 486.767 -15.4739 486.426 -15.4082 486.084ZM-15.0732 484.367C-15.1401 484.706 -15.2058 485.045 -15.2715 485.383C-15.2058 485.045 -15.1401 484.706 -15.0732 484.367ZM-14.7656 482.823C-14.8161 483.073 -14.8662 483.323 -14.916 483.573C-14.8662 483.323 -14.8161 483.073 -14.7656 482.823ZM-14.376 480.916C-14.4422 481.235 -14.5071 481.554 -14.5723 481.873C-14.5071 481.554 -14.4422 481.235 -14.376 480.916ZM-14.0176 479.211C-14.0982 479.59 -14.1777 479.969 -14.2568 480.348C-14.1777 479.969 -14.0982 479.59 -14.0176 479.211ZM-13.6553 477.529C-13.7198 477.826 -13.783 478.122 -13.8467 478.418C-13.783 478.122 -13.7198 477.826 -13.6553 477.529ZM-13.2285 475.597C-13.3202 476.006 -13.411 476.415 -13.501 476.824C-13.411 476.415 -13.3202 476.006 -13.2285 475.597ZM-12.5039 472.433C-12.5471 472.617 -12.589 472.801 -12.6318 472.985C-12.589 472.801 -12.5471 472.617 -12.5039 472.433ZM-12.0498 470.526C-12.1153 470.798 -12.1804 471.07 -12.2451 471.342C-12.1804 471.07 -12.1153 470.798 -12.0498 470.526ZM-11.5898 468.64C-11.6707 468.966 -11.7493 469.293 -11.8291 469.62C-11.7493 469.293 -11.6707 468.966 -11.5898 468.64ZM-10.7822 465.453C-10.8371 465.665 -10.8899 465.877 -10.9443 466.089C-10.8899 465.877 -10.8371 465.665 -10.7822 465.453ZM-10.2881 463.572C-10.3547 463.822 -10.4194 464.073 -10.4854 464.323C-10.4194 464.073 -10.3547 463.822 -10.2881 463.572ZM-9.80371 461.779C-9.89999 462.131 -9.99496 462.484 -10.0898 462.836C-9.99496 462.484 -9.89999 462.131 -9.80371 461.779ZM-9.34961 460.141C-9.41067 460.359 -9.47074 460.577 -9.53125 460.795C-9.47073 460.577 -9.41067 460.359 -9.34961 460.141ZM-8.84277 458.354C-8.90779 458.581 -8.97171 458.807 -9.03613 459.033C-8.97171 458.807 -8.90779 458.581 -8.84277 458.354ZM-8.3252 456.577C-8.43503 456.949 -8.54317 457.322 -8.65137 457.694C-8.54317 457.322 -8.43503 456.949 -8.3252 456.577ZM462.085 451.741C462.365 453.278 462.64 454.823 462.914 456.373C462.639 454.823 462.365 453.277 462.085 451.74V451.741ZM-7.85938 455.019C-7.90968 455.185 -7.95881 455.352 -8.00879 455.519C-7.95881 455.352 -7.90968 455.185 -7.85938 455.019ZM-7.29395 453.173C-7.3796 453.449 -7.4641 453.725 -7.54883 454.001C-7.4641 453.725 -7.3796 453.449 -7.29395 453.173ZM-6.76074 451.477C-6.85802 451.782 -6.95369 452.088 -7.0498 452.394C-6.95369 452.088 -6.85802 451.782 -6.76074 451.477ZM-6.17285 449.658C-6.29019 450.016 -6.40578 450.375 -6.52148 450.734C-6.40578 450.375 -6.29019 450.016 -6.17285 449.658ZM-5.60156 447.938C-5.73282 448.328 -5.86192 448.719 -5.99121 449.11C-5.86192 448.719 -5.73282 448.328 -5.60156 447.938ZM-5.04492 446.303C-5.17349 446.675 -5.30002 447.049 -5.42676 447.423C-5.30002 447.049 -5.17349 446.675 -5.04492 446.303ZM-4.45996 444.631C-4.58484 444.983 -4.70883 445.337 -4.83203 445.69C-4.70882 445.337 -4.58484 444.983 -4.45996 444.631ZM-3.85938 442.956C-3.97384 443.271 -4.08611 443.587 -4.19922 443.902C-4.08611 443.587 -3.97384 443.271 -3.85938 442.956ZM-3.24609 441.294C-3.36165 441.603 -3.47661 441.913 -3.59082 442.224C-3.47661 441.913 -3.36165 441.603 -3.24609 441.294ZM-2.58105 439.537C-2.7273 439.918 -2.87147 440.299 -3.01562 440.682C-2.87146 440.299 -2.7273 439.918 -2.58105 439.537ZM-1.96582 437.957C-2.10685 438.315 -2.24659 438.673 -2.38574 439.032C-2.24659 438.673 -2.10686 438.315 -1.96582 437.957ZM-1.32812 436.361C-1.45179 436.667 -1.57403 436.973 -1.69629 437.279C-1.57403 436.973 -1.45179 436.667 -1.32812 436.361ZM-0.654297 434.721C-0.778872 435.02 -0.902199 435.32 -1.02539 435.62C-0.902197 435.32 -0.778873 435.02 -0.654297 434.721ZM0.0615234 433.026C-0.0836906 433.365 -0.227699 433.705 -0.371094 434.045C-0.227699 433.705 -0.0836906 433.365 0.0615234 433.026ZM0.720703 431.512C0.578747 431.834 0.438118 432.157 0.297852 432.481C0.438118 432.157 0.578745 431.834 0.720703 431.512ZM1.43457 429.912C1.30397 430.2 1.1751 430.49 1.0459 430.779C1.17511 430.49 1.30397 430.2 1.43457 429.912ZM2.15039 428.356C2.01855 428.639 1.88729 428.923 1.75684 429.207C1.8873 428.923 2.01855 428.639 2.15039 428.356ZM2.91895 426.731C2.77525 427.031 2.63332 427.331 2.49121 427.632C2.63332 427.331 2.77525 427.031 2.91895 426.731ZM3.68359 425.164C3.51326 425.508 3.34395 425.854 3.17578 426.2C3.34395 425.854 3.51326 425.508 3.68359 425.164ZM4.40625 423.725C4.26435 424.003 4.12285 424.283 3.98242 424.563C4.12285 424.283 4.26435 424.003 4.40625 423.725ZM456.102 423.135C456.067 423.015 456.033 422.894 455.998 422.774C456.033 422.894 456.067 423.015 456.102 423.135ZM5.18066 422.225C5.04558 422.482 4.91114 422.741 4.77734 423C4.91114 422.741 5.04558 422.482 5.18066 422.225ZM6.03418 420.624C5.87803 420.912 5.72283 421.202 5.56836 421.492C5.72283 421.202 5.87803 420.912 6.03418 420.624ZM455.312 420.537C455.296 420.489 455.28 420.44 455.265 420.392C455.28 420.44 455.296 420.489 455.312 420.537ZM6.78418 419.257C6.64001 419.516 6.49726 419.776 6.35449 420.036C6.49727 419.776 6.64001 419.516 6.78418 419.257ZM7.63184 417.76C7.48166 418.021 7.33231 418.283 7.18359 418.546C7.33231 418.283 7.48166 418.021 7.63184 417.76ZM454.489 418.094C454.483 418.077 454.478 418.061 454.472 418.044C454.478 418.061 454.483 418.077 454.489 418.094ZM8.45312 416.354C8.30543 416.603 8.15901 416.853 8.0127 417.104C8.15901 416.853 8.30543 416.603 8.45312 416.354ZM453.721 416.004C453.682 415.903 453.644 415.801 453.605 415.7C453.644 415.801 453.682 415.903 453.721 416.004ZM9.28906 414.966C9.16821 415.163 9.04866 415.362 8.92871 415.561C9.04866 415.362 9.16821 415.163 9.28906 414.966ZM453.314 414.957C453.258 414.814 453.203 414.671 453.146 414.528C453.203 414.671 453.258 414.814 453.314 414.957ZM10.1689 413.551C10.0299 413.771 9.89178 413.991 9.75391 414.213C9.89178 413.991 10.0299 413.771 10.1689 413.551ZM452.853 413.812C452.792 413.665 452.732 413.517 452.671 413.37C452.732 413.517 452.792 413.665 452.853 413.812ZM452.436 412.814C452.344 412.6 452.253 412.385 452.16 412.171C452.253 412.385 452.344 412.6 452.436 412.814ZM11.0547 412.174C10.9167 412.385 10.7794 412.597 10.6426 412.81C10.7795 412.597 10.9167 412.385 11.0547 412.174ZM451.924 411.635C451.841 411.447 451.757 411.259 451.673 411.071C451.757 411.259 451.841 411.447 451.924 411.635ZM11.9854 410.773C11.8189 411.02 11.6542 411.267 11.4893 411.516C11.6542 411.267 11.8189 411.019 11.9854 410.773ZM451.369 410.408C451.304 410.266 451.239 410.124 451.173 409.982C451.239 410.124 451.304 410.266 451.369 410.408ZM12.8652 409.495C12.7205 409.702 12.5772 409.91 12.4336 410.119C12.5772 409.91 12.7205 409.702 12.8652 409.495ZM450.792 409.177C450.735 409.059 450.679 408.94 450.622 408.822C450.679 408.94 450.735 409.059 450.792 409.177ZM13.8652 408.091C13.6865 408.337 13.5091 408.585 13.332 408.834C13.5091 408.585 13.6865 408.337 13.8652 408.091ZM450.316 408.2C450.241 408.048 450.166 407.895 450.09 407.743C450.166 407.895 450.241 408.048 450.316 408.2ZM14.8438 406.769C14.6343 407.047 14.4259 407.327 14.2188 407.608C14.4259 407.327 14.6343 407.047 14.8438 406.769ZM449.737 407.048C449.671 406.918 449.604 406.787 449.537 406.657C449.604 406.787 449.671 406.918 449.737 407.048ZM15.7363 405.602C15.5613 405.827 15.3873 406.053 15.2139 406.28C15.3873 406.053 15.5613 405.827 15.7363 405.602ZM449.207 406.026C449.114 405.85 449.02 405.673 448.926 405.497C449.02 405.673 449.114 405.85 449.207 406.026ZM16.7188 404.362C16.5546 404.566 16.3913 404.77 16.2285 404.976C16.3913 404.77 16.5546 404.566 16.7188 404.362ZM448.623 404.94C448.537 404.783 448.452 404.625 448.365 404.468C448.452 404.625 448.537 404.783 448.623 404.94ZM17.7539 403.104C17.5606 403.335 17.3683 403.567 17.1768 403.8C17.3683 403.567 17.5606 403.335 17.7539 403.104ZM447.977 403.773C447.907 403.65 447.837 403.527 447.767 403.403C447.837 403.527 447.907 403.65 447.977 403.773ZM447.396 402.761C447.293 402.585 447.191 402.409 447.088 402.233C447.191 402.409 447.293 402.585 447.396 402.761ZM19.2949 401.318C18.9248 401.734 18.56 402.157 18.1963 402.583C18.56 402.157 18.9248 401.734 19.2949 401.318ZM446.737 401.646C446.662 401.52 446.586 401.394 446.51 401.269C446.586 401.394 446.662 401.52 446.737 401.646ZM29.5234 391.863C25.9997 394.482 22.7128 397.529 19.6455 400.929C22.7129 397.529 25.9996 394.482 29.5234 391.863ZM446.127 400.646C446.026 400.482 445.925 400.32 445.823 400.157C445.925 400.32 446.026 400.482 446.127 400.646ZM445.501 399.647C445.388 399.47 445.274 399.292 445.159 399.115C445.274 399.292 445.388 399.47 445.501 399.647ZM444.858 398.652C444.727 398.452 444.595 398.253 444.463 398.054C444.596 398.253 444.727 398.452 444.858 398.652ZM444.146 397.583C444.033 397.415 443.92 397.248 443.806 397.081C443.92 397.248 444.033 397.415 444.146 397.583ZM443.434 396.542C443.318 396.376 443.202 396.21 443.085 396.045C443.202 396.21 443.318 396.376 443.434 396.542ZM442.753 395.577C442.618 395.389 442.483 395.201 442.347 395.014C442.483 395.201 442.618 395.389 442.753 395.577ZM442.013 394.558C441.895 394.397 441.776 394.237 441.657 394.077C441.776 394.237 441.895 394.397 442.013 394.558ZM441.253 393.539C441.132 393.379 441.011 393.22 440.889 393.062C441.011 393.22 441.132 393.379 441.253 393.539ZM440.494 392.552C440.394 392.423 440.294 392.295 440.193 392.167C440.294 392.295 440.394 392.423 440.494 392.552ZM439.704 391.551C439.589 391.408 439.474 391.265 439.358 391.123C439.474 391.265 439.589 391.408 439.704 391.551ZM439.013 390.699C438.844 390.494 438.674 390.29 438.504 390.086C438.674 390.29 438.844 390.494 439.013 390.699ZM438.241 389.772C438.066 389.565 437.89 389.358 437.713 389.152C437.89 389.358 438.066 389.565 438.241 389.772ZM437.412 388.804C437.247 388.613 437.08 388.423 436.913 388.233C437.08 388.423 437.247 388.613 437.412 388.804ZM436.534 387.807C436.411 387.668 436.287 387.53 436.162 387.393C436.287 387.53 436.411 387.668 436.534 387.807ZM435.732 386.92C435.597 386.772 435.461 386.625 435.325 386.479C435.461 386.625 435.597 386.772 435.732 386.92ZM434.874 385.996C434.733 385.846 434.591 385.698 434.449 385.549C434.591 385.698 434.733 385.846 434.874 385.996ZM434.039 385.121C433.889 384.966 433.738 384.811 433.587 384.657C433.738 384.811 433.889 384.966 434.039 385.121ZM433.162 384.226C433.017 384.079 432.871 383.934 432.725 383.789C432.871 383.934 433.017 384.079 433.162 384.226ZM432.294 383.364C432.113 383.187 431.931 383.009 431.748 382.833C431.931 383.009 432.113 383.187 432.294 383.364ZM431.456 382.553C431.251 382.357 431.045 382.163 430.839 381.969C431.045 382.163 431.251 382.357 431.456 382.553ZM430.534 381.683C430.339 381.501 430.142 381.321 429.945 381.141C430.142 381.321 430.339 381.501 430.534 381.683ZM429.608 380.833C429.422 380.664 429.233 380.496 429.045 380.328C429.233 380.496 429.422 380.664 429.608 380.833ZM428.679 380.002C428.506 379.85 428.333 379.7 428.159 379.549C428.333 379.7 428.506 379.85 428.679 380.002ZM427.706 379.157C427.529 379.005 427.351 378.855 427.173 378.704C427.351 378.855 427.529 379.005 427.706 379.157ZM426.774 378.368C426.606 378.228 426.437 378.089 426.268 377.949C426.437 378.089 426.606 378.228 426.774 378.368ZM425.805 377.569C425.639 377.435 425.473 377.302 425.307 377.169C425.473 377.302 425.639 377.435 425.805 377.569ZM424.834 376.792C424.655 376.651 424.476 376.511 424.296 376.371C424.476 376.511 424.655 376.651 424.834 376.792ZM423.871 376.04C423.677 375.891 423.482 375.744 423.287 375.597C423.482 375.744 423.677 375.891 423.871 376.04ZM422.849 375.266C422.684 375.142 422.518 375.02 422.352 374.897C422.518 375.02 422.684 375.142 422.849 375.266ZM421.839 374.52C421.667 374.394 421.493 374.271 421.319 374.146C421.493 374.271 421.667 374.394 421.839 374.52ZM420.817 373.787C420.694 373.7 420.57 373.614 420.446 373.527C420.57 373.614 420.694 373.7 420.817 373.787ZM419.785 373.067C419.645 372.971 419.504 372.877 419.363 372.781C419.504 372.877 419.645 372.971 419.785 373.067ZM418.779 372.386C418.636 372.29 418.492 372.195 418.349 372.101C418.492 372.195 418.636 372.29 418.779 372.386ZM414.898 369.928C415.838 370.491 416.766 371.069 417.683 371.663C416.766 371.069 415.838 370.491 414.898 369.928ZM411.232 367.836V367.835V367.836ZM407.56 365.916C407.244 365.754 406.927 365.591 406.607 365.429C406.927 365.591 407.244 365.754 407.56 365.916ZM405.996 365.118C405.621 364.928 405.244 364.737 404.864 364.546C405.244 364.737 405.621 364.928 405.996 365.118ZM404.101 364.162C403.771 363.997 403.44 363.83 403.106 363.664C403.44 363.83 403.771 363.997 404.101 364.162ZM402.252 363.239C401.961 363.095 401.669 362.951 401.376 362.807C401.669 362.951 401.961 363.095 402.252 363.239ZM393.254 358.883C393.13 358.824 393.006 358.766 392.882 358.707C393.006 358.766 393.13 358.824 393.254 358.883ZM389.695 357.211C388.993 356.883 388.287 356.557 387.578 356.229C388.287 356.557 388.993 356.883 389.695 357.211ZM385.864 355.435C385.006 355.04 384.143 354.647 383.278 354.253C384.143 354.647 385.006 355.04 385.864 355.435ZM380.159 352.838C379.326 352.462 378.492 352.085 377.655 351.71C378.492 352.085 379.326 352.462 380.159 352.838ZM376.097 351.016C375.296 350.659 374.496 350.302 373.693 349.946C374.496 350.302 375.296 350.659 376.097 351.016ZM371.552 349.002C370.86 348.697 370.168 348.392 369.476 348.089C370.168 348.392 370.86 348.697 371.552 349.002ZM367.48 347.218C366.734 346.892 365.988 346.568 365.242 346.245C365.988 346.568 366.734 346.892 367.48 347.218ZM363.346 345.425C362.552 345.082 361.76 344.742 360.97 344.402C361.76 344.742 362.552 345.082 363.346 345.425ZM355.37 342.013C352.57 340.826 349.808 339.664 347.104 338.536C349.808 339.664 352.57 340.826 355.37 342.013ZM346.125 338.129C345.16 337.727 344.204 337.33 343.256 336.938C344.204 337.33 345.16 337.727 346.125 338.129ZM341.82 336.344C341.052 336.026 340.29 335.711 339.535 335.4C340.29 335.711 341.052 336.026 341.82 336.344ZM337.878 334.719C337.324 334.491 336.774 334.267 336.229 334.044C336.774 334.267 337.324 334.491 337.878 334.719ZM326.064 329.921C324.762 329.397 323.501 328.891 322.287 328.406C323.501 328.891 324.761 329.397 326.064 329.921ZM320.02 327.501C318.847 327.034 317.726 326.589 316.662 326.168C317.726 326.589 318.847 327.034 320.02 327.501ZM314.78 325.423C313.559 324.941 312.428 324.497 311.395 324.092C312.428 324.497 313.559 324.941 314.78 325.423ZM310.551 323.76C309.249 323.25 308.126 322.813 307.203 322.454C308.126 322.813 309.249 323.25 310.551 323.76ZM-20.4551 519.836C-20.5044 520.283 -20.5512 520.727 -20.5986 521.168C-20.5512 520.727 -20.5044 520.283 -20.4551 519.836ZM-19.7412 513.738C-19.8337 514.485 -19.9224 515.226 -20.0098 515.961C-19.9224 515.226 -19.8337 514.485 -19.7412 513.738ZM-11.1768 466.993C-11.2824 467.41 -11.3865 467.827 -11.4902 468.243C-11.3865 467.827 -11.2824 467.41 -11.1768 466.993ZM413.452 369.075C413.235 368.95 413.016 368.828 412.798 368.704C413.016 368.828 413.235 368.95 413.452 369.075ZM359.309 343.69C358.117 343.181 356.93 342.676 355.75 342.175C356.93 342.676 358.117 343.181 359.309 343.69Z" fill="#8F8370"/>
<path d="M261.94 371.691C232.677 371.691 207.961 357.854 195.83 349.602C179.435 338.449 166.482 324.296 165.034 315.94C164.962 315.512 165.061 315.065 165.311 314.709C165.495 314.453 183.488 288.574 185.29 258.616C186.863 232.454 174.475 208.477 172.679 205.154C168.955 203.042 143.897 188.198 140.838 169.939C139.673 162.997 141.831 156.45 147.252 150.469C151.568 145.712 156.41 143.297 161.646 143.297C176.225 143.297 189.343 161.892 194.31 169.893C194.507 170.208 194.757 170.373 195.06 170.373C195.547 170.373 196.093 169.978 196.198 169.221C198.593 151.614 191.586 119.418 191.514 119.089C191.382 118.497 191.586 117.885 192.047 117.49C192.257 117.313 213.119 99.1129 216.257 74.6291C216.329 74.0567 216.698 73.5698 217.224 73.3329C217.625 73.1552 257.927 55.4685 292.814 55.4685C296.018 55.4685 299.13 55.6198 302.057 55.9159C327.155 58.4426 333.484 69.5231 340.181 81.2485L340.51 81.8209C351.299 100.692 342.813 136.743 340.951 143.981C342.339 144.981 344.477 147.166 346.036 151.719C349.016 160.404 348.655 173.663 344.951 191.126C335.451 235.928 327.912 271.526 304.208 277.579C305.228 283.527 308.471 305.346 305.682 328.027C302.281 355.676 290.143 369.882 268.571 371.454C266.394 371.612 264.163 371.698 261.946 371.698L261.94 371.691Z" fill="#FFCDAE"/>
<path d="M292.814 57.1068C295.893 57.1068 298.926 57.245 301.893 57.5411C326.55 60.0217 332.405 70.9575 339.076 82.6236C350.648 102.863 339.03 144.757 339.03 144.757C339.03 144.757 352.108 149.37 343.332 190.771C333.444 237.435 325.767 271.743 302.301 276.302C302.301 276.302 307.3 301.293 304.037 327.81C301.156 351.247 291.663 368.105 268.44 369.796C266.262 369.954 264.091 370.033 261.933 370.033C212.658 370.033 169.146 330.007 166.646 315.644C166.646 315.644 185.067 289.502 186.922 258.701C188.659 229.796 173.883 203.937 173.883 203.937C173.883 203.937 125.213 177.209 148.462 151.561C152.739 146.843 157.212 144.929 161.64 144.929C174.271 144.929 186.54 160.49 192.902 170.741C193.442 171.61 194.244 171.998 195.047 171.998C196.323 171.998 197.599 171.024 197.816 169.419C200.283 151.311 193.113 118.714 193.113 118.714C193.113 118.714 214.625 100.245 217.882 74.8133C217.882 74.8133 257.861 57.0871 292.801 57.0871M292.814 53.8169C257.585 53.8169 218.217 71.0891 216.559 71.826C215.507 72.2932 214.777 73.2736 214.632 74.4185C211.566 98.3166 191.185 116.063 190.981 116.24C190.06 117.03 189.652 118.26 189.909 119.445C189.975 119.754 196.54 149.916 194.744 167.504C189.034 158.661 176.172 141.658 161.653 141.658C155.929 141.658 150.673 144.251 146.035 149.37C140.259 155.739 137.969 162.753 139.219 170.215C142.298 188.606 166.462 203.463 171.455 206.352C173.791 210.773 185.146 233.671 183.652 258.524C181.883 287.988 164.153 313.518 163.969 313.768C163.469 314.479 163.271 315.367 163.416 316.229C166.298 332.791 211.691 373.343 261.946 373.343C264.203 373.343 266.466 373.257 268.69 373.099C280.623 372.224 289.979 367.473 296.491 358.979C302.136 351.609 305.675 341.555 307.314 328.231C309.965 306.642 307.314 286.33 306.083 278.763C316.55 275.506 324.517 266.452 330.964 250.582C337.372 234.816 342.043 212.78 346.563 191.468C350.326 173.709 350.674 160.154 347.595 151.186C346.194 147.106 344.332 144.731 342.806 143.363C345.102 134.098 352.589 99.626 341.944 81.005L341.615 80.4325C335.004 68.8585 328.168 56.8897 302.228 54.2775C299.248 53.9748 296.077 53.8235 292.821 53.8235L292.814 53.8169Z" fill="#7F725C"/>
<path d="M152.713 174.104C152.713 174.104 147.818 162.22 156.206 155.93C164.594 149.64 180.778 162.22 184.166 182.493C187.468 202.239 162.844 192.139 169.837 174.637" fill="url(#paint0_linear_254_8980)"/>
<path d="M178.883 194.962C176.574 194.962 174.061 193.949 171.877 192.021C168.028 188.632 165.074 182.131 168.311 174.031C168.646 173.189 169.607 172.775 170.449 173.117C171.291 173.459 171.705 174.413 171.363 175.255C168.765 181.769 171.048 186.915 174.048 189.56C176.284 191.527 178.942 192.205 180.672 191.244C182.587 190.178 183.264 187.092 182.547 182.769C180.205 168.748 171.923 159.47 165.219 156.792C163.015 155.91 159.831 155.272 157.193 157.253C149.91 162.714 154.186 173.38 154.232 173.485C154.581 174.327 154.18 175.288 153.338 175.63C152.495 175.979 151.535 175.578 151.193 174.735C149.331 170.215 147.778 160.2 155.219 154.614C158.232 152.357 162.212 152.041 166.436 153.732C173.962 156.746 183.231 166.945 185.784 182.223C187.106 190.132 184.146 193.067 182.264 194.113C181.238 194.686 180.087 194.962 178.876 194.962H178.883Z" fill="#7F725C"/>
<path d="M224.809 242.482C224.809 242.482 258.703 281.744 302.307 276.309C302.307 276.309 304.86 288.672 304.702 297.154C304.702 297.154 287.216 323.658 269.427 327.671C269.427 327.671 261.604 284.501 224.809 242.482Z" fill="url(#paint1_linear_254_8980)"/>
<path d="M173.896 203.95C173.896 203.95 179.765 207.858 185.699 205.977C192.317 203.878 195.876 194.824 195.876 194.824L200.297 225.249C200.297 225.249 185.784 224.828 181.166 220.88C181.166 220.88 177.337 208.852 173.896 203.95Z" fill="url(#paint2_linear_254_8980)"/>
<path d="M313.254 208.845C313.254 208.845 324.465 198.443 325.912 193.804C327.359 189.165 316.958 185.691 309.399 188.007C300.735 190.665 286.722 194.975 288.498 200.621C288.498 200.621 301.695 202.18 313.254 208.845Z" fill="url(#paint3_linear_254_8980)"/>
<path d="M183.778 207.766C175.699 207.766 160.699 202.081 150.055 190.014C149.456 189.329 149.522 188.29 150.199 187.691C150.884 187.092 151.923 187.158 152.522 187.836C163.66 200.463 179.863 205.299 185.422 204.351C191.58 203.305 192.896 195.442 192.909 195.357C193.054 194.462 193.889 193.85 194.79 193.988C195.685 194.126 196.297 194.968 196.159 195.863C196.093 196.284 194.481 206.141 185.975 207.595C185.317 207.707 184.58 207.766 183.778 207.766Z" fill="#7F725C"/>
<path d="M296.215 279.52C283.255 279.52 268.341 274.644 252.309 265.07C235.848 255.247 223.796 243.784 223.678 243.673C223.02 243.048 223 242.001 223.625 241.35C224.25 240.699 225.296 240.672 225.947 241.297C226.414 241.745 273.078 285.804 308.814 274.361C309.675 274.085 310.603 274.559 310.879 275.427C311.156 276.289 310.682 277.217 309.814 277.493C305.577 278.849 301.031 279.52 296.215 279.52Z" fill="#7F725C"/>
<path d="M246.795 140.671C246.361 140.671 245.934 140.5 245.611 140.165C244.98 139.507 244.999 138.467 245.657 137.835C246.078 137.427 256.157 127.887 269.558 127.393C280.327 127.011 284.209 135.394 284.367 135.749C284.735 136.579 284.367 137.552 283.538 137.921C282.709 138.289 281.735 137.921 281.367 137.092C281.242 136.822 278.183 130.367 269.683 130.676C257.525 131.124 248.032 140.112 247.94 140.204C247.624 140.513 247.21 140.665 246.802 140.665L246.795 140.671Z" fill="#7F725C"/>
<path d="M260.506 132.157C260.506 132.157 260.506 142.066 267.782 142.047C274.426 142.027 275.966 132.71 274.782 131.071C274.782 131.071 272.15 130.255 269.426 130.209C265.565 130.144 260.506 132.157 260.506 132.157Z" fill="#7F725C"/>
<path d="M239.789 129.722C239.315 129.722 238.842 129.518 238.513 129.117C237.94 128.413 238.039 127.38 238.743 126.801C239.348 126.307 253.762 114.655 272.538 114.648C286.077 114.648 289.722 123.616 289.873 123.998C290.202 124.847 289.781 125.801 288.939 126.13C288.09 126.459 287.136 126.038 286.808 125.195C286.689 124.913 283.735 117.944 272.538 117.944C254.973 117.944 240.967 129.236 240.828 129.347C240.526 129.597 240.151 129.716 239.789 129.716V129.722Z" fill="#7F725C"/>
<path d="M285.755 197.613C285.156 197.613 284.578 197.284 284.288 196.719C280.972 190.218 284.696 185.684 287.13 184.191C287.906 183.717 288.92 183.96 289.393 184.737C289.867 185.507 289.623 186.52 288.86 186.994C288.4 187.283 284.525 189.948 287.222 195.225C287.637 196.034 287.314 197.028 286.505 197.436C286.268 197.561 286.012 197.613 285.762 197.613H285.755Z" fill="#7F725C"/>
<path d="M343.642 118.905C343.642 118.905 336.017 114.102 330.813 115.832C326.912 117.135 318.432 120.425 312.846 125.044C309.991 127.406 309.195 131.236 310.077 134.835C313.471 148.659 322.932 177.762 323.662 191.771C323.787 194.106 322.951 196.383 321.353 198.081L311.202 208.839C311.202 208.839 308.682 214.84 311.202 218.952C311.202 218.952 323.03 229.684 322.721 232.461C322.412 235.237 327.905 245.778 327.905 245.778C327.905 245.778 358.121 160.595 339.03 144.757C339.03 144.757 343.694 127.314 343.642 118.892V118.905Z" fill="url(#paint4_linear_254_8980)"/>
<path d="M312.971 201.239C311.169 201.239 309.129 200.89 306.879 199.949C305.59 199.41 304.518 198.818 303.57 198.291C301.682 197.252 300.32 196.495 298.057 196.462C294.478 196.429 291.15 199.272 291.117 199.298C290.432 199.89 289.393 199.824 288.794 199.14C288.196 198.456 288.268 197.423 288.946 196.824C289.117 196.673 293.163 193.172 297.965 193.172C298.011 193.172 298.057 193.172 298.103 193.172C301.195 193.218 303.123 194.284 305.162 195.409C306.077 195.916 307.024 196.436 308.149 196.909C313.603 199.193 317.425 197.1 318.813 196.094C320.524 194.857 321.379 193.291 321.313 192.448C320.833 186.388 312.781 154.449 308.096 136.532C306.715 131.255 308.485 125.689 312.596 122.353C319.175 117.023 329.379 115.293 333.458 114.799C344.069 113.509 346.885 120.445 346.997 120.741C347.326 121.59 346.905 122.544 346.056 122.866C345.214 123.195 344.267 122.781 343.931 121.945C343.832 121.715 341.793 117.102 333.846 118.069C330.05 118.53 320.576 120.122 314.655 124.912C311.544 127.432 310.215 131.67 311.267 135.703C312.563 140.671 323.971 184.447 324.583 192.192C324.754 194.37 323.241 196.949 320.734 198.765C319.484 199.666 316.767 201.239 312.958 201.239H312.971Z" fill="#7F725C"/>
<path d="M315.971 137.776C315.491 137.776 315.011 137.566 314.688 137.158C314.123 136.447 314.234 135.414 314.945 134.848C315.327 134.539 324.399 127.354 334.05 128.084C342.582 128.729 344.431 133.769 344.503 133.986C344.799 134.842 344.346 135.783 343.49 136.079C342.635 136.375 341.694 135.921 341.398 135.065C341.359 134.967 340.05 131.841 333.806 131.367C325.432 130.736 317.09 137.349 317.004 137.414C316.701 137.658 316.34 137.776 315.978 137.776H315.971Z" fill="#7F725C"/>
<path d="M326.254 130.644C326.254 130.644 324.162 139.553 330.892 139.882C337.109 140.184 337.004 131.788 337.004 131.788C337.004 131.788 336.497 130.637 332.635 130.216C329.3 129.847 326.247 130.637 326.247 130.637L326.254 130.644Z" fill="#7F725C"/>
<path d="M284.091 227.973C281.643 227.973 279.242 227.736 277.084 227.098C276.216 226.841 275.716 225.927 275.972 225.058C276.229 224.19 277.143 223.683 278.012 223.946C283.294 225.499 290.689 224.269 296.09 223.367C298.748 222.926 301.044 222.538 302.715 222.525C304.491 222.512 306.064 223.018 307.452 223.466C308.425 223.782 309.346 224.084 310.004 224.058C310.715 224.045 311.346 223.782 312.136 223.453C313.109 223.051 314.208 222.591 315.675 222.525C317.261 222.446 318.484 223.084 319.563 223.637C320.432 224.084 321.175 224.473 322.004 224.44C322.912 224.413 323.675 225.124 323.701 226.032C323.734 226.94 323.017 227.703 322.109 227.73C320.425 227.789 319.109 227.105 318.057 226.565C317.208 226.124 316.53 225.775 315.827 225.808C314.938 225.848 314.228 226.144 313.399 226.486C312.465 226.874 311.412 227.309 310.083 227.341C308.866 227.368 307.689 226.993 306.445 226.591C305.241 226.203 303.991 225.795 302.741 225.808C301.333 225.821 299.156 226.183 296.63 226.605C292.972 227.216 288.452 227.967 284.091 227.967V227.973Z" fill="#7F725C"/>
<path d="M305.333 236.882C300.419 236.882 296.452 235.757 296.275 235.705C295.4 235.455 294.9 234.54 295.15 233.671C295.4 232.796 296.314 232.296 297.182 232.546C297.248 232.566 301.419 233.737 306.235 233.579C311.465 233.408 314.577 232.23 315.965 231.54C316.781 231.138 317.767 231.467 318.169 232.283C318.57 233.099 318.241 234.086 317.425 234.487C315.439 235.474 311.899 236.692 306.34 236.869C305.998 236.882 305.662 236.882 305.327 236.882H305.333Z" fill="#7F725C"/>
<path d="M309.906 219.103C307.82 219.103 306.235 218.439 306.057 218.36C305.228 217.998 304.847 217.024 305.208 216.195C305.57 215.366 306.537 214.984 307.366 215.346C307.399 215.359 308.623 215.86 310.116 215.813C310.879 215.787 311.478 215.629 311.761 215.537C312.116 215.274 312.577 215.149 313.044 215.234C313.873 215.386 314.465 216.149 314.399 216.985C314.274 218.702 311.728 219.044 310.228 219.097C310.116 219.097 310.011 219.097 309.906 219.097V219.103Z" fill="#7F725C"/>
</g>
<defs>
<linearGradient id="paint0_linear_254_8980" x1="183.462" y1="167.53" x2="163.468" y2="176.654" gradientUnits="userSpaceOnUse">
<stop stop-color="#E2AE8E"/>
<stop offset="1" stop-color="#FFCDAE"/>
</linearGradient>
<linearGradient id="paint1_linear_254_8980" x1="264.756" y1="269.821" x2="262.15" y2="333.712" gradientUnits="userSpaceOnUse">
<stop stop-color="#E2AE8E"/>
<stop offset="1" stop-color="#FFCDAE"/>
</linearGradient>
<linearGradient id="paint2_linear_254_8980" x1="186.409" y1="197.521" x2="187.831" y2="233.112" gradientUnits="userSpaceOnUse">
<stop stop-color="#E2AE8E"/>
<stop offset="1" stop-color="#FFCDAE"/>
</linearGradient>
<linearGradient id="paint3_linear_254_8980" x1="305.353" y1="203.66" x2="308.834" y2="189.751" gradientUnits="userSpaceOnUse">
<stop stop-color="#E2AE8E"/>
<stop offset="1" stop-color="#FFCDAE"/>
</linearGradient>
<linearGradient id="paint4_linear_254_8980" x1="310" y1="184.5" x2="381" y2="180.993" gradientUnits="userSpaceOnUse">
<stop stop-color="#E2AE8E"/>
<stop offset="1" stop-color="#FFCDAE"/>
</linearGradient>
<clipPath id="clip0_254_8980">
<rect width="500" height="556" fill="white" transform="translate(-23)"/>
</clipPath>
</defs>
</svg>
